<svg width="24" height="24" viewBox="0 0 24 24" fill="none" xmlns="http://www.w3.org/2000/svg">
<path d="M12 0C5.37222 0 0 5.37297 0 12C0 18.6278 5.37222 24 12 24C18.627 24 24 18.6278 24 12C23.9992 5.37297 18.627 0 12 0ZM12 21.75C6.61503 21.75 2.25004 17.385 2.25004 12C2.25004 6.61503 6.61503 2.25079 12 2.25079C17.3842 2.25079 21.75 6.61503 21.75 12C21.75 17.385 17.3842 21.75 12 21.75ZM16.5143 10.5H13.4992V7.50001C13.4992 7.08605 13.1632 6.75003 12.7492 6.75003H11.2493C10.8345 6.75003 10.4993 7.08605 10.4993 7.50001V10.5H7.50077C7.08529 10.5 6.74927 10.8361 6.74927 11.25V12.75C6.74927 13.1647 7.08529 13.5 7.50077 13.5H10.5V16.4932C10.5 16.9072 10.8353 17.2424 11.25 17.2424H12.75C13.1639 17.2424 13.5 16.9072 13.5 16.4932V13.5H16.515C16.9305 13.5 17.2665 13.1647 17.2665 12.75V11.25C17.2657 10.8367 16.929 10.5 16.5143 10.5Z" fill="#1BB7A5"/>
</svg>
