<?xml version="1.0" encoding="utf-8"?>
<!-- Generator: Adobe Illustrator 24.1.2, SVG Export Plug-In . SVG Version: 6.00 Build 0)  -->
<svg version="1.1" id="Layer_1" xmlns="http://www.w3.org/2000/svg" xmlns:xlink="http://www.w3.org/1999/xlink" x="0px" y="0px"
	 viewBox="0 0 24 24" style="enable-background:new 0 0 24 24;" xml:space="preserve">
<style type="text/css">
	.st0{fill:#FFFFFF;}
</style>
<path class="st0" d="M6.1,0.4L5.3,1.2C5.1,1.4,4.9,1.7,4.9,2.1c0,0.4,0.1,0.7,0.4,0.9l9,9l-9,9c-0.2,0.2-0.4,0.6-0.4,0.9
	c0,0.4,0.1,0.7,0.4,0.9l0.8,0.8c0.5,0.5,1.3,0.5,1.9,0l10.7-10.7c0.2-0.2,0.4-0.6,0.4-0.9v0c0-0.4-0.2-0.7-0.4-0.9L8,0.4
	C7.7,0.1,7.4,0,7,0C6.7,0,6.3,0.1,6.1,0.4z"/>
</svg>
