<?xml version="1.0" encoding="utf-8"?>
<!-- Generator: Adobe Illustrator 24.1.2, SVG Export Plug-In . SVG Version: 6.00 Build 0)  -->
<svg version="1.1" id="Layer_1" xmlns="http://www.w3.org/2000/svg" xmlns:xlink="http://www.w3.org/1999/xlink" x="0px" y="0px"
	 viewBox="0 0 24 24" style="enable-background:new 0 0 24 24;" xml:space="preserve">
<style type="text/css">
	.st0{fill:#FFFFFF;}
</style>
<path class="st0" d="M17.9,23.6l0.8-0.8c0.2-0.2,0.4-0.6,0.4-0.9c0-0.4-0.1-0.7-0.4-0.9l-9-9l9-9c0.2-0.2,0.4-0.6,0.4-0.9
	c0-0.4-0.1-0.7-0.4-0.9l-0.8-0.8c-0.5-0.5-1.3-0.5-1.9,0L5.3,11.1c-0.2,0.2-0.4,0.6-0.4,0.9v0c0,0.4,0.2,0.7,0.4,0.9L16,23.6
	c0.2,0.2,0.6,0.4,0.9,0.4C17.3,24,17.7,23.9,17.9,23.6z"/>
</svg>
