<svg width="213" height="213" viewBox="0 0 213 213" fill="none" xmlns="http://www.w3.org/2000/svg">
<g clip-path="url(#clip0)">
<path d="M35.9936 211.045H35.994C38.5561 211.045 41.3793 209.901 44.0615 207.61L44.0637 207.608L99.1055 160.875C99.1057 160.874 99.1059 160.874 99.1061 160.874L99.1077 160.873L35.9936 211.045ZM35.9936 211.045C33.2911 211.046 30.7787 209.761 29.2164 207.519C27.8757 205.595 27.022 203.075 27.022 200V18C27.022 8.84273 35.3236 1 44.84 1H167.871C177.34 1 185.022 8.79668 185.022 18V200.001C185.022 203.973 183.902 206.726 182.323 208.474C180.746 210.22 178.64 211.046 176.488 211.046C173.948 211.046 171.334 209.915 168.625 207.602L168.624 207.602L113.765 160.879L35.9936 211.045Z" fill="#FFC850" stroke="black" stroke-width="2"/>
</g>
<defs>
<clipPath id="clip0">
<rect width="212.045" height="212.045" fill="white"/>
</clipPath>
</defs>
</svg>
