<svg width="24" height="21" viewBox="0 0 24 21" fill="none" xmlns="http://www.w3.org/2000/svg">
<g clip-path="url(#clip0)">
<rect width="24" height="19.4595" transform="translate(0 0.770264)" fill="white"/>
<path d="M13.6428 9.99849C13.7135 10.1107 13.8544 10.1756 13.9999 10.1756C14.0607 10.1756 14.1231 10.1642 14.1812 10.1402C14.2047 10.1305 16.5592 9.16075 17.7203 8.86335C17.9308 8.80919 18.0475 8.62691 17.9807 8.45634C17.9143 8.28573 17.6911 8.19071 17.4787 8.24457C16.2556 8.5582 13.9172 9.52143 13.818 9.56229C13.6212 9.64336 13.5428 9.83864 13.6428 9.99849Z" fill="#5D5D5D"/>
<path d="M14.0001 6.28372C14.0609 6.28372 14.1232 6.27236 14.1813 6.24837C14.2049 6.23864 16.5593 5.26891 17.7205 4.97151C17.9309 4.91735 18.0476 4.73507 17.9808 4.5645C17.9144 4.39388 17.6912 4.29887 17.4789 4.35272C16.2557 4.66635 13.9173 5.62959 13.8181 5.67045C13.6213 5.75151 13.5429 5.94675 13.6429 6.10665C13.7137 6.21884 13.8545 6.28372 14.0001 6.28372Z" fill="#5D5D5D"/>
<path d="M23.6008 5.63524C23.3796 5.63524 23.2008 5.78054 23.2008 5.95955V18.6081C23.2008 19.1445 22.6624 19.5811 22.0008 19.5811H12.4009V18.8348C12.9841 18.6694 14.5033 18.2838 16.0009 18.2838C19.4853 18.2838 21.8513 18.9094 21.8748 18.9159C21.9952 18.9483 22.1296 18.9321 22.2348 18.8711C22.3392 18.8101 22.4008 18.7122 22.4008 18.6081V4.33797C22.4008 4.18587 22.2708 4.05418 22.0876 4.02141C22.0876 4.02141 21.774 3.96467 21.238 3.88486C21.0216 3.85244 20.8124 3.96919 20.7724 4.14497C20.7324 4.3214 20.876 4.49038 21.0932 4.5228C21.2976 4.55328 21.4688 4.58019 21.6008 4.60162V18.1771C20.6944 17.9844 18.6816 17.6351 16.0008 17.6351C14.258 17.6351 12.5461 18.0992 12.0164 18.2565C11.5456 18.0879 10.1225 17.6351 8.40086 17.6351C5.64567 17.6351 3.37609 18.0036 2.40091 18.1907V4.58896C3.1997 4.42972 5.5589 4.01362 8.40086 4.01362C9.85927 4.01362 11.11 4.38172 11.6009 4.54811V17.3108C11.6009 17.4276 11.6784 17.5356 11.8036 17.593C11.9288 17.6507 12.0832 17.6491 12.2068 17.5888C12.2465 17.5697 16.2096 15.6503 19.7272 14.6997C19.8908 14.6553 20.0008 14.5317 20.0008 14.3919V1.09473C20.0008 0.988347 19.9364 0.88877 19.8284 0.82815C19.7212 0.767492 19.5836 0.753543 19.46 0.790866C16.2596 1.76414 13.0213 3.39807 12.9889 3.4143C12.8016 3.50932 12.7445 3.70942 12.8616 3.86122C12.9785 4.01302 13.2252 4.05938 13.4128 3.96437C13.4424 3.94913 16.2596 2.52795 19.2008 1.56893V14.1598C16.4704 14.929 13.6196 16.1852 12.4008 16.7475V4.33797C12.4008 4.21506 12.3152 4.10282 12.1796 4.04771C12.1108 4.02016 10.4716 3.36501 8.40086 3.36501C4.7865 3.36501 2.00773 3.99907 1.89091 4.02628C1.71931 4.06584 1.6009 4.19332 1.6009 4.33797V18.6081C1.6009 18.7097 1.6601 18.8057 1.75971 18.867C1.83012 18.9101 1.91491 18.9325 2.00093 18.9325C2.03773 18.9325 2.07452 18.9283 2.11052 18.9198C2.13813 18.9137 4.90411 18.2838 8.40086 18.2838C9.86326 18.2838 11.1128 18.6529 11.6009 18.8186V19.5811H2.00093C1.33934 19.5811 0.800939 19.1446 0.800939 18.6081V5.95959C0.800939 5.78058 0.621737 5.63528 0.400958 5.63528C0.180178 5.63528 0.000976562 5.78058 0.000976562 5.95959V18.6081C0.000976562 19.5023 0.898157 20.2298 2.00098 20.2298H22.0008C23.1036 20.2298 24.0008 19.5023 24.0008 18.6081V5.95959C24.0008 5.78054 23.822 5.63524 23.6008 5.63524Z" fill="#5D5D5D"/>
<path d="M13.6428 8.05269C13.7135 8.16492 13.8544 8.22976 13.9999 8.22976C14.0607 8.22976 14.1231 8.2184 14.1812 8.19442C14.2047 8.18469 16.5592 7.21495 17.7203 6.91755C17.9308 6.86339 18.0475 6.68111 17.9807 6.51054C17.9143 6.33993 17.6911 6.24491 17.4787 6.29877C16.2556 6.6124 13.9172 7.57563 13.818 7.61649C13.6212 7.69756 13.5428 7.89284 13.6428 8.05269Z" fill="#5D5D5D"/>
<path d="M13.6428 11.9443C13.7135 12.0565 13.8544 12.1214 13.9999 12.1214C14.0607 12.1214 14.1231 12.11 14.1812 12.086C14.2047 12.0763 16.5592 11.1066 17.7203 10.8092C17.9308 10.755 18.0475 10.5727 17.9807 10.4021C17.9143 10.2315 17.6911 10.1365 17.4787 10.1904C16.2556 10.504 13.9172 11.4672 13.818 11.5081C13.6212 11.5892 13.5428 11.7844 13.6428 11.9443Z" fill="#5D5D5D"/>
<path d="M9.69103 6.78931C7.22106 6.31936 4.41426 6.91808 4.29627 6.94369C4.08309 6.99006 3.95629 7.16778 4.01348 7.34097C4.06148 7.48593 4.22306 7.58129 4.39949 7.58129C4.4339 7.58129 4.46868 7.57772 4.50351 7.57027C4.53032 7.56411 7.23269 6.98778 9.50869 7.42075C9.72267 7.4613 9.93909 7.35329 9.98948 7.1788C10.0398 7.00466 9.90623 6.83017 9.69103 6.78931Z" fill="#5D5D5D"/>
<path d="M9.69103 8.73545C7.22106 8.26584 4.41426 8.86422 4.29627 8.88983C4.08309 8.9362 3.95629 9.11396 4.01348 9.28712C4.06148 9.43207 4.22306 9.52743 4.39949 9.52743C4.4339 9.52743 4.46868 9.52386 4.50351 9.51641C4.53032 9.51025 7.23269 8.93392 9.50869 9.36689C9.72267 9.40744 9.93909 9.29943 9.98948 9.12494C10.0398 8.9508 9.90623 8.77631 9.69103 8.73545Z" fill="#5D5D5D"/>
<path d="M13.6428 13.8901C13.7135 14.0023 13.8544 14.0672 13.9999 14.0672C14.0607 14.0672 14.1231 14.0558 14.1812 14.0318C14.2047 14.0221 16.5592 13.0524 17.7203 12.755C17.9308 12.7008 18.0475 12.5185 17.9807 12.3479C17.9143 12.1774 17.6911 12.0823 17.4787 12.1362C16.2556 12.4498 13.9172 13.413 13.818 13.4539C13.6212 13.535 13.5428 13.7302 13.6428 13.8901Z" fill="#5D5D5D"/>
<path d="M9.69103 10.6813C7.22106 10.2117 4.41426 10.8097 4.29627 10.8357C4.08309 10.8821 3.95629 11.0598 4.01348 11.233C4.06148 11.3779 4.22306 11.4736 4.39949 11.4736C4.4339 11.4736 4.46868 11.4698 4.50351 11.4623C4.53032 11.4561 7.23269 10.8798 9.50869 11.3127C9.72267 11.3533 9.93909 11.2453 9.98948 11.0708C10.0398 10.8967 9.90623 10.7222 9.69103 10.6813Z" fill="#5D5D5D"/>
<path d="M9.69103 14.573C7.22106 14.1031 4.41426 14.7018 4.29627 14.7274C4.08309 14.7738 3.95629 14.9515 4.01348 15.1247C4.06148 15.2696 4.22306 15.3653 4.39949 15.3653C4.4339 15.3653 4.46868 15.3614 4.50351 15.354C4.53032 15.3478 7.23269 14.7715 9.50869 15.2044C9.72267 15.2447 9.93909 15.137 9.98948 14.9625C10.0398 14.7883 9.90623 14.6139 9.69103 14.573Z" fill="#5D5D5D"/>
<path d="M9.69103 12.6273C7.22106 12.1573 4.41426 12.7557 4.29627 12.7816C4.08309 12.828 3.95629 13.0058 4.01348 13.1789C4.06148 13.3239 4.22306 13.4196 4.39949 13.4196C4.4339 13.4196 4.46868 13.4157 4.50351 13.4082C4.53032 13.4021 7.23269 12.8257 9.50869 13.2587C9.72267 13.2992 9.93909 13.1912 9.98948 13.0167C10.0398 12.8426 9.90623 12.6681 9.69103 12.6273Z" fill="#5D5D5D"/>
</g>
<defs>
<clipPath id="clip0">
<rect width="24" height="19.4595" fill="white" transform="translate(0 0.770264)"/>
</clipPath>
</defs>
</svg>
