<svg width="49" height="74" viewBox="0 0 49 74" fill="none" xmlns="http://www.w3.org/2000/svg">
<path d="M41.4533 56.2993C39.9842 57.285 38.4247 58.1469 36.7891 58.8671C35.5212 59.4267 34.2081 59.9028 32.8569 60.2861C30.2022 61.042 27.3987 61.4468 24.5 61.4468C21.6024 61.4468 18.7989 61.042 16.143 60.2872C15.2811 60.042 14.4335 59.7586 13.6037 59.4396C13.5525 59.4205 13.5014 59.4015 13.4502 59.3812C13.0324 59.2193 12.6193 59.0467 12.2109 58.8669C10.5752 58.1456 9.01569 57.2849 7.54547 56.2979C8.78238 54.5873 10.3739 53.1515 12.2109 52.0932C13.4251 51.3944 14.7466 50.8622 16.143 50.5277C16.3584 50.4753 16.5762 50.4277 16.7954 50.3861C17.2085 50.3052 17.6287 50.2432 18.0537 50.1992C18.1763 50.1861 18.2978 50.1742 18.4215 50.1647C18.8239 50.1313 19.231 50.1147 19.643 50.1147H29.3559C29.8941 50.1147 30.4238 50.1433 30.9452 50.198C31.3702 50.242 31.7893 50.3052 32.2036 50.3838C32.369 50.4159 32.5334 50.4505 32.6964 50.4874C32.7501 50.5017 32.8047 50.5124 32.8572 50.5267C34.2548 50.8625 35.575 51.3945 36.7893 52.0933C38.626 53.153 40.2164 54.5887 41.4533 56.2993Z" fill="#F6F1F1"/>
<path d="M19.6427 50.1152C16.1476 50.1152 13.7786 55.1663 13.6035 59.44C13.5523 59.421 13.5012 59.402 13.4499 59.3817C13.0322 59.2198 12.619 59.0472 12.2106 58.8674C10.5749 58.1461 9.01545 57.2854 7.54523 56.2984C8.78214 54.5878 10.3737 53.152 12.2106 52.0936C13.4248 51.3949 14.7463 50.8627 16.1427 50.5282C16.3582 50.4758 16.576 50.4282 16.7951 50.3866C17.2082 50.3057 17.6284 50.2437 18.0535 50.1997C18.1761 50.1866 18.2975 50.1747 18.4213 50.1652C18.8236 50.132 19.2308 50.1152 19.6427 50.1152Z" fill="#DFEAEF"/>
<path d="M24.4989 56.2226L18.1903 59.7286L16.2711 50.2066L20.1911 48.4932" fill="#DFEAEF"/>
<path d="M24.4982 56.2226L30.8069 59.7286L32.726 50.2066L28.8061 48.4932" fill="#DFEAEF"/>
<path d="M29.823 44.3691V50.9011C29.823 53.2925 28.2462 55.3139 26.0743 55.9851C25.5772 56.1394 25.0473 56.2228 24.4994 56.2228C21.5599 56.2228 19.1776 53.8406 19.1776 50.9011V44.3691H29.823Z" fill="#EAAC9D"/>
<path d="M29.8232 50.4873V50.901C29.8232 53.2924 28.2464 55.3138 26.0745 55.985C24.115 55.3826 22.6417 53.6789 22.3695 51.5941C22.7251 51.6158 23.0826 51.6267 23.4418 51.6267C24.4488 51.6267 25.4358 51.5468 26.3975 51.389C27.5824 51.1986 28.7273 50.8937 29.8232 50.4873Z" fill="#FFCBBE"/>
<path d="M9.80335 33.6111C9.80335 36.0512 8.02092 38.0745 5.68688 38.45C5.43172 38.4913 5.16946 38.5128 4.90167 38.5128C2.19383 38.5128 0 36.319 0 33.6111C0 30.9033 2.19383 28.7095 4.90167 28.7095C5.16946 28.7095 5.43172 28.731 5.68688 28.7723C8.02092 29.148 9.80335 31.1711 9.80335 33.6111Z" fill="#FFCBBE"/>
<path d="M9.80389 33.6122C9.80389 36.0523 8.02146 38.0755 5.68742 38.4511C5.26338 36.9094 5.03703 35.287 5.03703 33.6122C5.03703 31.9377 5.26338 30.3152 5.68742 28.7734C8.02146 29.1491 9.80389 31.1722 9.80389 33.6122Z" fill="#EAAC9D"/>
<path d="M4.90174 35.3632C5.8693 35.3632 6.65366 34.5788 6.65366 33.6113C6.65366 32.6437 5.8693 31.8594 4.90174 31.8594C3.93419 31.8594 3.14983 32.6437 3.14983 33.6113C3.14983 34.5788 3.93419 35.3632 4.90174 35.3632Z" fill="#EAAC9D"/>
<path d="M39.1965 33.6111C39.1965 36.0512 40.9789 38.0745 43.313 38.45C43.5681 38.4913 43.8304 38.5128 44.0982 38.5128C46.806 38.5128 48.9998 36.319 48.9998 33.6111C48.9998 30.9033 46.806 28.7095 44.0982 28.7095C43.8304 28.7095 43.5681 28.731 43.313 28.7723C40.9789 29.148 39.1965 31.1711 39.1965 33.6111Z" fill="#FFCBBE"/>
<path d="M39.1965 33.6103C39.1965 36.0503 40.9789 38.0736 43.313 38.4491C43.737 36.9075 43.9634 35.285 43.9634 33.6103C43.9634 31.9357 43.737 30.3132 43.313 28.7715C40.9789 29.1471 39.1965 31.1702 39.1965 33.6103Z" fill="#EAAC9D"/>
<path d="M44.0986 35.3627C45.0661 35.3627 45.8505 34.5784 45.8505 33.6108C45.8505 32.6432 45.0661 31.8589 44.0986 31.8589C43.131 31.8589 42.3467 32.6432 42.3467 33.6108C42.3467 34.5784 43.131 35.3627 44.0986 35.3627Z" fill="#EAAC9D"/>
<path d="M42.9162 31.0327C42.9162 40.1975 36.2208 47.7999 27.4553 49.2117C26.4937 49.3695 25.5066 49.4494 24.4995 49.4494C14.3278 49.4494 6.08307 41.2045 6.08307 31.0329V12.2832H42.9162V31.0327Z" fill="#FFCBBE"/>
<path d="M27.7451 49.1621C27.6498 49.1787 27.5533 49.1954 27.457 49.2109C26.4951 49.368 25.5082 49.4478 24.5011 49.4478C14.3298 49.4478 6.08475 41.2039 6.08475 31.0314V12.2817H12.5787V31.0314C12.5785 40.0957 19.1237 47.6277 27.7451 49.1621Z" fill="#EAAC9D"/>
<path d="M42.9163 28.8511L42.1382 17.2029C30.5044 21.1437 22.7551 23.004 17.8403 22.164C24.7296 20.8477 26.7195 16.4972 26.7195 16.4972C26.7195 16.4972 22.2044 19.4139 17.3176 20.3847C15.0256 20.8396 12.6988 19.6555 11.781 17.5056C11.7743 17.494 11.7694 17.4808 11.7644 17.4693C11.7644 17.4693 11.8742 28.8513 6.08306 28.8513C6.08306 28.8513 -1.71321 3.24748 10.6068 6.88556C10.6068 6.88556 14.1705 3.6129 19.4906 1.75242C19.5104 1.74575 19.5303 1.73922 19.5517 1.73099C19.6096 1.70942 19.6691 1.6897 19.7287 1.67139C19.7916 1.65152 19.851 1.63165 19.9074 1.61179C25.5334 -0.243725 33.0065 -0.437294 40.291 6.30655C54.7611 19.7016 42.9163 28.8511 42.9163 28.8511Z" fill="#2F373B"/>
<path d="M17.3176 20.3848C15.0256 20.8396 12.6988 19.6555 11.781 17.5056C11.7743 17.494 11.7694 17.4808 11.7644 17.4693C11.7644 17.4693 11.8742 28.8513 6.08306 28.8513C6.08306 28.8513 -1.71321 3.24749 10.6068 6.88557C10.6068 6.88557 14.1705 3.61292 19.4906 1.75244C12.1896 4.41161 14.1143 20.3848 17.3176 20.3848Z" fill="#181E21"/>
<path d="M24.5004 42.8533C22.9583 42.8533 21.4162 42.4668 20.0104 41.6941C19.6139 41.4761 19.4692 40.978 19.6872 40.5815C19.9051 40.185 20.4034 40.0404 20.7998 40.2582C23.1169 41.5322 25.8838 41.5321 28.2009 40.2582C28.5972 40.0403 29.0954 40.1849 29.3135 40.5815C29.5315 40.978 29.3868 41.4761 28.9903 41.6941C27.5846 42.4668 26.0424 42.8533 24.5004 42.8533Z" fill="#DF9380"/>
<path d="M26.5892 37.3501H22.411C21.9133 37.3501 21.5098 36.9467 21.5098 36.449C21.5098 35.9513 21.9133 35.5479 22.411 35.5479H26.5892C27.0869 35.5479 27.4903 35.9513 27.4903 36.449C27.4903 36.9467 27.0869 37.3501 26.5892 37.3501Z" fill="#EAAC9D"/>
<path d="M27.5155 32.2881C27.5155 34.3315 29.172 35.988 31.2154 35.988C33.2588 35.988 34.9154 34.3315 34.9154 32.2881" fill="#EAAC9D"/>
<path d="M31.2147 34.9397C32.6801 34.9397 33.8679 33.7518 33.8679 32.2865C33.8679 30.8212 32.6801 29.6333 31.2147 29.6333C29.7494 29.6333 28.5615 30.8212 28.5615 32.2865C28.5615 33.7518 29.7494 34.9397 31.2147 34.9397Z" fill="#2F373B"/>
<path d="M32.3193 32.9563C32.9472 32.9563 33.4562 32.4474 33.4562 31.8195C33.4562 31.1916 32.9472 30.6826 32.3193 30.6826C31.6915 30.6826 31.1825 31.1916 31.1825 31.8195C31.1825 32.4474 31.6915 32.9563 32.3193 32.9563Z" fill="white"/>
<path d="M14.08 32.2881C14.08 34.3315 15.7366 35.988 17.78 35.988C19.8234 35.988 21.48 34.3315 21.48 32.2881" fill="#EAAC9D"/>
<path d="M17.7793 34.9397C19.2446 34.9397 20.4325 33.7518 20.4325 32.2865C20.4325 30.8212 19.2446 29.6333 17.7793 29.6333C16.314 29.6333 15.1261 30.8212 15.1261 32.2865C15.1261 33.7518 16.314 34.9397 17.7793 34.9397Z" fill="#2F373B"/>
<path d="M18.3997 34.8665C18.2009 34.9153 17.9926 34.9403 17.7796 34.9403C16.3142 34.9403 15.1261 33.7522 15.1261 32.2868C15.1261 30.8214 16.3142 29.6333 17.7796 29.6333C17.9927 29.6333 18.2011 29.6583 18.3997 29.7071C17.2331 29.9857 16.3677 31.0357 16.3677 32.2868C16.3677 33.5379 17.2331 34.5879 18.3997 34.8665Z" fill="#181E21"/>
<path d="M31.8353 34.8665C31.6365 34.9153 31.4282 34.9403 31.215 34.9403C29.7496 34.9403 28.5615 33.7522 28.5615 32.2868C28.5615 30.8214 29.7496 29.6333 31.215 29.6333C31.4282 29.6333 31.6365 29.6583 31.8353 29.7071C30.6686 29.9857 29.8033 31.0357 29.8033 32.2868C29.8033 33.5379 30.6686 34.5879 31.8353 34.8665Z" fill="#181E21"/>
<path d="M18.8856 32.9563C19.5134 32.9563 20.0224 32.4474 20.0224 31.8195C20.0224 31.1916 19.5134 30.6826 18.8856 30.6826C18.2577 30.6826 17.7487 31.1916 17.7487 31.8195C17.7487 32.4474 18.2577 32.9563 18.8856 32.9563Z" fill="white"/>
<path d="M24.4996 48.7311V73.1544C23.4452 73.1544 22.4007 73.1089 21.3676 73.021C14.1428 72.4051 7.52116 69.6732 2.12563 65.4471V50.1105C2.12563 47.6696 4.10389 45.6899 6.54621 45.6899H21.4584C23.1373 45.6899 24.4996 47.0523 24.4996 48.7311Z" fill="#F6F1F1"/>
<path d="M7.4204 45.6899V64.2011H2.12563V50.1105C2.12563 47.6696 4.10389 45.6899 6.54621 45.6899H7.4204Z" fill="#DFEAEF"/>
<path d="M46.8741 52.238V65.4486C41.4772 69.672 34.8569 72.4024 27.6336 73.0197C26.6019 73.1077 25.5574 73.1531 24.5015 73.1531H24.5001V48.5508C24.5001 48.1458 24.8285 47.8174 25.2335 47.8174H42.4535C44.895 47.8174 46.8741 49.7965 46.8741 52.238Z" fill="#F6F1F1"/>
<path d="M24.4996 48.4922V73.1538C16.0601 73.1538 8.29174 70.2758 2.12563 65.4465V52.9128C2.12563 50.4719 4.10389 48.4922 6.54621 48.4922H24.4996Z" fill="#1BB7A5"/>
<path d="M46.8741 52.9128V65.4494C40.7066 70.2758 32.9397 73.1538 24.5015 73.1538H24.5001V48.4922H42.4535C44.8944 48.4922 46.8741 50.4719 46.8741 52.9128Z" fill="#1BB7A5"/>
<path d="M27.6326 48.4922V73.0204C26.6008 73.1084 25.5564 73.1538 24.5005 73.1538H24.4991C23.4447 73.1538 22.4002 73.1084 21.3671 73.0204V48.4922H27.6326Z" fill="#1BB7A5"/>
<path d="M21.3688 51.3013H27.633V54.1102H21.3688V51.3013Z" fill="#ECC32E"/>
<path d="M41.7673 57.7773H32.3352C31.4529 57.7773 30.7377 57.062 30.7377 56.1798V53.7127C30.7377 52.8305 31.4529 52.1152 32.3352 52.1152H41.7673C42.6495 52.1152 43.3648 52.8305 43.3648 53.7127V56.1798C43.3648 57.062 42.6495 57.7773 41.7673 57.7773Z" fill="#ECC32E"/>
<path d="M32.5829 54.9451C32.5829 54.4005 33.0244 53.959 33.569 53.959H40.5341C41.0788 53.959 41.5203 54.4005 41.5203 54.9451C41.5203 55.4898 41.0788 55.9313 40.5341 55.9313H33.569C33.0244 55.9313 32.5829 55.4898 32.5829 54.9451Z" fill="#2F373B"/>
<path d="M21.3688 56.2222H27.633V59.0311H21.3688V56.2222Z" fill="#ECC32E"/>
</svg>
