<svg width="24" height="24" viewBox="0 0 24 24" fill="none" xmlns="http://www.w3.org/2000/svg">
<g clip-path="url(#clip0)">
<path d="M12.1058 14.5475L22.6038 3.02472L23.9897 4.28741L12.2019 17.2258L5.77585 11.1171L7.06784 9.75806L12.1058 14.5475ZM23.2617 7.84003L21.7996 9.44989C22.0118 10.2649 22.125 11.1194 22.125 12C22.125 17.5829 17.5829 22.125 12 22.125C6.41708 22.125 1.87497 17.5829 1.87497 12C1.87497 6.41711 6.41708 1.875 12 1.875C14.5863 1.875 16.9488 2.85022 18.7404 4.45166L20.0044 3.05988C17.8009 1.08215 14.9837 0 12 0C8.79471 0 5.78116 1.24823 3.51468 3.51471C1.2482 5.78119 -3.05176e-05 8.79474 -3.05176e-05 12C-3.05176e-05 15.2053 1.2482 18.2188 3.51468 20.4853C5.78116 22.7518 8.79471 24 12 24C15.2052 24 18.2188 22.7518 20.4853 20.4853C22.7517 18.2188 24 15.2053 24 12C24 10.5575 23.7464 9.15417 23.2617 7.84003Z" fill="white"/>
</g>
<defs>
<clipPath id="clip0">
<rect width="24" height="24" fill="white"/>
</clipPath>
</defs>
</svg>
