<svg width="496" height="500" viewBox="0 0 496 500" fill="none" xmlns="http://www.w3.org/2000/svg">
<path d="M256 388L272 460L248 492L224 460L240 388H256Z" fill="#128C7E"/>
<path d="M248 356L272 370.4L256 388H240L224 370.4L248 356Z" fill="#128C7E"/>
<path d="M80 324H200L208 380L224 370.4L240 388L224 460L248 492H168V388H48C30.32 388 16 373.68 16 356V252H80V324Z" fill="white"/>
<path d="M415.44 324V252H479.44V356C479.44 373.68 465.12 388 447.44 388H328V492H248L272 460L256 388L272 370.4L288 380L296 324H415.44Z" fill="white"/>
<path d="M248 356L224 370.4L208 380L200 324H216L248 356Z" fill="white"/>
<path d="M296 324L288 380L272 370.4L248 356L280 324H296Z" fill="white"/>
<path d="M304 91.84C304 97.2 302.72 102.48 300.4 107.28L296 116H216.96C185.52 116 160 141.52 160 172.96C160 177.68 160.56 182.32 161.68 186.8L166 204H136L125.44 198.72C118.88 195.44 113.52 190.4 109.76 184.4C106.08 178.4 104 171.36 104 164.08C104 153.76 108.08 143.92 115.36 136.64L118.72 133.28C128.24 123.76 133.2 111.04 133.2 98.24C133.2 90.64 131.52 83.04 128 76H131.12C140.16 76 148.88 78.24 156.56 82.4C164.32 86.56 171.04 92.48 176 100L184.88 95.6C196.56 89.76 203.6 77.92 203.6 65.28C203.6 63.04 203.36 60.88 202.96 58.64C202.48 56.24 202.24 53.84 202.24 51.44C202.24 44.48 204.32 37.52 208.24 31.6C213.28 24.16 220.8 18.8 229.52 16.64L248 12C243.44 30.24 253.28 48.96 270.88 55.6L281.68 59.6C288.4 62.08 294 66.56 297.92 72.24C301.76 77.92 304 84.64 304 91.84V91.84Z" fill="#FF826E"/>
<path d="M392 164.08C392 171.36 389.92 178.4 386.24 184.4C382.48 190.4 377.12 195.44 370.56 198.72L360 204H332.4C334.8 193.12 336 181.92 336 170.72V140C336 133.36 333.28 127.36 328.96 123.04C326.96 121.04 324.56 119.36 321.92 118.16L325.92 106.32C331.92 88.24 348.88 76 368 76C364.48 83.04 362.8 90.64 362.8 98.24C362.8 111.04 367.76 123.76 377.28 133.28L380.64 136.64C387.92 143.92 392 153.76 392 164.08Z" fill="#FF826E"/>
<path d="M224 172L209.68 179.12C200 184 193.52 193.44 192.24 204H184C177.6 204 171.84 206.48 167.6 210.48L166 204L161.68 186.8C160.56 182.32 160 177.68 160 172.96C160 141.52 185.52 116 216.96 116H296H312C315.52 116 318.88 116.8 321.92 118.16C324.56 119.36 326.96 121.04 328.96 123.04C333.28 127.36 336 133.36 336 140C336 162.4 322.96 181.6 304 190.56C296.72 194.08 288.64 196 280 196H248C241.36 196 235.36 193.28 231.04 188.96C226.72 184.64 224 178.64 224 172V172Z" fill="#656D78"/>
<path d="M332.4 204C331.76 206.88 331.12 209.68 330.32 212.48C325.92 207.28 319.36 204 312 204H304V190.64V190.56C322.96 181.6 336 162.4 336 140V170.72C336 181.92 334.8 193.12 332.4 204V204Z" fill="#656D78"/>
<path d="M88 218.08C88 229.84 85.28 241.44 80 252H16C10.72 241.44 8 229.84 8 218.08V204C8 195.2 11.6 187.2 17.36 181.36C23.2 175.6 31.2 172 40 172C48.8 172 56 179.2 56 188H72C80.8 188 88 195.2 88 204V218.08Z" fill="#F0D0B4"/>
<path d="M280 324L248 356L216 324L223.44 294.32C230.8 298 239.12 300 248 300C256.64 300 264.8 298.08 272.08 294.56L279.44 324H280Z" fill="#F0D0B4"/>
<path d="M328.96 244.96C324.64 249.28 318.64 252 312 252H303.44H303.36C303.84 249.36 304 246.72 304 244V204H312C319.36 204 325.92 207.28 330.32 212.48C333.84 216.64 336 222.08 336 228C336 234.64 333.28 240.64 328.96 244.96Z" fill="#F0D0B4"/>
<path d="M192 244C192 246.72 192.16 249.36 192.64 252H192.56H184C177.36 252 171.36 249.28 167.04 244.96C162.72 240.64 160 234.64 160 228C160 221.12 162.88 214.88 167.6 210.48C171.84 206.48 177.6 204 184 204H192.24C192.08 205.28 192 206.48 192 207.76V244Z" fill="#F0D0B4"/>
<path d="M272.08 294.56C264.8 298.08 256.64 300 248 300C239.12 300 230.8 298 223.44 294.32C217.84 291.6 212.8 288 208.4 283.6C200 275.2 194.32 264.32 192.64 252C192.16 249.36 192 246.72 192 244V207.76C192 206.48 192.08 205.28 192.24 204C193.52 193.44 200 184 209.68 179.12L224 172C224 178.64 226.72 184.64 231.04 188.96C235.36 193.28 241.36 196 248 196H280C288.64 196 296.72 194.08 304 190.56V190.64V204V244C304 246.72 303.84 249.36 303.36 252C300.72 270.88 288.64 286.64 272.08 294.56V294.56Z" fill="#F0D0B4"/>
<path d="M439.44 188C439.44 179.2 446.56 172 455.44 172C464.32 172 472.32 175.6 478.08 181.36C483.84 187.2 487.44 195.2 487.44 204V218.08C487.44 229.84 484.64 241.44 479.44 252H415.44C410.16 241.44 407.44 229.84 407.44 218.08V204C407.44 195.2 414.56 188 423.44 188H439.44Z" fill="#F0D0B4"/>
<path d="M455.416 164C445 164 436.2 170.712 432.888 180H423.416C410.184 180 399.416 190.768 399.416 204V218.112C399.416 230.336 402.232 242.536 407.416 253.616V316H285.664L281.304 298.552C295.272 289.992 305.688 276.256 309.896 260H312C329.648 260 344 245.648 344 228C344 221.672 342.096 215.808 338.92 210.84C342.24 197.72 344 184.248 344 170.704V140C344 129.72 339.048 120.664 331.496 114.808L333.464 108.888C337.112 97.9439 345.584 89.6399 356.048 86.0079C351.952 104.84 357.536 124.848 371.632 138.952L374.984 142.304C380.8 148.112 384 155.832 384 164.056C384 175.776 377.488 186.312 367 191.56L356.424 196.848L363.584 211.16L374.16 205.872C390.104 197.904 400 181.88 400 164.056C400 151.56 395.136 139.824 386.304 130.992L382.952 127.64C370.264 114.944 367.128 95.6319 375.152 79.5759L380.944 67.9999H368C345.416 67.9999 325.44 82.3999 318.288 103.832L316.736 108.48C315.184 108.248 313.624 108 312 108H308.744C310.84 102.888 312 97.3919 312 91.8639C312 74.2799 300.936 58.3119 284.464 52.1199L273.696 48.0799C259.896 42.9119 252.192 28.2319 255.768 13.9279L259 0.991943L227.568 8.85594C216.92 11.5119 207.712 18.0079 201.624 27.1359C195.192 36.7759 192.808 48.8239 195.088 60.1919C197.368 71.5999 191.696 83.1999 181.288 88.3999L178.376 89.8559C166.68 76.0639 149.504 67.9999 131.16 67.9999H115.056L120.848 79.5759C128.872 95.6319 125.744 114.944 113.048 127.64L109.696 130.992C100.864 139.824 96 151.56 96 164.056C96 181.88 105.904 197.896 121.84 205.872L132.416 211.16L139.576 196.848L129 191.56C118.512 186.312 112 175.776 112 164.056C112 155.84 115.2 148.112 121.008 142.304L124.36 138.952C138.768 124.544 144.272 103.976 139.672 84.7839C151.696 87.0399 162.416 94.0319 169.344 104.432L173.264 110.304L188.432 102.72C205.28 94.3039 214.464 75.5279 210.768 57.0559C209.32 49.8239 210.84 42.1599 214.936 36.0159C218.808 30.1999 224.672 26.0719 231.448 24.3759L238.912 22.5119C239.512 40.2879 250.68 56.5439 268.072 63.0639L278.84 67.1039C289.104 70.9599 296 80.9119 296 91.8639C296 95.9519 295.032 100.032 293.208 103.696L291.056 108H216.984C181.152 108 152 137.152 152 172.984C152 178.304 152.656 183.608 153.944 188.744L158.864 208.432C154.632 213.864 152 220.6 152 228C152 245.648 166.352 260 184 260H186.104C190.264 276.056 200.472 289.664 214.192 298.24L209.752 316H88V253.608C93.184 242.536 96 230.328 96 218.104V204C96 190.768 85.232 180 72 180H62.528C59.216 170.712 50.416 164 40 164C17.944 164 0 181.944 0 204V218.112C0 230.408 2.76 242.712 8 253.84V356C8 378.056 25.944 396 48 396H160V500H336V396H447.416C469.472 396 487.416 378.056 487.416 356V253.832C492.656 242.704 495.416 230.4 495.416 218.104V204C495.416 181.944 477.472 164 455.416 164ZM286.776 332L281.784 366.936L260.904 354.408L283.312 332H286.776ZM248 478.672L232.608 458.144L246.416 396H249.576L263.384 458.144L248 478.672ZM252.456 380H243.536L236.48 372.24L248 365.328L259.512 372.24L252.456 380ZM312 244V212C320.824 212 328 219.176 328 228C328 236.824 320.824 244 312 244ZM325.232 198.944C321.184 197.096 316.728 196 312 196V195.344C317.792 191.984 322.992 187.744 327.448 182.8C327 188.216 326.272 193.608 325.232 198.944ZM168 228C168 219.176 175.176 212 184 212V244C175.176 244 168 236.824 168 228ZM185.792 196H184C180.04 196 176.288 196.816 172.784 198.136L169.464 184.856C168.496 180.992 168 176.992 168 172.984C168 145.976 189.976 124 216.984 124H312C320.824 124 328 131.176 328 140C328 166.472 306.472 188 280 188H248C239.176 188 232 180.824 232 172C232 163.176 239.176 156 248 156V140C232.136 140 219.032 151.624 216.528 166.792L206.112 172C196.12 177 188.936 185.712 185.792 196ZM200 244V207.776C200 198.624 205.08 190.408 213.264 186.312L218.312 183.784C223.024 195.608 234.528 204 248 204H280C285.536 204 290.872 203.224 296 201.896V244C296 270.472 274.472 292 248 292C221.528 292 200 270.472 200 244ZM248 308C254.424 308 260.624 307.024 266.488 305.256L270.68 322.016L248 344.688L224.856 321.544L228.968 305.104C234.984 306.984 241.376 308 248 308ZM212.688 332L235.096 354.408L214.216 366.936L209.224 332H212.688ZM16 204C16 190.768 26.768 180 40 180C42.232 180 44.248 180.928 45.704 182.416C37.632 186.28 32 194.464 32 204C32 217.232 42.768 228 56 228H64V212H56C51.592 212 48 208.416 48 204C48 199.584 51.592 196 56 196H72C76.408 196 80 199.584 80 204V218.112C80 226.96 78.232 235.816 74.856 244H21.256C17.872 235.808 16 226.976 16 218.112V204ZM158.656 359.56L145.344 368.432L153.056 380H48C34.768 380 24 369.232 24 356V260H72V348H88V332H193.064L201.784 393.064L222.496 380.64L231.288 390.32L215.392 461.864L232 484H176V385.576L158.656 359.56ZM447.416 380H342.944L350.656 368.44L337.344 359.568L320 385.576V484H264L280.608 461.856L264.712 390.312L273.504 380.632L294.216 393.056L302.936 332H407.416V348H423.416V260H471.416V356C471.416 369.232 460.656 380 447.416 380ZM479.416 218.112C479.416 226.976 477.544 235.808 474.16 244H420.56C417.192 235.816 415.416 226.96 415.416 218.112V204C415.416 199.584 419.008 196 423.416 196H439.416C443.824 196 447.416 199.584 447.416 204C447.416 208.416 443.824 212 439.416 212H431.416V228H439.416C452.648 228 463.416 217.232 463.416 204C463.416 194.464 457.784 186.28 449.712 182.416C451.168 180.928 453.184 180 455.416 180C468.648 180 479.416 190.768 479.416 204V218.112Z" fill="black"/>
<path d="M278.312 257.264L279.152 255.576L264.84 248.416L264 250.112C260.952 256.208 254.824 260 248 260C241.176 260 235.048 256.208 232 250.112L231.16 248.424L216.848 255.584L217.688 257.272C223.464 268.824 235.08 276 248 276C260.92 276 272.536 268.824 278.312 257.264Z" fill="black"/>
</svg>
