<svg width="512" height="512" viewBox="0 0 512 512" fill="none" xmlns="http://www.w3.org/2000/svg">
<path d="M50.4939 460.888L1.50078 182.731C1.02771 180.046 0.732811 177.333 0.618021 174.61C-0.110087 143.074 22.5341 115.833 53.6719 110.786L148.215 94.1021L145.655 460.888H50.4939Z" fill="#370B64"/>
<path d="M414.367 448.706C412.727 455.512 407.221 460.707 400.331 461.947L122.086 511.029C104.548 514.09 86.5406 509.451 72.6651 498.297C58.7895 487.142 50.3895 470.553 49.6111 452.767C48.9158 422.616 69.6742 396.196 99.1338 389.738L177.081 411.63H176.993L106.814 424.077C98.9868 425.453 92.1889 430.265 88.2903 437.19C84.3918 444.115 83.8033 452.423 86.6869 459.829C91.68 471.756 104.361 478.539 117.054 476.072L329.71 438.554L414.367 448.706Z" fill="#260646"/>
<path d="M176.993 411.63L106.814 424.077C98.9868 425.453 92.1889 430.265 88.2903 437.19C84.3918 444.115 83.8034 452.424 86.687 459.829C91.68 471.756 104.361 478.539 117.054 476.072L329.71 438.555L176.993 411.63Z" fill="white"/>
<path d="M113.223 292.82L162.278 14.6273C164.034 5.06483 173.145 -1.31364 182.731 0.308942L458.831 48.9931C489.992 54.0439 512.653 81.3021 511.929 112.861C511.809 115.572 511.514 118.273 511.047 120.947L461.992 399.139L113.223 292.82Z" fill="#1BB7A5"/>
<path d="M401.108 92.4602C400.59 92.4599 400.073 92.4156 399.563 92.3278L199.609 57.0704C195.097 55.9575 192.22 51.5366 193.031 46.9602C193.841 42.3838 198.061 39.2197 202.681 39.7242L402.626 74.9374C407.136 75.7274 410.293 79.8336 409.898 84.3946C409.502 88.9557 405.686 92.4576 401.108 92.4602Z" fill="#3F5C6C"/>
<path d="M358.665 129.766C358.147 129.766 357.63 129.719 357.12 129.624L226.719 106.664C222.027 105.712 218.949 101.195 219.78 96.4802C220.611 91.7657 225.048 88.5726 229.782 89.2822L360.192 112.234C364.728 113 367.915 117.122 367.515 121.704C367.116 126.287 363.265 129.795 358.665 129.766Z" fill="#3F5C6C"/>
<path d="M377.095 169.193L194.496 136.937C189.694 136.089 185.114 139.294 184.265 144.097L168.905 231.048C168.057 235.85 171.262 240.431 176.064 241.279L358.663 273.535C363.465 274.384 368.046 271.178 368.894 266.376L384.254 179.425C385.102 174.622 381.897 170.042 377.095 169.193Z" fill="#ECF0F1"/>
<path d="M511.912 112.816C511.807 115.541 511.512 118.255 511.029 120.938L461.948 399.095L393.887 378.35L433.346 154.659L442.704 101.87L452.237 47.8455L458.858 48.993C489.982 54.0649 512.613 81.2902 511.912 112.816Z" fill="#159D8E"/>
<path d="M409.777 327.15L133.65 278.51C132.629 278.335 131.596 278.246 130.56 278.246C121.411 278.269 113.795 285.278 113.014 294.394C112.233 303.51 118.546 311.713 127.559 313.291L405.716 362.284C413.536 363.7 420.313 368.539 424.192 375.476C428.07 382.413 428.643 390.72 425.755 398.124C420.788 410.025 408.126 416.781 395.476 414.279L118.378 365.462C117.357 365.286 116.324 365.198 115.288 365.197C106.122 365.175 98.4629 372.171 97.6579 381.302C96.8529 390.433 103.17 398.661 112.199 400.243L390.444 449.236C407.969 452.308 425.969 447.685 439.844 436.548C453.72 425.41 462.127 408.837 462.919 391.062C463.611 359.49 440.945 332.23 409.777 327.15Z" fill="#117B6F"/>
<path d="M425.754 398.124C420.788 410.025 408.126 416.781 395.476 414.279L118.378 365.462L127.559 313.291L405.716 362.284C413.536 363.7 420.313 368.539 424.192 375.476C428.07 382.413 428.643 390.72 425.754 398.124Z" fill="white"/>
</svg>
