<svg width="512" height="512" viewBox="0 0 512 512" fill="none" xmlns="http://www.w3.org/2000/svg">
<path d="M50.4937 460.888L1.50066 182.731C1.02759 180.046 0.732689 177.333 0.617899 174.61C-0.110209 143.074 22.5339 115.833 53.6717 110.786L148.215 94.1021L145.655 460.888H50.4937Z" fill="#323232"/>
<path d="M414.367 448.706C412.727 455.512 407.221 460.707 400.331 461.947L122.086 511.029C104.548 514.09 86.5407 509.451 72.6652 498.297C58.7896 487.142 50.3896 470.553 49.6112 452.767C48.9159 422.616 69.6743 396.196 99.1339 389.738L177.081 411.63H176.993L106.814 424.077C98.9869 425.453 92.189 430.265 88.2904 437.19C84.3919 444.115 83.8034 452.423 86.687 459.829C91.6801 471.756 104.361 478.539 117.054 476.072L329.71 438.554L414.367 448.706Z" fill="#292929"/>
<path d="M176.993 411.63L106.814 424.077C98.9869 425.453 92.189 430.265 88.2904 437.19C84.3919 444.115 83.8035 452.424 86.6871 459.829C91.6801 471.756 104.361 478.539 117.054 476.072L329.71 438.555L176.993 411.63Z" fill="white"/>
<path d="M458.671 49.9802L458.657 49.978L182.564 1.29492C182.563 1.29472 182.562 1.29453 182.561 1.29434C173.516 -0.234701 164.921 5.78295 163.262 14.8047C163.262 14.8057 163.262 14.8068 163.261 14.8079L114.361 292.122L461.203 397.853L510.062 120.775L458.671 49.9802ZM458.671 49.9802C489.335 54.9505 511.636 81.7717 510.929 112.827M458.671 49.9802L510.929 112.827M510.929 112.827C510.811 115.491 510.521 118.145 510.062 120.773L510.929 112.827Z" fill="#FFDC64" stroke="#292929" stroke-width="2"/>
<path d="M194.016 47.1347L194.016 47.1345C194.732 43.087 198.456 40.2854 202.541 40.7149L402.452 75.9222L402.453 75.9224C406.453 76.6229 409.252 80.264 408.902 84.3083C408.55 88.3526 405.167 91.4576 401.108 91.4602C400.647 91.4599 400.187 91.4205 399.734 91.3424C399.733 91.3424 399.733 91.3423 399.733 91.3423L199.817 56.0916C195.834 55.0919 193.298 51.1818 194.016 47.1347Z" fill="#FFC850" stroke="#292929" stroke-width="2"/>
<path d="M358.671 128.766H358.665C358.207 128.766 357.752 128.725 357.303 128.641L357.293 128.639L226.905 105.681C222.752 104.832 220.029 100.83 220.765 96.6538C221.501 92.4774 225.428 89.6475 229.621 90.2694L360.019 113.219L360.025 113.22C364.047 113.899 366.873 117.554 366.519 121.617L366.519 121.617C366.165 125.681 362.75 128.792 358.671 128.766Z" fill="#FFC850" stroke="#292929" stroke-width="2"/>
<path d="M358.837 272.55L358.837 272.55L176.238 240.294C171.98 239.542 169.138 235.48 169.89 231.222L185.25 144.271C185.25 144.271 185.25 144.271 185.25 144.271C186.003 140.012 190.064 137.17 194.322 137.922C194.322 137.922 194.322 137.922 194.322 137.922L376.921 170.178C381.179 170.931 384.021 174.992 383.269 179.251L367.909 266.202C367.157 270.46 363.095 273.303 358.837 272.55Z" fill="#ECF0F1" stroke="#323232" stroke-width="2"/>
<path d="M510.045 120.761L510.044 120.764L461.159 397.809L395.026 377.652L434.331 154.834L434.331 154.833L443.689 102.045L443.689 102.044L453.049 49.001L458.687 49.9783L458.697 49.9799C489.326 54.9712 511.598 81.7618 510.912 112.786C510.809 115.461 510.519 118.126 510.045 120.761Z" fill="#FFC850" stroke="#292929" stroke-width="2"/>
<path d="M409.604 328.135L409.616 328.137C440.288 333.136 462.595 359.96 461.92 391.028C461.138 408.512 452.867 424.813 439.218 435.768C425.567 446.725 407.858 451.273 390.617 448.251L112.372 399.258L112.372 399.258C103.854 397.766 97.8947 390.004 98.6541 381.39C99.4135 372.776 106.639 366.176 115.286 366.197H115.287C116.267 366.198 117.243 366.281 118.207 366.447C118.207 366.447 118.208 366.447 118.208 366.448L395.282 415.26C395.285 415.261 395.289 415.261 395.292 415.262C408.405 417.851 421.529 410.846 426.678 398.509L426.682 398.498L426.687 398.487C429.683 390.805 429.089 382.186 425.065 374.988L424.192 375.476L425.065 374.988C421.04 367.79 414.008 362.769 405.894 361.3L405.889 361.299L127.732 312.306L127.731 312.306C119.229 310.817 113.274 303.079 114.01 294.479C114.747 285.88 121.931 279.268 130.561 279.246C131.539 279.246 132.514 279.33 133.479 279.495C133.48 279.495 133.48 279.496 133.481 279.496L409.604 328.135Z" fill="#FFC850" stroke="#292929" stroke-width="2"/>
<path d="M425.754 398.124C420.788 410.025 408.126 416.781 395.476 414.279L118.378 365.462L127.559 313.291L405.716 362.284C413.536 363.7 420.313 368.539 424.192 375.476C428.07 382.413 428.643 390.72 425.754 398.124Z" fill="white"/>
</svg>
