<svg width="24" height="24" viewBox="0 0 24 24" fill="none" xmlns="http://www.w3.org/2000/svg">
<g clip-path="url(#clip0)">
<path d="M22.0957 3.45972C22.9532 3.45972 23.6483 4.15504 23.6483 5.01273V20.55C23.6483 21.4077 22.9532 22.1031 22.0957 22.1031H1.9042C1.04672 22.1031 0.351562 21.4077 0.351562 20.55V5.01273C0.351562 4.15504 1.04672 3.45972 1.9042 3.45972H22.0957Z" fill="#1BB7A5"/>
<path d="M20.1477 5.0127C20.3305 5.0127 20.4887 5.14032 20.5267 5.31914C20.6572 5.93204 21.1694 6.45065 21.7903 6.58208C21.9688 6.61987 22.0957 6.77853 22.0957 6.96101V18.6016C22.0957 18.7841 21.9688 18.9428 21.7903 18.9806C21.1694 19.112 20.6572 19.6306 20.5267 20.2435C20.4886 20.4224 20.3305 20.55 20.1477 20.55H3.85215C3.66934 20.55 3.51118 20.4223 3.47312 20.2435C3.34262 19.6306 2.83047 19.112 2.20952 18.9806C2.03106 18.9428 1.90417 18.7841 1.90417 18.6016V6.96101C1.90417 6.77853 2.03106 6.61987 2.20952 6.58208C2.83047 6.45065 3.34258 5.93204 3.47312 5.31914C3.51123 5.14027 3.66934 5.0127 3.85215 5.0127H20.1477Z" fill="#EBF5FC"/>
<path d="M22.0957 3.45972H21.0176C21.8751 3.45972 22.5702 4.15504 22.5702 5.01273V20.55C22.5702 21.4077 21.8751 22.1031 21.0176 22.1031H22.0957C22.9532 22.1031 23.6483 21.4077 23.6483 20.55V5.01273C23.6483 4.15499 22.9532 3.45972 22.0957 3.45972V3.45972Z" fill="#1BB7A5"/>
<path d="M21.7903 6.58208C21.1694 6.45065 20.6572 5.93204 20.5267 5.31914C20.4886 5.14027 20.3305 5.0127 20.1477 5.0127H19.0696C19.2524 5.0127 19.4105 5.14032 19.4487 5.31914C19.5792 5.93204 20.0913 6.45065 20.7123 6.58208C20.8907 6.61987 21.0176 6.77853 21.0176 6.96101V18.6016C21.0176 18.7841 20.8907 18.9428 20.7123 18.9806C20.0913 19.112 19.5792 19.6306 19.4487 20.2435C19.4105 20.4224 19.2524 20.55 19.0696 20.55H20.1477C20.3305 20.55 20.4887 20.4223 20.5267 20.2435C20.6572 19.6306 21.1694 19.112 21.7903 18.9806C21.9688 18.9428 22.0957 18.7841 22.0957 18.6016V6.96101C22.0957 6.77858 21.9688 6.61987 21.7903 6.58208Z" fill="#D3DCFB"/>
<path d="M14.7267 10.4556H9.26611C9.05902 10.4556 8.89111 10.2877 8.89111 10.0805V9.27768C8.89111 9.07053 9.05902 8.90259 9.26611 8.90259H14.7267C14.9338 8.90259 15.1017 9.07053 15.1017 9.27768V10.0805C15.1017 10.2877 14.9338 10.4556 14.7267 10.4556Z" fill="#1BB7A5"/>
<path d="M14.7267 8.90259H13.6486C13.8557 8.90259 14.0236 9.07053 14.0236 9.27768V10.0805C14.0236 10.2877 13.8557 10.4556 13.6486 10.4556H14.7267C14.9338 10.4556 15.1017 10.2877 15.1017 10.0805V9.27768C15.1017 9.07053 14.9338 8.90259 14.7267 8.90259Z" fill="#1BB7A5"/>
<path d="M18.6289 19.0613L18.9013 19.6063C18.9552 19.7141 18.9833 19.833 18.9833 19.9535V23.2642C18.9833 23.5292 18.7238 23.7163 18.4724 23.6326L17.4307 23.2852L16.7771 22.6885C16.6974 22.6619 16.6113 22.6619 16.5316 22.6885L15.878 23.2852L14.8363 23.6326C14.585 23.7163 14.3254 23.5292 14.3254 23.2642V19.9535C14.3254 19.833 14.3535 19.7141 14.4074 19.6063L14.6798 19.0614L18.6289 19.0613Z" fill="#FF4155"/>
<path d="M18.9013 19.6063L18.6289 19.0613L17.5508 19.0613L17.8232 19.6063C17.8771 19.7141 17.9052 19.833 17.9052 19.9536V23.2643C17.9052 23.3247 17.8911 23.3808 17.8673 23.4309L18.4724 23.6326C18.7237 23.7164 18.9833 23.5293 18.9833 23.2643V19.9536C18.9833 19.833 18.9552 19.7141 18.9013 19.6063V19.6063Z" fill="#E80054"/>
<path d="M17.4307 19.0613L15.8781 19.0613V23.2852L16.5316 23.0673C16.6113 23.0407 16.6975 23.0407 16.7771 23.0673L17.4307 23.2852V19.0613Z" fill="#EBF5FC"/>
<path d="M18.8462 18.86C20.0587 17.6472 20.0587 15.6809 18.8462 14.4681C17.6337 13.2553 15.6678 13.2553 14.4553 14.4681C13.2428 15.6809 13.2428 17.6472 14.4553 18.86C15.6678 20.0728 17.6337 20.0728 18.8462 18.86Z" fill="#FFDD40"/>
<path d="M16.6543 18.2171C17.5118 18.2171 18.207 17.5218 18.207 16.6641C18.207 15.8064 17.5118 15.1111 16.6543 15.1111C15.7968 15.1111 15.1017 15.8064 15.1017 16.6641C15.1017 17.5218 15.7968 18.2171 16.6543 18.2171Z" fill="#FFB332"/>
<path d="M16.6543 13.5581C16.4703 13.5581 16.2904 13.575 16.1152 13.6057C17.5731 13.8611 18.6814 15.1327 18.6814 16.6641C18.6814 18.1955 17.5731 19.4672 16.1152 19.7226C16.2904 19.7533 16.4703 19.7702 16.6543 19.7702C18.3693 19.7702 19.7596 18.3796 19.7596 16.6641C19.7596 14.9487 18.3693 13.5581 16.6543 13.5581Z" fill="#FFB332"/>
<path d="M15.5076 7.34356H8.49206C8.28497 7.34356 8.11707 7.17562 8.11707 6.96847V1.55469H15.8827V6.96847C15.8826 7.17562 15.7148 7.34356 15.5076 7.34356V7.34356Z" fill="#51006F"/>
<path d="M14.8046 1.55469V6.96847C14.8046 7.17562 14.6367 7.34356 14.4296 7.34356H15.5077C15.7148 7.34356 15.8827 7.17562 15.8827 6.96847V1.55469H14.8046Z" fill="#51006F"/>
<path d="M19.3905 1.90627H4.60925C4.40216 1.90627 4.23425 1.73832 4.23425 1.53118V0.727874C4.23425 0.52073 4.40216 0.352783 4.60925 0.352783H19.3904C19.5975 0.352783 19.7654 0.52073 19.7654 0.727874V1.53118C19.7655 1.73837 19.5976 1.90627 19.3905 1.90627Z" fill="#51006F"/>
<path d="M19.3905 0.352783H18.3124C18.5195 0.352783 18.6874 0.52073 18.6874 0.727874V1.53118C18.6874 1.73832 18.5195 1.90627 18.3124 1.90627H19.3905C19.5976 1.90627 19.7655 1.73832 19.7655 1.53118V0.727874C19.7655 0.52073 19.5976 0.352783 19.3905 0.352783Z" fill="#51006F"/>
<path d="M18.989 5.78994C18.989 5.34851 18.6209 4.99306 18.1749 5.01407C17.7572 5.03371 17.4359 5.39361 17.4359 5.81189V6.95507C17.4359 7.16958 17.6097 7.34343 17.8242 7.34343H18.6008C18.8152 7.34343 18.989 7.16953 18.989 6.95507V5.78994Z" fill="#1BB7A5"/>
<path d="M18.1749 5.01407C17.9803 5.02321 17.8072 5.10681 17.6772 5.23514C17.8212 5.37613 17.9109 5.57249 17.9109 5.78994V6.95507C17.9109 7.11608 17.8129 7.25416 17.6733 7.31305C17.7197 7.3326 17.7707 7.34343 17.8241 7.34343H18.6007C18.8152 7.34343 18.989 7.16953 18.989 6.95507V5.78994C18.989 5.34851 18.6208 4.99306 18.1749 5.01407Z" fill="#1BB7A5"/>
<path d="M22.0957 3.10845H18.5585V2.26046H19.3846C19.7852 2.26046 20.1111 1.93446 20.1111 1.53373V0.73089C20.1111 0.330152 19.7852 0.00415039 19.3846 0.00415039H16.5922C16.398 0.00415039 16.2406 0.161595 16.2406 0.355798C16.2406 0.550002 16.398 0.707446 16.5922 0.707446H17.8554V1.55722H4.60817C4.59523 1.55722 4.58473 1.54671 4.58473 1.53377V0.73089C4.58473 0.717949 4.59523 0.707446 4.60817 0.707446H15.1562C15.3504 0.707446 15.5077 0.550002 15.5077 0.355798C15.5077 0.161595 15.3504 0.00415039 15.1562 0.00415039H4.60817C4.20753 0.00415039 3.88161 0.330152 3.88161 0.73089V1.53377C3.88161 1.93451 4.20753 2.26051 4.60817 2.26051H7.76322V3.10845H1.9042C0.854247 3.10845 0 3.96286 0 5.01312V20.5504C0 21.6006 0.854247 22.4551 1.9042 22.4551H4.30634C4.5005 22.4551 4.6579 22.2976 4.6579 22.1034C4.6579 21.9092 4.5005 21.7518 4.30634 21.7518H1.9042C1.24195 21.7518 0.703122 21.2128 0.703122 20.5504V5.01312C0.703122 4.35071 1.24195 3.81175 1.9042 3.81175H7.76322V4.66147H3.85217C3.50549 4.66147 3.20146 4.90744 3.12927 5.24633C3.02661 5.72856 2.61847 6.13656 2.13679 6.23849C1.79831 6.31009 1.55263 6.61415 1.55263 6.96148V18.6021C1.55263 18.9494 1.79831 19.2534 2.13679 19.325C2.61847 19.4269 3.02661 19.8349 3.12927 20.3172C3.20146 20.6561 3.50544 20.902 3.85217 20.902H13.9737V21.7518H5.71259C5.51843 21.7518 5.36103 21.9092 5.36103 22.1034C5.36103 22.2976 5.51843 22.4551 5.71259 22.4551H13.9738V23.2644C13.9738 23.5016 14.0886 23.726 14.281 23.8646C14.4083 23.9564 14.5605 24.0041 14.7141 24.0041C14.7926 24.0041 14.8714 23.9917 14.9474 23.9663L16.6427 23.4011C16.6503 23.3986 16.6583 23.3985 16.6659 23.4011L18.3612 23.9663C18.5861 24.0414 18.8352 24.0034 19.0276 23.8647C19.22 23.726 19.3349 23.5016 19.3349 23.2644V22.4551H22.0958C23.1458 22.4551 24 21.6006 24 20.5504V5.01312C23.9999 3.96286 23.1457 3.10845 22.0957 3.10845ZM18.5585 0.707446H19.3846C19.3975 0.707446 19.408 0.717949 19.408 0.73089V1.53377C19.408 1.54671 19.3975 1.55722 19.3846 1.55722H18.5585V0.707446ZM17.8554 3.10845H16.2295V2.26046H17.8554V3.10845ZM17.7822 5.81333C17.7822 5.57772 17.9633 5.37752 18.1859 5.36702C18.1929 5.36669 18.1998 5.36655 18.2067 5.36655C18.3168 5.36655 18.4202 5.40776 18.5 5.48395C18.5849 5.56497 18.6317 5.67417 18.6317 5.79143V6.95618C18.6317 6.97639 18.6153 6.9928 18.5951 6.9928H17.8188C17.7986 6.9928 17.7822 6.97639 17.7822 6.95618L17.7822 5.81333ZM16.2295 4.66147V3.81175H17.8554V4.66147H16.2295ZM8.46634 6.14303H15.5264V6.96931C15.5264 6.98225 15.5159 6.99276 15.503 6.99276H8.48978C8.47684 6.99276 8.46634 6.98225 8.46634 6.96931V6.14303ZM15.5264 2.26046V5.43974H8.46634V2.26046H15.5264ZM3.85217 20.1988C3.83525 20.1988 3.82044 20.187 3.81697 20.1707C3.65572 19.4135 3.03899 18.7971 2.28233 18.637C2.26691 18.6337 2.25576 18.619 2.25576 18.6021V6.96144C2.25576 6.94446 2.26691 6.92979 2.28233 6.9265C3.03903 6.76634 3.65572 6.15002 3.81697 5.3928C3.82044 5.37653 3.83525 5.36472 3.85217 5.36472H7.76317V6.96927C7.76317 7.37 8.08909 7.696 8.48973 7.696H15.503C15.9036 7.696 16.2295 7.37 16.2295 6.96927V5.36472H17.1678C17.1108 5.50266 17.0791 5.6542 17.0791 5.81328V6.95614C17.0791 7.36414 17.4109 7.69605 17.8188 7.69605H18.5951C19.003 7.69605 19.3348 7.36414 19.3348 6.95614V5.79139C19.3348 5.64416 19.3052 5.49924 19.2502 5.36477H20.1477C20.1646 5.36477 20.1795 5.37658 20.1829 5.39285C20.3441 6.15007 20.9609 6.76639 21.7176 6.9266C21.7329 6.92983 21.7441 6.94451 21.7441 6.96148V18.6021C21.7441 18.619 21.733 18.6337 21.7176 18.637C20.9609 18.7971 20.3441 19.4135 20.1829 20.1707C20.1795 20.187 20.1646 20.1988 20.1477 20.1988H19.3348V19.9537C19.3348 19.7794 19.2936 19.6049 19.2157 19.4492L19.0621 19.1419C19.7084 18.5132 20.1111 17.6351 20.1111 16.6643C20.1111 15.5433 19.5746 14.5456 18.7454 13.9134H18.9832C19.1774 13.9134 19.3347 13.756 19.3347 13.5618C19.3347 13.3676 19.1774 13.2101 18.9832 13.2101H5.00946C4.81531 13.2101 4.6579 13.3676 4.6579 13.5618C4.6579 13.756 4.81531 13.9134 5.00946 13.9134H14.5631C14.2531 14.1498 13.9843 14.4372 13.7689 14.7631H7.33844C7.14428 14.7631 6.98688 14.9206 6.98688 15.1148C6.98688 15.309 7.14428 15.4664 7.33844 15.4664H13.4115C13.2732 15.8398 13.1974 16.2433 13.1974 16.6643C13.1974 17.6351 13.6001 18.5132 14.2464 19.1419L14.0929 19.4491C14.0149 19.6049 13.9737 19.7794 13.9737 19.9537V20.1988H3.85217ZM16.6543 19.4187C15.1358 19.4187 13.9005 18.183 13.9005 16.6643C13.9005 15.1921 15.0613 13.986 16.5154 13.9134H16.7932C18.2473 13.986 19.408 15.1921 19.408 16.6643C19.408 18.1831 18.1727 19.4187 16.6543 19.4187ZM14.725 23.2991C14.7206 23.3005 14.7073 23.305 14.6921 23.2941C14.6769 23.2831 14.6769 23.269 14.6769 23.2644V19.9537C14.6769 19.8881 14.6924 19.8224 14.7217 19.7637L14.8102 19.5867C15.0331 19.7279 15.2731 19.8443 15.5264 19.932V23.0319L14.725 23.2991ZM16.4203 22.7338L16.2296 22.7975V20.095C16.3689 20.1121 16.5104 20.122 16.6543 20.122C16.7982 20.122 16.9398 20.1121 17.0791 20.095V22.7975L16.8882 22.7338C16.7374 22.6836 16.5712 22.6836 16.4203 22.7338ZM18.6165 23.2941C18.6013 23.3049 18.588 23.3006 18.5835 23.2991L17.7822 23.0319V19.932C18.0355 19.8443 18.2755 19.7279 18.4983 19.5867L18.5868 19.7637C18.6161 19.8223 18.6317 19.888 18.6317 19.9536V23.2643C18.6317 23.269 18.6317 23.2831 18.6165 23.2941ZM23.2968 20.5504C23.2968 21.2128 22.758 21.7518 22.0957 21.7518H19.3348V20.9021H20.1477C20.4944 20.9021 20.7985 20.6561 20.8706 20.3172C20.9733 19.835 21.3814 19.427 21.8632 19.3251C22.2016 19.2534 22.4473 18.9494 22.4473 18.6021V6.96144C22.4473 6.61415 22.2016 6.31004 21.8632 6.23849C21.3815 6.13652 20.9733 5.72851 20.8706 5.24628C20.7985 4.90739 20.4944 4.66142 20.1477 4.66142H18.5585V3.81175H22.0957C22.758 3.81175 23.2968 4.35071 23.2968 5.01312V20.5504Z" fill="black"/>
<path d="M22.1928 4.66479H21.9987C21.8045 4.66479 21.6471 4.82224 21.6471 5.01644C21.6471 5.21065 21.8045 5.36809 21.9987 5.36809H22.1928C22.387 5.36809 22.5443 5.21065 22.5443 5.01644C22.5443 4.82224 22.387 4.66479 22.1928 4.66479Z" fill="black"/>
<path d="M1.80713 5.36809H2.00124C2.19539 5.36809 2.3528 5.21065 2.3528 5.01644C2.3528 4.82224 2.19539 4.66479 2.00124 4.66479H1.80713C1.61297 4.66479 1.45557 4.82224 1.45557 5.01644C1.45557 5.21065 1.61297 5.36809 1.80713 5.36809Z" fill="black"/>
<path d="M1.80713 20.1987C1.61297 20.1987 1.45557 20.3562 1.45557 20.5504C1.45557 20.7446 1.61297 20.902 1.80713 20.902H2.00124C2.19539 20.902 2.3528 20.7446 2.3528 20.5504C2.3528 20.3562 2.19539 20.1987 2.00124 20.1987H1.80713Z" fill="black"/>
<path d="M22.1928 20.1987H21.9987C21.8045 20.1987 21.6471 20.3562 21.6471 20.5504C21.6471 20.7446 21.8045 20.902 21.9987 20.902H22.1928C22.387 20.902 22.5443 20.7446 22.5443 20.5504C22.5443 20.3562 22.387 20.1987 22.1928 20.1987Z" fill="black"/>
<path d="M16.6544 14.7595C15.6044 14.7595 14.7501 15.614 14.7501 16.6642C14.7501 17.7144 15.6044 18.5689 16.6544 18.5689C17.7043 18.5689 18.5586 17.7144 18.5586 16.6642C18.5586 15.614 17.7043 14.7595 16.6544 14.7595ZM16.6544 17.8656C15.9921 17.8656 15.4532 17.3266 15.4532 16.6642C15.4532 16.0018 15.9921 15.4628 16.6544 15.4628C17.3167 15.4628 17.8554 16.0018 17.8554 16.6642C17.8554 17.3266 17.3167 17.8656 16.6544 17.8656Z" fill="black"/>
<path d="M16.7513 16.3123H16.5573C16.363 16.3123 16.2057 16.4697 16.2057 16.6639C16.2057 16.8581 16.363 17.0156 16.5573 17.0156H16.7513C16.9455 17.0156 17.1029 16.8581 17.1029 16.6639C17.1029 16.4697 16.9455 16.3123 16.7513 16.3123Z" fill="black"/>
<path d="M9.26611 10.8071H14.7267C15.1273 10.8071 15.4533 10.4811 15.4533 10.0804V9.27752C15.4533 8.87678 15.1273 8.55078 14.7267 8.55078H9.26611C8.86547 8.55078 8.53955 8.87678 8.53955 9.27752V10.0804C8.53955 10.4811 8.86547 10.8071 9.26611 10.8071V10.8071ZM9.24267 9.27752C9.24267 9.26458 9.25317 9.25408 9.26611 9.25408H14.7267C14.7396 9.25408 14.7501 9.26458 14.7501 9.27752V10.0804C14.7501 10.0933 14.7396 10.1038 14.7267 10.1038H9.26611C9.25317 10.1038 9.24267 10.0933 9.24267 10.0804V9.27752Z" fill="black"/>
<path d="M5.00952 12.3603H18.9833C19.1775 12.3603 19.3348 12.2028 19.3348 12.0086C19.3348 11.8144 19.1775 11.657 18.9833 11.657H5.00952C4.81536 11.657 4.65796 11.8144 4.65796 12.0086C4.65796 12.2028 4.81536 12.3603 5.00952 12.3603V12.3603Z" fill="black"/>
<path d="M7.33849 17.8655H5.00952C4.81536 17.8655 4.65796 18.0229 4.65796 18.2171C4.65796 18.4113 4.81536 18.5688 5.00952 18.5688H7.33849C7.53265 18.5688 7.69006 18.4113 7.69006 18.2171C7.69006 18.0229 7.53265 17.8655 7.33849 17.8655Z" fill="black"/>
</g>
<defs>
<clipPath id="clip0">
<rect width="24" height="24" fill="white"/>
</clipPath>
</defs>
</svg>
