<svg width="59" height="71" viewBox="0 0 59 71" fill="none" xmlns="http://www.w3.org/2000/svg">
<path d="M50.0434 56.5158H9.03604C6.26102 56.5158 4.04145 54.2022 4.14646 51.4187L5.41155 17.9126H53.6679L54.933 51.4187C55.038 54.2022 52.8184 56.5158 50.0434 56.5158Z" fill="#202224"/>
<path d="M50.873 70.7379H10.2381V49.7844C10.2381 47.8915 11.7488 46.3569 13.6115 46.3569H47.4996C49.3624 46.3569 50.873 47.8915 50.873 49.7844V70.7379Z" fill="#1BB7A5"/>
<path d="M59 29.0872C59 31.8923 56.7258 34.1665 53.9206 34.1665C51.1155 34.1665 48.8413 31.8923 48.8413 29.0872C48.8413 26.282 51.1155 24.0078 53.9206 24.0078C56.7258 24.0078 59 26.282 59 29.0872Z" fill="#EAAC9D"/>
<path d="M10.2381 29.0872C10.2381 31.8923 7.96393 34.1665 5.15877 34.1665C2.35362 34.1665 0.0794067 31.8923 0.0794067 29.0872C0.0794067 26.282 2.35362 24.0078 5.15877 24.0078C7.96393 24.0078 10.2381 26.282 10.2381 29.0872Z" fill="#EAAC9D"/>
<path d="M4.14288 70.7379C4.14288 57.273 15.0585 46.3569 28.5241 46.3569C41.9892 46.3569 52.9048 57.273 52.9048 70.7379H4.14288Z" fill="#E7E7E7"/>
<path d="M34.619 70.7378L31.0517 58.5474H28.0283L24.4603 70.7378H34.619Z" fill="#51006F"/>
<path d="M28.5241 50.4204H20.3969V53.343C20.3969 53.343 23.4967 54.4839 28.5241 54.4839C33.5509 54.4839 36.6508 53.343 36.6508 53.343V50.4204H28.5241Z" fill="#E7E7E7"/>
<path d="M32.5873 46.4668C31.7758 46.3955 30.9543 46.3569 30.1235 46.3569C15.7745 46.3569 4.14288 57.273 4.14288 70.7379H9.07057C9.07057 58.0527 19.3943 47.6317 32.5873 46.4668Z" fill="#E7E7E7"/>
<path d="M36.6508 50.4204V70.7379H44.7777V53.9123C42.3608 52.4434 39.621 51.2572 36.6508 50.4204Z" fill="#1BB7A5"/>
<path d="M14.3016 53.9123V70.7379H20.3968V50.4204C18.1686 51.2572 16.1143 52.4434 14.3016 53.9123Z" fill="#1BB7A5"/>
<path d="M54.9365 27.0553C54.9365 39.9595 43.5658 50.4206 29.54 50.4206C15.5136 50.4206 4.14288 39.9595 4.14288 27.0553C4.14288 14.1515 15.5136 3.69043 29.54 3.69043C43.5658 3.69043 54.9365 14.1515 54.9365 27.0553Z" fill="#FFCBBE"/>
<path d="M29.5439 3.69043C15.5154 3.69043 4.14288 14.1515 4.14288 27.0553C4.14288 39.9595 15.5154 50.4206 29.5439 50.4206C30.2855 50.4206 31.0193 50.3894 31.7448 50.3321C18.7472 49.3054 8.54477 39.2773 8.54477 27.0553C8.54477 26.3306 8.58205 25.6131 8.65215 24.9053C10.1009 24.2303 11.6426 23.3362 13.098 22.154L14.0538 23.8772C15.0842 25.7339 17.1327 26.8874 19.3987 26.8874H39.6885C41.9551 26.8874 44.003 25.7339 45.0334 23.8767L45.9898 22.154C49.1949 24.7579 52.8213 25.9703 54.9365 26.4964C54.6138 13.8506 43.3688 3.69043 29.5439 3.69043Z" fill="#EAAC9D"/>
<path d="M27.6253 58.0714L25.253 56.648C24.1961 56.0138 24.1961 54.9853 25.253 54.3511L27.6253 52.9278C28.6823 52.2936 30.3965 52.2936 31.4542 52.9278L33.8257 54.3511C34.8835 54.9853 34.8835 56.0138 33.8257 56.648L31.4542 58.0714C30.3965 58.7061 28.6823 58.7061 27.6253 58.0714Z" fill="#51006F"/>
<path d="M31.4444 0.585553C30.7486 0.530132 30.0457 0.5 29.3365 0.5C15.5318 0.5 4.16478 11.2404 3 24.881C3 24.881 4.92141 24.6012 7.36873 23.5153C9.0541 11.2215 19.0613 1.57667 31.4444 0.585553Z" fill="#202224"/>
<path d="M29.3739 34.624C27.969 34.624 26.6617 33.8929 25.961 32.7161C25.6666 32.2213 25.8428 31.5893 26.3557 31.3045C26.868 31.0202 27.5219 31.1909 27.8168 31.6856C28.1368 32.2229 28.7333 32.5567 29.3739 32.5567C30.0144 32.5567 30.6109 32.2229 30.9304 31.6856C31.2253 31.1909 31.8798 31.0202 32.3921 31.305C32.9044 31.5893 33.0812 32.2213 32.7862 32.7161C32.0855 33.8929 30.7782 34.624 29.3739 34.624Z" fill="#5D5D5D"/>
<path d="M38.8177 30.4314C38.2262 30.4314 37.7473 29.969 37.7473 29.3978V27.7719C37.7473 27.2007 38.2262 26.7383 38.8177 26.7383C39.4091 26.7383 39.888 27.2007 39.888 27.7719V29.3978C39.888 29.969 39.4091 30.4314 38.8177 30.4314Z" fill="#5D5D5D"/>
<path d="M19.9315 30.4314C19.3406 30.4314 18.8611 29.969 18.8611 29.3978V27.7719C18.8611 27.2007 19.3406 26.7383 19.9315 26.7383C20.523 26.7383 21.0019 27.2007 21.0019 27.7719V29.3978C21.0019 29.969 20.523 30.4314 19.9315 30.4314Z" fill="#5D5D5D"/>
<path d="M39.5769 34.1665H37.7881C37.1596 34.1665 36.6508 33.712 36.6508 33.1506C36.6508 32.5898 37.1596 32.1348 37.7881 32.1348H39.5769C40.2054 32.1348 40.7142 32.5898 40.7142 33.1506C40.7142 33.712 40.2048 34.1665 39.5769 34.1665Z" fill="#FD6F71"/>
<path d="M21.2915 34.1665H19.5023C18.8745 34.1665 18.3651 33.712 18.3651 33.1506C18.3651 32.5898 18.8745 32.1348 19.5023 32.1348H21.2915C21.9193 32.1348 22.4286 32.5898 22.4286 33.1506C22.4286 33.712 21.9193 34.1665 21.2915 34.1665Z" fill="#FD6F71"/>
<path d="M30.3971 1.5C17.0848 1.5 6.12323 12.2368 5 25.8729C5 25.8729 11.5611 24.8821 15.7164 19.3972L17.9012 23.8773C18.5009 25.1069 19.7084 25.881 21.0274 25.881H39.7663C41.0853 25.881 42.2928 25.1069 42.8924 23.8773L45.0772 19.3972C49.2331 24.8821 55.7936 25.8729 55.7936 25.8729C54.6704 12.2368 43.7089 1.5 30.3971 1.5Z" fill="#202224" fill-opacity="0.99"/>
</svg>
