<svg width="24" height="24" viewBox="0 0 24 24" fill="none" xmlns="http://www.w3.org/2000/svg">
<g clip-path="url(#clip0)">
<path d="M15.2953 4.9945H12.7751C12.5229 4.9945 12.3185 4.80707 12.3185 4.5759V2.26577C12.3185 2.03455 12.5229 1.84717 12.7751 1.84717H15.2953C15.5475 1.84717 15.7519 2.0346 15.7519 2.26577V4.5759C15.7519 4.80711 15.5475 4.9945 15.2953 4.9945Z" fill="#1BB7A5"/>
<path d="M15.2953 10.0865H12.7751C12.5229 10.0865 12.3185 9.89911 12.3185 9.66794V7.35781C12.3185 7.1266 12.5229 6.93921 12.7751 6.93921H15.2953C15.5475 6.93921 15.7519 7.12664 15.7519 7.35781V9.66794C15.7519 9.89911 15.5475 10.0865 15.2953 10.0865Z" fill="#1BB7A5"/>
<path d="M15.2953 15.1786H12.7751C12.5229 15.1786 12.3185 14.9912 12.3185 14.76V12.4499C12.3185 12.2186 12.5229 12.0312 12.7751 12.0312H15.2953C15.5475 12.0312 15.7519 12.2187 15.7519 12.4499V14.76C15.7519 14.9912 15.5475 15.1786 15.2953 15.1786Z" fill="#1BB7A5"/>
<path d="M15.2953 20.2704H12.7751C12.5229 20.2704 12.3185 20.0829 12.3185 19.8518V17.5416C12.3185 17.3104 12.5229 17.123 12.7751 17.123H15.2953C15.5475 17.123 15.7519 17.3105 15.7519 17.5416V19.8518C15.7519 20.0829 15.5475 20.2704 15.2953 20.2704Z" fill="#1BB7A5"/>
<path d="M15.7519 2.26563V4.57567C15.7519 4.80684 15.5475 4.99418 15.2953 4.99418H14.2966C14.5488 4.99418 14.7537 4.80684 14.7537 4.57567V2.26563C14.7537 2.03445 14.5488 1.84668 14.2966 1.84668H15.2953C15.5475 1.84668 15.7519 2.03445 15.7519 2.26563Z" fill="#1BB7A5"/>
<path d="M15.7519 7.35724V9.66728C15.7519 9.89893 15.5475 10.0862 15.2953 10.0862H14.2966C14.5488 10.0862 14.7537 9.89888 14.7537 9.66728V7.35724C14.7537 7.12606 14.5488 6.93872 14.2966 6.93872H15.2953C15.5475 6.93868 15.7519 7.12602 15.7519 7.35724Z" fill="#1BB7A5"/>
<path d="M15.7519 12.4498V14.7598C15.7519 14.991 15.5475 15.1783 15.2953 15.1783H14.2966C14.5488 15.1783 14.7537 14.991 14.7537 14.7598V12.4498C14.7537 12.2186 14.5488 12.0312 14.2966 12.0312H15.2953C15.5475 12.0312 15.7519 12.2186 15.7519 12.4498Z" fill="#1BB7A5"/>
<path d="M15.7519 17.5416V19.8521C15.7519 20.0832 15.5475 20.2706 15.2953 20.2706H14.2966C14.5488 20.2706 14.7537 20.0832 14.7537 19.8521V17.5416C14.7537 17.3104 14.5488 17.123 14.2966 17.123H15.2953C15.5475 17.123 15.7519 17.3104 15.7519 17.5416Z" fill="#1BB7A5"/>
<path d="M14.5184 4.13551C14.3478 4.13551 14.1879 4.07441 14.0678 3.96329L13.3848 3.33182C13.2479 3.20519 13.2488 3.00079 13.3869 2.87524C13.525 2.74973 13.748 2.75054 13.885 2.87721L14.5179 3.46236L16.5849 1.50436C16.7201 1.37623 16.9432 1.37284 17.0829 1.49684C17.2227 1.62085 17.2264 1.82525 17.0911 1.95339L14.9747 3.95822C14.8551 4.07157 14.6945 4.13452 14.5224 4.13547C14.5211 4.13551 14.5197 4.13551 14.5184 4.13551Z" fill="#9C9C9C"/>
<path d="M22.2495 3.06639H18.1911C17.9966 3.06639 17.8389 2.92184 17.8389 2.74352C17.8389 2.5652 17.9966 2.42065 18.1911 2.42065H22.2495C22.444 2.42065 22.6017 2.5652 22.6017 2.74352C22.6017 2.92184 22.444 3.06639 22.2495 3.06639Z" fill="#9C9C9C"/>
<path d="M22.2495 4.42088H18.1911C17.9966 4.42088 17.8389 4.27633 17.8389 4.09801C17.8389 3.91969 17.9966 3.77515 18.1911 3.77515H22.2495C22.444 3.77515 22.6017 3.91969 22.6017 4.09801C22.6017 4.27633 22.444 4.42088 22.2495 4.42088Z" fill="#9C9C9C"/>
<path d="M14.5184 9.22781C14.3478 9.22781 14.1879 9.16671 14.0678 9.05559L13.3848 8.42412C13.2479 8.29749 13.2488 8.09309 13.3869 7.96754C13.525 7.84203 13.748 7.84284 13.885 7.96951L14.5179 8.55466L16.5849 6.59666C16.7201 6.46849 16.9432 6.46514 17.0829 6.58914C17.2227 6.71315 17.2264 6.91755 17.0911 7.04569L14.9747 9.05052C14.8551 9.16387 14.6945 9.22682 14.5224 9.22777C14.5211 9.22781 14.5197 9.22781 14.5184 9.22781Z" fill="#9C9C9C"/>
<path d="M22.2495 8.15819H18.1911C17.9966 8.15819 17.8389 8.01364 17.8389 7.83532C17.8389 7.657 17.9966 7.51245 18.1911 7.51245H22.2495C22.444 7.51245 22.6017 7.657 22.6017 7.83532C22.6017 8.01364 22.444 8.15819 22.2495 8.15819Z" fill="#9C9C9C"/>
<path d="M22.2495 9.51292H18.1911C17.9966 9.51292 17.8389 9.36838 17.8389 9.19006C17.8389 9.01173 17.9966 8.86719 18.1911 8.86719H22.2495C22.444 8.86719 22.6017 9.01173 22.6017 9.19006C22.6017 9.36838 22.444 9.51292 22.2495 9.51292Z" fill="#9C9C9C"/>
<path d="M14.5184 14.3201C14.3478 14.3201 14.1879 14.259 14.0678 14.1479L13.3848 13.5164C13.2479 13.3898 13.2488 13.1854 13.3869 13.0598C13.525 12.9343 13.748 12.9351 13.885 13.0618L14.5179 13.6469L16.5849 11.6889C16.7201 11.5608 16.9432 11.5574 17.0829 11.6814C17.2227 11.8054 17.2264 12.0098 17.0911 12.138L14.9747 14.1428C14.8551 14.2561 14.6945 14.3191 14.5224 14.32C14.5211 14.3201 14.5197 14.3201 14.5184 14.3201Z" fill="#9C9C9C"/>
<path d="M22.2495 13.25H18.1911C17.9966 13.25 17.8389 13.1054 17.8389 12.9271C17.8389 12.7488 17.9966 12.6042 18.1911 12.6042H22.2495C22.444 12.6042 22.6017 12.7488 22.6017 12.9271C22.6017 13.1054 22.444 13.25 22.2495 13.25Z" fill="#9C9C9C"/>
<path d="M22.2495 14.6047H18.1911C17.9966 14.6047 17.8389 14.4602 17.8389 14.2819C17.8389 14.1035 17.9966 13.959 18.1911 13.959H22.2495C22.444 13.959 22.6017 14.1035 22.6017 14.2819C22.6017 14.4602 22.444 14.6047 22.2495 14.6047Z" fill="#9C9C9C"/>
<path d="M14.5184 19.4114C14.3478 19.4114 14.1879 19.3503 14.0678 19.2392L13.3848 18.6077C13.2479 18.4811 13.2488 18.2767 13.3869 18.1511C13.525 18.0256 13.748 18.0264 13.885 18.1531L14.5179 18.7382L16.5849 16.7802C16.7201 16.6521 16.9432 16.6487 17.0829 16.7727C17.2227 16.8967 17.2264 17.1011 17.0911 17.2292L14.9747 19.2341C14.8551 19.3474 14.6945 19.4104 14.5224 19.4113C14.5211 19.4114 14.5197 19.4114 14.5184 19.4114Z" fill="#9C9C9C"/>
<path d="M22.2495 18.3423H18.1911C17.9966 18.3423 17.8389 18.1977 17.8389 18.0194C17.8389 17.8411 17.9966 17.6965 18.1911 17.6965H22.2495C22.444 17.6965 22.6017 17.8411 22.6017 18.0194C22.6017 18.1977 22.444 18.3423 22.2495 18.3423Z" fill="#9C9C9C"/>
<path d="M22.2495 19.6968H18.1911C17.9966 19.6968 17.8389 19.5522 17.8389 19.3739C17.8389 19.1956 17.9966 19.051 18.1911 19.051H22.2495C22.444 19.051 22.6017 19.1956 22.6017 19.3739C22.6017 19.5522 22.444 19.6968 22.2495 19.6968Z" fill="#9C9C9C"/>
<path d="M7.27883 6.55942C7.07366 6.503 6.93449 6.3282 6.93449 6.13183V4.93872H4.99443V6.13183C4.99443 6.3282 4.85525 6.50296 4.65008 6.55942C2.76903 7.07685 1.39832 8.67589 1.39832 10.5687V13.9132C1.39832 14.4297 1.85507 14.8483 2.4185 14.8483C2.98194 14.8483 3.43869 14.4297 3.43869 13.9132L3.45449 20.8503C3.45449 21.4854 4.01614 22.0002 4.709 22.0002C5.40186 22.0002 5.96352 21.4854 5.96352 20.8503H5.96525C5.96525 21.4854 6.52691 22.0002 7.21977 22.0002C7.91263 22.0002 8.47429 21.4854 8.47429 20.8503L8.49008 13.9132C8.49008 14.4297 8.94683 14.8483 9.51027 14.8483C10.0737 14.8483 10.5305 14.4297 10.5305 13.9132V10.5687C10.5306 8.67589 9.15988 7.07685 7.27883 6.55942Z" fill="#1BB7A5"/>
<path d="M10.5311 10.5681V13.9126C10.5311 14.1708 10.4169 14.4049 10.2324 14.5741C10.0478 14.7433 9.7924 14.8479 9.51077 14.8479C9.32271 14.8479 9.14669 14.8014 8.99538 14.7198C9.0708 14.6797 9.14023 14.6303 9.20154 14.5741C9.38609 14.4049 9.50023 14.1708 9.50023 13.9126V10.5681C9.50023 9.03917 8.30899 7.99146 6.62398 7.43738C6.19404 7.29588 5.90393 6.92575 5.90393 6.50676V4.93823H6.93476V6.1316C6.93476 6.32797 7.07402 6.50264 7.2792 6.55888C9.16033 7.07653 10.5311 8.67548 10.5311 10.5681Z" fill="#1BB7A5"/>
<path d="M6.31717 14.6132L6.31576 21.6472C6.09831 21.4402 5.96495 21.1595 5.96495 20.85H5.96308C5.96308 21.1599 5.82925 21.441 5.61133 21.6481L5.61273 14.6132C5.61273 14.4349 5.77052 14.2903 5.96495 14.2903C6.06217 14.2903 6.15044 14.3265 6.21386 14.385C6.27775 14.4436 6.31717 14.524 6.31717 14.6132Z" fill="#1BB7A5"/>
<path d="M5.89241 5.7933C7.63762 5.7933 9.05239 4.49643 9.05239 2.89665C9.05239 1.29688 7.63762 0 5.89241 0C4.1472 0 2.73242 1.29688 2.73242 2.89665C2.73242 4.49643 4.1472 5.7933 5.89241 5.7933Z" fill="#FED2A4"/>
<path d="M9.05284 2.89666C9.05284 4.49625 7.63801 5.79322 5.89294 5.79322C5.30452 5.79322 4.75323 5.64588 4.28162 5.38876C4.51379 5.43877 4.75613 5.46533 5.00523 5.46533C6.75076 5.46533 8.16559 4.16883 8.16559 2.56876C8.16559 1.50855 7.54384 0.58107 6.61655 0.0766602C8.01306 0.376195 9.05284 1.52535 9.05284 2.89666Z" fill="#FFBD86"/>
<path d="M5.95269 4.58195C5.58205 4.58195 5.24131 4.42627 5.01786 4.1548C4.90067 4.01244 4.93161 3.80997 5.08686 3.70259C5.2422 3.59521 5.46303 3.62353 5.58017 3.76584C5.66928 3.87412 5.80508 3.93621 5.95269 3.93621C6.09959 3.93621 6.23497 3.8746 6.32408 3.76717C6.44183 3.62521 6.66289 3.59775 6.81763 3.70564C6.97245 3.81358 7.0025 4.01614 6.88475 4.15806C6.6613 4.42748 6.32155 4.58195 5.95269 4.58195Z" fill="#F6A96C"/>
</g>
<defs>
<clipPath id="clip0">
<rect width="24" height="22" fill="white"/>
</clipPath>
</defs>
</svg>
