<svg width="24" height="25" viewBox="0 0 24 25" fill="none" xmlns="http://www.w3.org/2000/svg">
<g clip-path="url(#clip0)">
<path d="M8.00989 10.4329H15.7377V17.0015H8.00989V10.4329Z" fill="#784533"/>
<path d="M9.94189 15.4561H13.8058V17.7744H9.94189V15.4561Z" fill="#FDB683"/>
<path d="M10.3282 8.1145H13.4194C14.0342 8.1145 14.6239 8.35876 15.0587 8.79353C15.4935 9.22831 15.7377 9.81799 15.7377 10.4329V13.1376C15.7377 14.1624 15.3306 15.1452 14.606 15.8698C13.8814 16.5944 12.8986 17.0015 11.8738 17.0015C10.849 17.0015 9.86623 16.5944 9.1416 15.8698C8.41698 15.1452 8.00989 14.1624 8.00989 13.1376V10.4329C8.00989 9.81799 8.25414 9.22831 8.68892 8.79353C9.12369 8.35876 9.71338 8.1145 10.3282 8.1145V8.1145Z" fill="#FDC8A2"/>
<path d="M9.94185 12.7514C10.3686 12.7514 10.7146 12.4054 10.7146 11.9786C10.7146 11.5518 10.3686 11.2058 9.94185 11.2058C9.51505 11.2058 9.16907 11.5518 9.16907 11.9786C9.16907 12.4054 9.51505 12.7514 9.94185 12.7514Z" fill="#844E3A"/>
<path d="M13.8057 12.7514C14.2325 12.7514 14.5785 12.4054 14.5785 11.9786C14.5785 11.5518 14.2325 11.2058 13.8057 11.2058C13.3789 11.2058 13.033 11.5518 13.033 11.9786C13.033 12.4054 13.3789 12.7514 13.8057 12.7514Z" fill="#844E3A"/>
<path d="M10.7146 13.5242H13.033V13.9106C13.033 14.218 12.9108 14.5128 12.6934 14.7302C12.476 14.9476 12.1812 15.0697 11.8738 15.0697C11.5663 15.0697 11.2715 14.9476 11.0541 14.7302C10.8367 14.5128 10.7146 14.218 10.7146 13.9106V13.5242Z" fill="#DE5540"/>
<path d="M17.2833 10.4329V15.456C17.2833 15.8659 17.1205 16.2591 16.8306 16.5489C16.5408 16.8388 16.1477 17.0016 15.7378 17.0016V11.2057H15.3755C15.362 11.2057 15.3485 11.2057 15.3354 11.2052C14.4823 11.1956 13.6615 10.8772 13.0251 10.309C12.3887 9.74077 11.9797 8.96118 11.8738 8.11457C11.7678 8.96395 11.3566 9.74581 10.7168 10.3144C10.077 10.8831 9.25227 11.1997 8.39632 11.2052C8.38811 11.2057 8.38038 11.2057 8.37217 11.2057H8.00992V17.0016C7.80694 17.0016 7.60594 16.9617 7.41839 16.8841C7.23085 16.8064 7.06045 16.6926 6.91691 16.549C6.77338 16.4055 6.65954 16.2351 6.58189 16.0476C6.50424 15.86 6.4643 15.659 6.46436 15.456V10.4329C6.46421 9.0651 6.98232 7.74802 7.91435 6.7469C8.84638 5.74577 10.1231 5.13495 11.4875 5.03744C11.615 5.02778 11.7439 5.02344 11.8738 5.02344C12.0038 5.02344 12.1327 5.02778 12.2602 5.03744C13.6246 5.13489 14.9014 5.74568 15.8334 6.74682C16.7655 7.74797 17.2835 9.06508 17.2833 10.4329V10.4329Z" fill="#844E3A"/>
<path d="M7.62354 10.427V11.2057H8.39632V10.427C8.39635 10.1928 8.41724 9.95916 8.45872 9.72872L7.69821 9.59155C7.64856 9.86726 7.62357 10.1468 7.62354 10.427V10.427Z" fill="#784533"/>
<path d="M16.1082 10.4271V11.2057H15.3354V10.4271C15.3354 10.3962 15.334 10.3653 15.333 10.3344C14.5274 9.94414 13.6633 9.29114 12.7596 8.38795L13.3064 7.8412C13.9531 8.48841 14.5708 8.9941 15.1514 9.35344C14.7568 8.18219 13.7411 7.07035 12.2602 6.66367V8.11457H11.6116C11.1064 8.56472 10.292 9.23994 9.37193 9.80745L8.96622 9.14962C10.1375 8.42755 11.1566 7.49297 11.4874 7.17806V6.61779C11.3575 6.64357 11.229 6.6763 11.1025 6.71583C10.5455 6.88888 10.0354 7.18694 9.61115 7.58723C9.18692 7.98752 8.85977 8.47946 8.65469 9.02549L7.93311 8.74922C8.17961 8.09381 8.57263 7.5034 9.08216 7.02308C9.59169 6.54276 10.2043 6.18524 10.8731 5.97783C11.0741 5.91473 11.2794 5.86631 11.4874 5.83293V5.03744C11.6149 5.02778 11.7439 5.02344 11.8738 5.02344C12.0037 5.02344 12.1327 5.02778 12.2602 5.03744V5.86722C13.3098 6.1123 14.2548 6.68345 14.9596 7.49876C15.6894 8.34544 16.1082 9.41285 16.1082 10.4271V10.4271Z" fill="#784533"/>
<path d="M8.39624 3.09155H15.3513V6.27909H8.39624V3.09155Z" fill="#5D5D5D"/>
<path d="M6.85071 2.70499L11.8738 1.15942L16.8969 2.70499L11.8738 4.25056L6.85071 2.70499Z" fill="#51006F"/>
<path d="M17.2635 5.67402L16.897 4.57425V2.70508H16.1242V4.57425L15.7577 5.67392C15.7383 5.73201 15.733 5.79387 15.7422 5.85441C15.7514 5.91494 15.7749 5.97242 15.8107 6.0221C15.8465 6.07178 15.8936 6.11225 15.9481 6.14015C16.0026 6.16806 16.063 6.18261 16.1242 6.18261H16.897C16.9582 6.1826 17.0186 6.16805 17.0731 6.14015C17.1276 6.11225 17.1746 6.0718 17.2104 6.02213C17.2462 5.97246 17.2697 5.915 17.2789 5.85448C17.2882 5.79395 17.2829 5.7321 17.2635 5.67402Z" fill="#51006F"/>
<path d="M4.55281 10.424L3.65445 7.78266C3.57857 7.55957 3.41982 7.3742 3.21106 7.2649C3.0023 7.1556 2.75952 7.13075 2.53294 7.19549L1.28118 7.55314C1.10461 7.60361 0.949298 7.71023 0.838742 7.85686C0.728186 8.00348 0.668408 8.18214 0.668457 8.36577C0.668464 8.45548 0.682746 8.54461 0.710767 8.62982L1.70297 11.6458L4.53238 10.433L4.55281 10.424Z" fill="#FDC8A2"/>
<path d="M5.18251 12.2754L4.55284 10.4238L4.53241 10.4328L1.703 11.6454L2.4372 13.877L3.37323 17.0015H6.85076L5.18251 12.2754Z" fill="#F1DDC1"/>
<path d="M0 9.62061L4.37087 5.24974L5.46358 6.34246L1.09272 10.7133L0 9.62061Z" fill="#1BB7A5"/>
<path d="M4.91878 6.56901C5.34558 6.56901 5.69156 6.22302 5.69156 5.79622C5.69156 5.36942 5.34558 5.02344 4.91878 5.02344C4.49198 5.02344 4.146 5.36942 4.146 5.79622C4.146 6.22302 4.49198 6.56901 4.91878 6.56901Z" fill="#1BB7A5"/>
<path d="M3.6514 7.79008C3.59504 7.621 3.47381 7.48122 3.3144 7.40152C3.15498 7.32181 2.97043 7.30869 2.80134 7.36505C2.63225 7.42142 2.49248 7.54264 2.41277 7.70206C2.33306 7.86148 2.31994 8.04603 2.37631 8.21512L2.60037 8.88734C2.4008 9.08692 2.25189 9.33136 2.16609 9.60024C2.0803 9.86912 2.0601 10.1546 2.10718 10.4329L4.14593 9.27373L3.6514 7.79008Z" fill="#FDC8A2"/>
<path d="M18.549 12.2756L16.8807 17.0017H20.3583L21.2943 13.8772L22.0287 11.6449L19.1799 10.4204L18.549 12.2756Z" fill="#F1DDC1"/>
<path d="M22.4502 7.55315L21.1984 7.1955C20.9719 7.13075 20.7291 7.1556 20.5203 7.2649C20.3116 7.37419 20.1529 7.55958 20.077 7.78267L19.7787 8.5654L19.5027 8.32212C19.429 8.25716 19.3404 8.21146 19.2447 8.18911C19.149 8.16676 19.0493 8.16845 18.9544 8.19403C18.8596 8.2196 18.7725 8.26827 18.701 8.33568C18.6295 8.4031 18.5759 8.48716 18.5448 8.58037C18.5134 8.6746 18.5061 8.77519 18.5235 8.87296C18.541 8.97074 18.5826 9.0626 18.6446 9.14016L19.3257 9.99172L19.1799 10.4204L22.0287 11.6449L23.0206 8.62964C23.0487 8.54443 23.063 8.4553 23.063 8.36559C23.063 8.18198 23.0032 8.00336 22.8926 7.85678C22.7821 7.71019 22.6268 7.6036 22.4502 7.55315V7.55315Z" fill="#FDC8A2"/>
<path d="M8.00989 17.0017H15.7377V20.8656H8.00989V17.0017Z" fill="#F1DDC1"/>
<path d="M23.0309 14.9572L22.1625 18.2299V18.2304L21.9026 19.2085L20.9342 22.856V22.8565L20.7449 23.5704H2.9868L2.8134 22.9178L1.83149 19.2172L1.57212 18.2396L0.700806 14.9572L2.43715 13.8772L5.18247 12.2756L6.85072 17.0017H8.78268C9.09743 17.4378 9.5014 17.802 9.96774 18.07C10.4341 18.338 10.9521 18.5036 11.4874 18.556C11.7443 18.5824 12.0033 18.5824 12.2602 18.556C12.7955 18.5036 13.3135 18.338 13.7799 18.07C14.2462 17.802 14.6502 17.4378 14.9649 17.0017H16.881L18.5492 12.2756L21.2945 13.8772L23.0309 14.9572Z" fill="#51006F"/>
<path d="M3.8422 16.3428L1.83151 19.2171L1.57214 18.2395L3.209 15.8999L3.8422 16.3428Z" fill="#242424"/>
<path d="M3.66968 15.228L4.2102 14.4554L4.84312 14.8982L4.30259 15.6708L3.66968 15.228Z" fill="#242424"/>
<path d="M5.66976 17.13L3.40357 23.5702H2.98675L2.81335 22.9177L4.94044 16.873L5.66976 17.13Z" fill="#242424"/>
<path d="M18.8414 23.5701H18.0478L17.2282 20.0926H12.2602V23.5701H11.4874V20.0926H6.52129L5.70407 23.5701H4.91052L6.47444 16.9131L6.85069 17.0015L7.22694 17.0899L6.7029 19.3198H11.4874V18.547H12.2602V19.3198H17.0461L16.5206 17.0899L17.2731 16.9131L18.8414 23.5701Z" fill="#242424"/>
<path d="M6.85071 20.8655H7.62349V23.5702H6.85071V20.8655Z" fill="#242424"/>
<path d="M9.16907 20.8655H9.94185V23.5702H9.16907V20.8655Z" fill="#242424"/>
<path d="M22.1625 18.2297V18.2302L21.9026 19.2083L18.8984 14.9043L19.5321 14.4619L22.1625 18.2297Z" fill="#242424"/>
<path d="M20.9342 22.8558V22.8563L20.7448 23.5702H20.3681L18.0782 17.131L18.8066 16.8721L20.9342 22.8558Z" fill="#242424"/>
<path d="M16.124 20.8655H16.8968V23.5702H16.124V20.8655Z" fill="#242424"/>
<path d="M13.8058 20.8655H14.5786V23.5702H13.8058V20.8655Z" fill="#242424"/>
<path d="M4.20703 0.980225L4.86003 0.566785L7.55166 4.81804L6.89865 5.23148L4.20703 0.980225Z" fill="#1BB7A5"/>
<path d="M1.16748 2.20557L1.71384 1.65921L4.03183 3.9772L3.48547 4.52356L1.16748 2.20557Z" fill="#1BB7A5"/>
<path d="M0.00866699 1.04639L0.555026 0.500029L1.32768 1.27268L0.781321 1.81904L0.00866699 1.04639Z" fill="#1BB7A5"/>
<path d="M0.0678711 4.95996L0.496766 4.317L2.42861 5.60567L1.99971 6.24863L0.0678711 4.95996Z" fill="#1BB7A5"/>
<path d="M17.6519 2.49512L18.8753 0.562719L19.5283 0.976159L18.3049 2.90856L17.6519 2.49512Z" fill="#1BB7A5"/>
<path d="M18.5576 5.14551L22.0233 1.67003L22.5704 2.21561L19.1047 5.69109L18.5576 5.14551Z" fill="#1BB7A5"/>
<path d="M22.4042 1.27515L23.1768 0.502494L23.7232 1.04885L22.9505 1.8215L22.4042 1.27515Z" fill="#1BB7A5"/>
<path d="M20.9409 5.85986L23.2474 4.31386L23.6779 4.95604L21.3714 6.50205L20.9409 5.85986Z" fill="#1BB7A5"/>
</g>
<defs>
<clipPath id="clip0">
<rect width="24" height="24" fill="white" transform="translate(0 0.5)"/>
</clipPath>
</defs>
</svg>
