<?xml version="1.0" encoding="utf-8"?>
<!-- Generator: Adobe Illustrator 24.1.2, SVG Export Plug-In . SVG Version: 6.00 Build 0)  -->
<svg version="1.1" id="Layer_1" xmlns="http://www.w3.org/2000/svg" xmlns:xlink="http://www.w3.org/1999/xlink" x="0px" y="0px"
	 viewBox="0 0 24 24" enable-background="new 0 0 24 24" xml:space="preserve">
<g>
	<defs>
		<rect id="SVGID_1_" width="24" height="24"/>
	</defs>
	<clipPath id="SVGID_2_">
		<use xlink:href="#SVGID_1_"  overflow="visible"/>
	</clipPath>
	<g clip-path="url(#SVGID_2_)">
		
			<linearGradient id="SVGID_3_" gradientUnits="userSpaceOnUse" x1="7.1348" y1="21.8828" x2="16.2686" y2="3.1442" gradientTransform="matrix(1 0 0 -1 0 26)">
			<stop  offset="0" style="stop-color:#313F3D"/>
			<stop  offset="1" style="stop-color:#51006F"/>
		</linearGradient>
		<path fill="url(#SVGID_3_)" d="M23.4,10.5C23.4,10.5,23.4,10.5,23.4,10.5l-9.8-9.8c-0.4-0.4-1-0.6-1.6-0.6c-0.6,0-1.1,0.2-1.6,0.6
			l-9.8,9.8c0,0,0,0,0,0c-0.9,0.9-0.9,2.3,0,3.1c0.4,0.4,0.9,0.6,1.5,0.6c0,0,0,0,0.1,0h0.4v7.2c0,1.4,1.2,2.6,2.6,2.6H9
			c0.4,0,0.7-0.3,0.7-0.7v-5.6c0-0.7,0.5-1.2,1.2-1.2h2.3c0.7,0,1.2,0.5,1.2,1.2v5.6c0,0.4,0.3,0.7,0.7,0.7h3.8
			c1.4,0,2.6-1.2,2.6-2.6v-7.2h0.4c0.6,0,1.1-0.2,1.6-0.6C24.3,12.8,24.3,11.4,23.4,10.5z M22.4,12.6c-0.2,0.2-0.4,0.2-0.6,0.2h-1.1
			c-0.4,0-0.7,0.3-0.7,0.7v7.9c0,0.7-0.5,1.2-1.2,1.2h-3.1v-4.9c0-1.4-1.2-2.6-2.6-2.6h-2.3c-1.4,0-2.6,1.2-2.6,2.6v4.9H5.2
			c-0.7,0-1.2-0.5-1.2-1.2v-7.9c0-0.4-0.3-0.7-0.7-0.7h-1c0,0,0,0,0,0c-0.2,0-0.4-0.1-0.6-0.2c-0.3-0.3-0.3-0.8,0-1.1c0,0,0,0,0,0
			l0,0l9.8-9.8c0.2-0.2,0.4-0.2,0.6-0.2c0.2,0,0.4,0.1,0.6,0.2l9.8,9.8c0,0,0,0,0,0C22.7,11.8,22.7,12.3,22.4,12.6z"/>
	</g>
</g>
</svg>
