<svg width="24" height="24" viewBox="0 0 24 24" fill="none" xmlns="http://www.w3.org/2000/svg">
<g clip-path="url(#clip0)">
<path d="M23.4005 10.392C23.3998 10.3914 23.3992 10.3907 23.3987 10.3902L13.6086 0.600404C13.1913 0.182923 12.6365 -0.046875 12.0463 -0.046875C11.4562 -0.046875 10.9013 0.182923 10.4839 0.600404L0.698878 10.3852C0.695582 10.3885 0.692103 10.392 0.688991 10.3953C-0.167944 11.2572 -0.16648 12.6555 0.693202 13.5152C1.08596 13.9082 1.60452 14.1356 2.15915 14.1596C2.18185 14.1618 2.20456 14.1629 2.22745 14.1629H2.61746V21.3674C2.61746 22.7932 3.77762 23.9532 5.20346 23.9532H9.03367C9.42204 23.9532 9.7368 23.6382 9.7368 23.25V17.6016C9.7368 16.951 10.2662 16.4218 10.9167 16.4218H13.1759C13.8265 16.4218 14.3556 16.951 14.3556 17.6016V23.25C14.3556 23.6382 14.6704 23.9532 15.0588 23.9532H18.889C20.315 23.9532 21.475 22.7932 21.475 21.3674V14.1629H21.8368C22.4268 14.1629 22.9816 13.9331 23.3992 13.5154C24.2598 12.6544 24.2602 11.2535 23.4005 10.392ZM22.4048 12.5211C22.253 12.6729 22.0512 12.7566 21.8368 12.7566H20.7718C20.3835 12.7566 20.0687 13.0714 20.0687 13.4597V21.3674C20.0687 22.0177 19.5395 22.5469 18.889 22.5469H15.7619V17.6016C15.7619 16.1758 14.6019 15.0156 13.1759 15.0156H10.9167C9.4907 15.0156 8.33054 16.1758 8.33054 17.6016V22.5469H5.20346C4.55307 22.5469 4.02371 22.0177 4.02371 21.3674V13.4597C4.02371 13.0714 3.70895 12.7566 3.32059 12.7566H2.27395C2.26297 12.7559 2.25216 12.7553 2.241 12.7552C2.03152 12.7515 1.83505 12.6684 1.68783 12.521C1.37472 12.2078 1.37472 11.6983 1.68783 11.385C1.68802 11.385 1.68802 11.3848 1.6882 11.3846L1.68875 11.3841L11.4785 1.59467C11.6301 1.44287 11.8317 1.35938 12.0463 1.35938C12.2607 1.35938 12.4623 1.44287 12.6141 1.59467L22.4017 11.382C22.4031 11.3835 22.4048 11.385 22.4062 11.3864C22.7177 11.7001 22.7172 12.2086 22.4048 12.5211Z" fill="url(#paint0_linear)"/>
</g>
<defs>
<linearGradient id="paint0_linear" x1="1.63569" y1="6.66998" x2="10.7695" y2="25.4086" gradientUnits="userSpaceOnUse">
<stop stop-color="#313F3D"/>
<stop offset="1" stop-color="#51006F"/>
</linearGradient>
<clipPath id="clip0">
<rect width="24" height="24" fill="white"/>
</clipPath>
</defs>
</svg>
