<svg width="24" height="24" viewBox="0 0 24 24" fill="none" xmlns="http://www.w3.org/2000/svg">
<rect width="24" height="24" fill="white"/>
<path d="M13.0002 18.0004C13.0002 18.5527 12.5525 19.0004 12.0003 19.0004C11.4481 19.0004 11.0004 18.5527 11.0004 18.0004C11.0004 17.4482 11.4481 17.0005 12.0003 17.0005C12.5525 17.0005 13.0002 17.4482 13.0002 18.0004Z" fill="#5D5D5D"/>
<path d="M12 24C5.38293 24 0 18.6171 0 12C0 5.38293 5.38293 0 12 0C18.6171 0 24 5.38293 24 12C24 18.6171 18.6171 24 12 24ZM12 1.5C6.21002 1.5 1.5 6.21002 1.5 12C1.5 17.79 6.21002 22.5 12 22.5C17.79 22.5 22.5 17.79 22.5 12C22.5 6.21002 17.79 1.5 12 1.5Z" fill="#5D5D5D"/>
<path d="M11.9997 14.7496C11.5857 14.7496 11.2497 14.4136 11.2497 13.9996V12.9896C11.2497 12.0377 11.8538 11.1846 12.7517 10.8676C13.9467 10.4467 14.7498 9.17352 14.7498 8.24957C14.7498 6.73254 13.5167 5.49951 11.9997 5.49951C10.4827 5.49951 9.24963 6.73254 9.24963 8.24957C9.24963 8.66357 8.91364 8.99957 8.49963 8.99957C8.08563 8.99957 7.74963 8.66357 7.74963 8.24957C7.74963 5.90655 9.65576 3.99951 11.9997 3.99951C14.3436 3.99951 16.2498 5.90655 16.2498 8.24957C16.2498 9.91766 14.9327 11.6887 13.2507 12.2827C12.9507 12.3876 12.7497 12.6725 12.7497 12.9905V13.9996C12.7497 14.4136 12.4137 14.7496 11.9997 14.7496Z" fill="#5D5D5D"/>
</svg>
