<svg width="24" height="24" viewBox="0 0 24 24" fill="none" xmlns="http://www.w3.org/2000/svg">
<path d="M15.702 0C11.2293 0 7.59035 3.63891 7.59035 8.11167C7.59035 9.10603 7.76702 10.0723 8.11587 10.9899L0.359741 18.7466C0.248881 18.8575 0.186584 19.0079 0.186584 19.1646V23.4089C0.186584 23.7353 0.451241 24 0.777725 24H4.27535C4.43196 24 4.58215 23.9379 4.69301 23.8272L5.87168 22.6503C5.98277 22.5394 6.04516 22.3889 6.04516 22.232V20.7847H7.49065C7.81713 20.7847 8.08179 20.52 8.08179 20.1935V19.6141H8.66121C8.98765 19.6141 9.25235 19.3495 9.25235 19.023V17.751H10.5244C10.6811 17.751 10.8314 17.6887 10.9423 17.5778L12.823 15.6972C13.7408 16.0463 14.7072 16.2233 15.7019 16.2233C20.1747 16.2233 23.8136 12.5843 23.8136 8.11158C23.8136 3.63891 20.1748 0 15.702 0ZM15.702 15.041C14.7344 15.041 13.7986 14.8455 12.9205 14.46C12.6934 14.3604 12.4377 14.4152 12.2703 14.5784C12.2685 14.5801 12.2667 14.5815 12.2649 14.5834L10.2796 16.5687H8.6613C8.33482 16.5687 8.07016 16.8334 8.07016 17.1599V18.4319H7.49074C7.1643 18.4319 6.8996 18.6965 6.8996 19.023V19.6024H5.45407C5.12763 19.6024 4.86293 19.867 4.86293 20.1935V21.9868L4.03076 22.8177H1.36896V21.9823L8.59432 14.757C8.80212 14.5492 8.80212 14.2124 8.59432 14.0046C8.38652 13.7969 8.04977 13.7968 7.84184 14.0046L1.36896 20.4775V19.4095L9.22971 11.5482C9.23149 11.5464 9.23285 11.5448 9.23449 11.5431C9.39771 11.3758 9.45274 11.1201 9.35309 10.8928C8.96796 10.0148 8.77277 9.07898 8.77277 8.11172C8.77277 4.29084 11.8813 1.18233 15.7022 1.18233C19.523 1.18233 22.6315 4.2908 22.6315 8.11172C22.6314 11.9325 19.5228 15.041 15.702 15.041Z" fill="white"/>
<path d="M18.1707 3.42847C16.9497 3.42847 15.9564 4.42175 15.9564 5.6427C15.9564 6.86365 16.9497 7.85694 18.1707 7.85694C19.3916 7.85694 20.3849 6.86365 20.3849 5.6427C20.3849 4.42175 19.3917 3.42847 18.1707 3.42847ZM18.1707 6.67465C17.6016 6.67465 17.1387 6.21172 17.1387 5.6427C17.1387 5.07369 17.6016 4.61075 18.1707 4.61075C18.7397 4.61075 19.2026 5.07369 19.2026 5.6427C19.2026 6.21172 18.7397 6.67465 18.1707 6.67465Z" fill="white"/>
</svg>
