<svg width="18" height="18" viewBox="0 0 18 18" fill="none" xmlns="http://www.w3.org/2000/svg">
<path d="M8.99962 0C5.33313 0 2.35034 2.98279 2.35034 6.64928C2.35034 7.85632 2.89167 9.1545 2.91436 9.20926C3.08919 9.62425 3.43417 10.2688 3.68294 10.6467L8.242 17.5545C8.42857 17.8377 8.70471 18 8.99962 18C9.29454 18 9.57068 17.8377 9.75725 17.5549L14.3167 10.6467C14.5659 10.2688 14.9104 9.62425 15.0853 9.20926C15.108 9.15489 15.6489 7.85671 15.6489 6.64928C15.6489 2.98279 12.6661 0 8.99962 0ZM14.364 8.90574C14.208 9.27771 13.8868 9.87731 13.6635 10.216L9.10406 17.1243C9.0141 17.2608 8.98554 17.2608 8.89558 17.1243L4.33613 10.216C4.11279 9.87731 3.79167 9.27731 3.63561 8.90534C3.62896 8.88931 3.13261 7.69439 3.13261 6.64928C3.13261 3.41421 5.76455 0.782269 8.99962 0.782269C12.2347 0.782269 14.8666 3.41421 14.8666 6.64928C14.8666 7.69596 14.3691 8.894 14.364 8.90574Z" fill="#1BB7A5"/>
<path d="M8.99927 3.12891C7.05807 3.12891 5.47906 4.70831 5.47906 6.64911C5.47906 8.58992 7.05807 10.1693 8.99927 10.1693C10.9405 10.1693 12.5195 8.58992 12.5195 6.64911C12.5195 4.70831 10.9405 3.12891 8.99927 3.12891ZM8.99927 9.38705C7.48989 9.38705 6.26133 8.15889 6.26133 6.64911C6.26133 5.13934 7.48989 3.91117 8.99927 3.91117C10.5087 3.91117 11.7372 5.13934 11.7372 6.64911C11.7372 8.15889 10.5087 9.38705 8.99927 9.38705Z" fill="#1BB7A5"/>
</svg>
