<svg width="24" height="24" viewBox="0 0 24 24" fill="none" xmlns="http://www.w3.org/2000/svg">
<path d="M19.7222 23.6481H4.8938C4.6089 23.6481 4.37793 23.4331 4.37793 23.1678V4.29005C4.37793 4.02483 4.6089 3.80981 4.8938 3.80981H19.7222C20.0071 3.80981 20.2381 4.02483 20.2381 4.29005V23.1679C20.2381 23.4331 20.0071 23.6481 19.7222 23.6481Z" fill="white"/>
<path d="M19.7222 3.80981H18.3774C18.6623 3.80981 18.8933 4.02483 18.8933 4.29005V23.1679C18.8933 23.4331 18.6623 23.6481 18.3774 23.6481H19.7222C20.0071 23.6481 20.2381 23.4331 20.2381 23.1679V4.29005C20.2381 4.02483 20.0071 3.80981 19.7222 3.80981Z" fill="white"/>
<path d="M14.1756 2.09049C14.1756 1.1296 13.3388 0.350586 12.3066 0.350586C11.2744 0.350586 10.4376 1.12955 10.4376 2.09049C10.4376 2.2824 10.2705 2.43798 10.0643 2.43798H8.80781C8.37593 2.43798 8.02588 2.7639 8.02588 3.1659V4.5878C8.02588 4.98985 8.37598 5.31573 8.80781 5.31573H15.8053C16.2372 5.31573 16.5872 4.9898 16.5872 4.5878V3.16595C16.5872 2.7639 16.2371 2.43802 15.8053 2.43802H14.5488C14.3427 2.43798 14.1756 2.28245 14.1756 2.09049Z" fill="#26457D"/>
<path d="M15.8065 2.43798H14.55C14.3439 2.43798 14.1767 2.2824 14.1767 2.09049C14.1767 1.1296 13.3399 0.350586 12.3077 0.350586C12.0842 0.350586 11.87 0.387195 11.6714 0.45418C12.3903 0.696477 12.9041 1.33759 12.9041 2.09049C12.9041 2.2824 13.0712 2.43798 13.2773 2.43798H14.5338C14.9657 2.43798 15.3157 2.7639 15.3157 3.1659V4.5878C15.3157 4.98985 14.9656 5.31573 14.5338 5.31573H15.8064C16.2383 5.31573 16.5884 4.9898 16.5884 4.5878V3.16595C16.5884 2.7639 16.2383 2.43798 15.8065 2.43798Z" fill="#21386B"/>
<path d="M13.5271 13.934H11.0892C10.9255 13.934 10.7927 13.8105 10.7927 13.658V11.3206C10.7927 10.6746 11.3553 10.1509 12.0492 10.1509H12.5672C13.2611 10.1509 13.8237 10.6746 13.8237 11.3206V13.658C13.8236 13.8105 13.6908 13.934 13.5271 13.934Z" fill="#1BB7A5"/>
<path d="M12.5663 10.1509H12.0484C11.9759 10.1509 11.9049 10.1569 11.8357 10.1679C12.4283 10.262 12.8795 10.7421 12.8795 11.3206V13.658C12.8795 13.8104 12.7468 13.934 12.583 13.934H13.5263C13.6901 13.934 13.8228 13.8104 13.8228 13.658V11.3206C13.8228 10.6746 13.2603 10.1509 12.5663 10.1509Z" fill="#5D5D5D"/>
<path d="M12.3086 10.7555C11.2448 10.7555 10.3824 9.95267 10.3824 8.96235V8.08269C10.3824 7.57817 10.8218 7.16919 11.3637 7.16919H13.2536C13.7955 7.16919 14.2348 7.57817 14.2348 8.08269V8.96235C14.2348 9.95272 13.3725 10.7555 12.3086 10.7555Z" fill="#F1D0A5"/>
<path d="M13.254 7.16919H12.2479C12.7898 7.16919 13.2292 7.57817 13.2292 8.08269V8.96235C13.2292 9.79058 12.6258 10.4873 11.806 10.6933C11.9665 10.7336 12.135 10.7555 12.3091 10.7555C13.3729 10.7555 14.2353 9.95267 14.2353 8.96235V8.08269C14.2353 7.57817 13.7959 7.16919 13.254 7.16919Z" fill="#F1B986"/>
<path d="M5.56591 9.76606H4.37793V7.90503H5.56591C5.83524 7.90503 6.05363 8.10833 6.05363 8.35906V9.31203C6.05363 9.56276 5.83529 9.76606 5.56591 9.76606Z" fill="#E49542"/>
<path d="M19.0499 7.9043H20.2378V9.76533H19.0499C18.7805 9.76533 18.5621 9.56203 18.5621 9.3113V8.35833C18.5621 8.10755 18.7805 7.9043 19.0499 7.9043Z" fill="#E49542"/>
<path d="M12.6842 2.02733V1.6521C12.6842 1.4579 12.5152 1.30054 12.3066 1.30054C12.098 1.30054 11.929 1.4579 11.929 1.6521V2.02733C11.929 2.22154 12.098 2.3789 12.3066 2.3789C12.5152 2.3789 12.6842 2.22154 12.6842 2.02733Z" fill="#1BB7A5"/>
<path d="M14.6109 8.96064V8.08093C14.6109 7.38339 14.0014 6.81592 13.2521 6.81592H11.3622C10.6129 6.81592 10.0033 7.38339 10.0033 8.08093V8.96064C10.0033 9.55454 10.2641 10.0927 10.6845 10.4814C10.5098 10.7277 10.4141 11.0185 10.4141 11.319V13.6564C10.4141 14.0025 10.7165 14.284 11.0882 14.284H13.5261C13.8978 14.284 14.2003 14.0025 14.2003 13.6564V12.9203C14.2003 12.7261 14.0312 12.5687 13.8226 12.5687C13.614 12.5687 13.445 12.7261 13.445 12.9203V13.5809H11.1694V11.319C11.1694 11.1658 11.2164 11.0177 11.3014 10.8898C11.6055 11.0277 11.9468 11.1054 12.3072 11.1054C12.6676 11.1054 13.0089 11.0277 13.3129 10.8898C13.3979 11.0177 13.445 11.1659 13.445 11.319V11.5147C13.445 11.7089 13.614 11.8662 13.8226 11.8662C14.0312 11.8662 14.2003 11.7089 14.2003 11.5147V11.319C14.2003 11.0185 14.1045 10.7277 13.9299 10.4814C14.3502 10.0927 14.6109 9.5545 14.6109 8.96064ZM10.7585 8.96064V8.08093C10.7585 7.77114 11.0293 7.51904 11.3622 7.51904H13.252C13.5848 7.51904 13.8556 7.77114 13.8556 8.08093V8.96064C13.8556 9.75554 13.1609 10.4022 12.307 10.4022C11.4532 10.4022 10.7585 9.75554 10.7585 8.96064Z" fill="black"/>
<path d="M7.57812 16.2468C7.57812 16.441 7.74716 16.5984 7.95577 16.5984H16.661C16.8697 16.5984 17.0387 16.441 17.0387 16.2468C17.0387 16.0526 16.8697 15.8953 16.661 15.8953H7.95577C7.74716 15.8953 7.57812 16.0526 7.57812 16.2468Z" fill="#1BB7A5"/>
<path d="M7.95577 18.9124H16.661C16.8697 18.9124 17.0387 18.755 17.0387 18.5608C17.0387 18.3666 16.8697 18.2092 16.661 18.2092H7.95577C7.74716 18.2092 7.57812 18.3666 7.57812 18.5608C7.57812 18.755 7.74716 18.9124 7.95577 18.9124Z" fill="#1BB7A5"/>
<path d="M7.95577 21.2249H16.661C16.8697 21.2249 17.0387 21.0675 17.0387 20.8733C17.0387 20.6791 16.8697 20.5217 16.661 20.5217H7.95577C7.74716 20.5217 7.57812 20.6791 7.57812 20.8733C7.57812 21.0675 7.74716 21.2249 7.95577 21.2249Z" fill="#1BB7A5"/>
<path d="M19.7219 3.45862H16.9661V3.16687C16.9661 2.57165 16.4459 2.08739 15.8065 2.08739H14.5544C14.552 0.935998 13.5451 0 12.3077 0C11.0704 0 10.0635 0.935998 10.0611 2.08739H8.809C8.16962 2.08739 7.64942 2.57165 7.64942 3.16687V3.45862H4.89356C4.40091 3.45862 4.0001 3.83174 4.0001 4.29037V19.9412C4.0001 20.1354 4.16914 20.2928 4.37775 20.2928C4.58636 20.2928 4.75539 20.1354 4.75539 19.9412V10.1178H5.56572C6.04292 10.1178 6.43109 9.75645 6.43109 9.31222V8.3592C6.43109 7.91497 6.04292 7.55361 5.56572 7.55361H4.75539V4.29037C4.75539 4.21945 4.81738 4.16174 4.89356 4.16174H7.64942V4.58877C7.64942 5.18399 8.16962 5.66825 8.809 5.66825H10.0374C10.246 5.66825 10.415 5.5109 10.415 5.31669C10.415 5.12249 10.246 4.96513 10.0374 4.96513H8.809C8.58604 4.96513 8.40472 4.79629 8.40472 4.58877V3.16692C8.40472 2.95935 8.58609 2.79056 8.809 2.79056H10.0655C10.4796 2.79056 10.8164 2.47696 10.8164 2.09151C10.8164 1.32595 11.4854 0.703124 12.3077 0.703124C13.13 0.703124 13.7991 1.32595 13.7991 2.09146C13.7991 2.47692 14.1359 2.79051 14.55 2.79051H15.8064C16.0294 2.79051 16.2107 2.95935 16.2107 3.16687V4.58877C16.2107 4.79633 16.0293 4.96513 15.8064 4.96513H11.5472C11.3386 4.96513 11.1696 5.12249 11.1696 5.31669C11.1696 5.5109 11.3386 5.66825 11.5472 5.66825H15.8064C16.4458 5.66825 16.966 5.18399 16.966 4.58877V4.16174H19.7219C19.7981 4.16174 19.8601 4.21945 19.8601 4.29037V7.55361H19.0498C18.5726 7.55361 18.1844 7.91497 18.1844 8.3592V9.31222C18.1844 9.75645 18.5726 10.1178 19.0498 10.1178H19.8601V23.1682C19.8601 23.2392 19.7981 23.2969 19.7219 23.2969H4.89346C4.81728 23.2969 4.75529 23.2392 4.75529 23.1682V21.3469C4.75529 21.1527 4.58626 20.9953 4.37765 20.9953C4.16903 20.9953 4 21.1527 4 21.3469V23.1682C4 23.6268 4.40081 24 4.89346 24H19.7219C20.2146 24 20.6154 23.6268 20.6154 23.1682V4.29037C20.6154 3.83174 20.2146 3.45862 19.7219 3.45862ZM5.56567 8.25678C5.62635 8.25678 5.67574 8.30272 5.67574 8.35925V9.31226C5.67574 9.36875 5.6264 9.41473 5.56567 9.41473H4.75534V8.25683H5.56567V8.25678ZM19.0498 9.41469C18.9891 9.41469 18.9397 9.36875 18.9397 9.31222V8.3592C18.9397 8.30272 18.9891 8.25673 19.0498 8.25673H19.8601V9.41464H19.0498V9.41469Z" fill="#1BB7A5"/>
</svg>
