<svg width="24" height="24" viewBox="0 0 24 24" fill="none" xmlns="http://www.w3.org/2000/svg">
<rect width="24" height="24" fill="white"/>
<path d="M20.6031 12.3217V10.0781C20.6031 6.80522 18.4276 4.0312 15.4468 3.12516V2.10938C15.4468 0.946266 14.5006 0 13.3375 0C12.1743 0 11.2281 0.946266 11.2281 2.10938V3.12516C8.2473 4.0312 6.07183 6.80517 6.07183 10.0781V12.3217C6.07183 15.1966 4.97599 17.9227 2.98619 19.9977C2.79119 20.2011 2.73639 20.5011 2.84693 20.7602C2.95746 21.0194 3.21199 21.1875 3.49371 21.1875H9.89257C10.2192 22.7903 11.6397 24 13.3375 24C15.0353 24 16.4557 22.7903 16.7823 21.1875H23.1812C23.4629 21.1875 23.7174 21.0194 23.8279 20.7602C23.9385 20.5011 23.8837 20.2011 23.6887 19.9977C21.6989 17.9227 20.6031 15.1965 20.6031 12.3217ZM12.6343 2.10938C12.6343 1.72167 12.9498 1.40625 13.3375 1.40625C13.7252 1.40625 14.0406 1.72167 14.0406 2.10938V2.84663C13.8092 2.82431 13.5746 2.8125 13.3375 2.8125C13.1003 2.8125 12.8658 2.82431 12.6343 2.84663V2.10938ZM13.3375 22.5938C12.4208 22.5938 11.6393 22.0059 11.349 21.1875H15.3259C15.0356 22.0059 14.2541 22.5938 13.3375 22.5938ZM5.00918 19.7812C6.61047 17.6348 7.47808 15.0371 7.47808 12.3217V10.0781C7.47808 6.84727 10.1066 4.21875 13.3375 4.21875C16.5683 4.21875 19.1968 6.84727 19.1968 10.0781V12.3217C19.1968 15.0371 20.0644 17.6348 21.6658 19.7812H5.00918Z" fill="#5D5D5D"/>
<path d="M22.4784 10.078C22.4784 10.4664 22.7932 10.7812 23.1815 10.7812C23.5698 10.7812 23.8846 10.4664 23.8846 10.078C23.8846 7.26086 22.7876 4.61228 20.7955 2.62023C20.521 2.34569 20.0758 2.34564 19.8012 2.62023C19.5266 2.89483 19.5266 3.34 19.8012 3.61459C21.5276 5.34105 22.4784 7.63647 22.4784 10.078Z" fill="#5D5D5D"/>
<path d="M3.49377 10.7811C3.88209 10.7811 4.1969 10.4663 4.1969 10.078C4.1969 7.63649 5.14771 5.34106 6.87412 3.61461C7.14871 3.34002 7.14871 2.89485 6.87412 2.62025C6.59957 2.34566 6.15435 2.34566 5.87976 2.62025C3.88771 4.6123 2.79065 7.26083 2.79065 10.078C2.79065 10.4663 3.10546 10.7811 3.49377 10.7811Z" fill="#5D5D5D"/>
</svg>
