<svg width="41" height="41" viewBox="0 0 41 41" fill="none" xmlns="http://www.w3.org/2000/svg">
<path d="M30.9366 36.2931C30.9145 38.1823 29.3688 39.698 27.4795 39.683H18.5541C18.2122 39.6821 17.878 39.5816 17.5923 39.3938C17.4967 39.3272 17.4068 39.253 17.3233 39.1718C16.8505 38.7003 16.6894 37.9997 16.9087 37.369C17.128 36.7383 17.689 36.2889 18.3523 36.2124C19.9154 36.0556 21.441 35.6373 22.8655 34.9748C25.5558 33.6296 25.5558 32.957 28.2462 32.957H28.3068C29.6251 32.9772 30.9299 33.6633 30.9366 36.2931Z" fill="#7F8E94"/>
<path d="M28.3068 32.9571H28.2462C27.8134 32.9523 27.3808 32.9777 26.9515 33.0331C28.0115 33.2679 28.9134 34.1093 28.9188 36.2932C28.8966 38.1824 27.351 39.698 25.4617 39.6831H27.4795C29.3688 39.698 30.9144 38.1824 30.9366 36.2932C30.9299 33.6634 29.625 32.9773 28.3068 32.9571Z" fill="#545C60"/>
<path d="M11.8618 39.6364C11.6889 39.669 11.5132 39.6848 11.3372 39.6835H2.4118C1.49057 39.6818 0.730034 38.9629 0.676564 38.0432C0.623094 37.1235 1.29519 36.3213 2.21002 36.2129C2.47234 36.1792 2.76155 36.1456 3.06422 36.0918C4.30853 37.7128 6.87785 39.3404 11.8618 39.6364Z" fill="#7F8E94"/>
<path d="M3.06419 36.0918C2.76152 36.1456 2.4723 36.1792 2.20999 36.2129C1.92258 36.2471 1.64846 36.3533 1.41296 36.5216C2.76892 37.9905 5.30125 39.3667 9.84397 39.6364C9.67103 39.669 9.49533 39.6848 9.31934 39.6835H11.3371C11.5131 39.6848 11.6888 39.669 11.8618 39.6364C6.87781 39.3404 4.30849 37.7128 3.06419 36.0918Z" fill="#545C60"/>
<path d="M12.7766 16.1423V15.498C12.5708 15.4805 12.3482 15.4697 12.104 15.4697C12.2196 15.6013 12.3185 15.7465 12.3986 15.9022C12.5346 15.9652 12.6617 16.046 12.7766 16.1423Z" fill="#CFD8DC"/>
<path d="M17.821 25.0204C16.1847 24.5905 14.454 25.2267 13.4859 26.6141C12.5177 28.0015 12.5177 29.8455 13.4859 31.2329C14.454 32.6203 16.1847 33.2565 17.821 32.8266C16.0399 32.3683 14.795 30.7626 14.795 28.9235C14.795 27.0845 16.0399 25.4787 17.821 25.0204Z" fill="#CFD8DC"/>
<path d="M5.85955 23.5723C5.82727 23.6758 5.79229 23.7788 5.76135 23.8837C5.96241 23.7959 6.17054 23.7252 6.3835 23.6725C6.21136 23.6271 6.0363 23.5936 5.85955 23.5723Z" fill="#CFD8DC"/>
<path d="M28.6364 26.1104C28.4914 25.2011 28.2478 24.3103 27.91 23.4537C26.8845 20.8823 24.7938 18.8824 22.1794 17.972C20.9873 17.5278 19.7485 17.2209 18.4869 17.0573C17.5101 15.9513 16.2237 15.164 14.7943 14.7974V15.6556C15.4171 16.0398 15.9812 16.5119 16.4691 17.0573C17.7307 17.2209 18.9696 17.5278 20.1617 17.972C22.776 18.8824 24.8667 20.8823 25.8922 23.4537C26.23 24.3103 26.4736 25.2011 26.6186 26.1104C26.826 27.4476 26.9205 28.7998 26.9011 30.1528C26.8997 31.1206 26.691 32.077 26.289 32.9575H26.2285C23.5381 32.9575 23.5381 33.6301 20.8477 34.9753C19.4233 35.6377 17.8977 36.0561 16.3346 36.2129C15.6712 36.2893 15.1102 36.7388 14.8909 37.3695C14.6716 38.0002 14.8327 38.7007 15.3055 39.1723C15.389 39.2534 15.479 39.3277 15.5745 39.3942C14.4919 39.5473 13.401 39.6347 12.3077 39.6559C12.7066 39.6727 13.1149 39.6834 13.5433 39.6834C14.8983 39.6874 16.2517 39.5907 17.5923 39.3942C17.4968 39.3277 17.4068 39.2534 17.3233 39.1723C16.8505 38.7007 16.6894 38.0002 16.9087 37.3695C17.128 36.7388 17.689 36.2893 18.3524 36.2129C19.9154 36.0561 21.4411 35.6377 22.8655 34.9753C25.5559 33.6301 25.5559 32.9575 28.2463 32.9575H28.3068C28.7088 32.077 28.9175 31.1206 28.9189 30.1528C28.9383 28.7998 28.8438 27.4476 28.6364 26.1104Z" fill="#CFD8DC"/>
<path d="M5.37794 31.6123C5.72128 31.611 6.06304 31.5658 6.39491 31.4778C5.21509 31.1748 4.23409 30.3573 3.72335 29.2515C3.303 29.6224 2.93366 30.0473 2.625 30.5153C3.36921 31.2186 4.35399 31.611 5.37794 31.6123Z" fill="#CFD8DC"/>
<path d="M11.4313 27.5766C11.4321 29.4758 10.1085 31.1185 8.25262 31.5218C6.39672 31.925 4.51081 30.9797 3.72339 29.2514C4.55495 28.4944 5.08518 27.4626 5.21655 26.3458C5.35133 25.5155 5.53323 24.6936 5.76136 23.8841C6.27592 23.6559 6.83289 23.539 7.39577 23.541C9.62456 23.541 11.4313 25.3478 11.4313 27.5766Z" fill="#37474F"/>
<path d="M10.8058 17.5483C8.69338 18.4493 7.05437 20.1931 6.28598 22.3574C5.13537 21.6354 4.53202 20.2922 4.75663 18.9526C4.98124 17.6129 5.9897 16.5399 7.31285 16.2328C8.636 15.9256 10.014 16.4446 10.8058 17.5483Z" fill="#1BB7A5"/>
<path d="M29.5915 20.1777C29.5915 21.4767 28.9655 22.6961 27.91 23.4532C26.8845 20.8819 24.7938 18.8819 22.1794 17.9716C23.1565 16.4791 24.9974 15.8051 26.7071 16.314C28.4168 16.8229 29.5896 18.3939 29.5915 20.1777Z" fill="#1BB7A5"/>
<path d="M25.5558 16.1421C25.212 16.1418 24.8696 16.1855 24.5369 16.2719C26.3221 16.7279 27.5717 18.3352 27.5736 20.1777C27.5733 20.7968 27.4292 21.4075 27.1526 21.9614C27.4463 22.4366 27.6996 22.9357 27.9099 23.4532C29.3312 22.4304 29.9307 20.6076 29.394 18.9408C28.8573 17.274 27.3069 16.1435 25.5558 16.1421Z" fill="#1BB7A5"/>
<path d="M38.9944 35.1501C38.7871 35.0335 38.5529 34.9732 38.315 34.9752H36.9497C35.7928 34.9752 34.6292 35.6612 34.3064 38.2036C34.269 38.5852 34.3959 38.9646 34.6552 39.247C34.9144 39.5294 35.2817 39.6881 35.665 39.6834L27.4795 39.6835C29.3688 39.6983 30.9145 38.1827 30.9366 36.2935C30.9299 33.6636 29.6251 32.9776 28.3068 32.9574C28.7088 32.0769 28.9175 31.1206 28.9188 30.1527C28.9383 28.7997 28.8438 27.4475 28.6364 26.1104C30.1091 26.2046 31.5632 26.4918 32.9612 26.9646C34.5123 27.471 35.9021 28.3782 36.99 29.5944C37.1316 29.7533 37.2619 29.9219 37.3801 30.0989C38.4202 31.5788 38.9834 33.3412 38.9944 35.1501Z" fill="#607D8B"/>
<path d="M34.3064 38.2036C34.5916 35.9578 35.5326 35.1614 36.5462 35.006C36.4643 34.9885 36.381 34.9781 36.2973 34.9751H34.9319C33.7751 34.9751 32.6115 35.6611 32.2886 38.2036C32.2513 38.5851 32.3782 38.9645 32.6374 39.2469C32.8967 39.5293 33.2639 39.688 33.6473 39.6833H35.6651C35.2817 39.688 34.9145 39.5293 34.6552 39.2469C34.396 38.9645 34.2691 38.5851 34.3064 38.2036Z" fill="#37474F"/>
<path d="M37.3801 30.0989C37.2619 29.9219 37.1316 29.7533 36.99 29.5944C35.9021 28.3782 34.5123 27.471 32.9611 26.9645C31.5631 26.4918 30.1091 26.2046 28.6364 26.1104C28.6511 26.1978 28.6592 26.2846 28.6727 26.372C29.444 26.5092 30.2033 26.7073 30.9434 26.9645C32.4945 27.471 33.8843 28.3782 34.9722 29.5944C35.1138 29.7533 35.2441 29.9219 35.3623 30.0989C36.3701 31.5286 36.9286 33.2264 36.9665 34.9752H38.3117C38.5495 34.9732 38.7837 35.0334 38.991 35.1501C38.981 33.3415 38.419 31.5792 37.3801 30.0989Z" fill="#37474F"/>
<path d="M39.6805 26.904C39.6798 28.3526 38.7537 29.6387 37.3802 30.0988C37.262 29.9219 37.1316 29.7533 36.9901 29.5944C35.9022 28.3782 34.5124 27.471 32.9612 26.9645C32.9557 26.9449 32.9534 26.9244 32.9545 26.904C32.9545 25.0467 34.4602 23.541 36.3175 23.541C38.1748 23.541 39.6805 25.0467 39.6805 26.904Z" fill="#F5F5F5"/>
<path d="M36.3175 23.541C35.9743 23.5457 35.634 23.6036 35.3086 23.7126C36.4265 24.0602 37.2816 24.9665 37.5638 26.1027C37.8459 27.2389 37.5141 28.44 36.6888 29.2702C36.7903 29.3765 36.8905 29.4814 36.9901 29.5944C37.1316 29.7533 37.262 29.9219 37.3802 30.0989C38.952 29.5823 39.9145 27.9992 39.6499 26.366C39.3852 24.7329 37.972 23.5348 36.3175 23.541Z" fill="#CFD8DC"/>
<path d="M39.6804 36.3204V38.3382C39.6734 39.086 39.0629 39.6875 38.315 39.6833H35.665C35.2816 39.688 34.9144 39.5293 34.6551 39.247C34.3959 38.9646 34.269 38.5852 34.3063 38.2036C34.6292 35.6612 35.7928 34.9752 36.9496 34.9752H38.315C38.6748 34.9714 39.0212 35.1113 39.2775 35.3638C39.5338 35.6163 39.6788 35.9606 39.6804 36.3204Z" fill="#7F8E94"/>
<path d="M38.9944 35.15C38.7871 35.0334 38.5529 34.9731 38.315 34.9751H36.9497C36.8146 34.9754 36.6797 34.9857 36.5461 35.0061C36.6967 35.0292 36.8423 35.0779 36.9766 35.15C37.3986 35.3889 37.6604 35.8354 37.6626 36.3203V38.3381C37.6556 39.086 37.0451 39.6874 36.2972 39.6833L38.315 39.6833C39.0629 39.6874 39.6734 39.086 39.6804 38.3381V36.3203C39.6782 35.8354 39.4164 35.3889 38.9944 35.15Z" fill="#545C60"/>
<path d="M18.8299 32.9574C21.0587 32.9574 22.8655 31.1506 22.8655 28.9218C22.8655 26.693 21.0587 24.8862 18.8299 24.8862C16.6011 24.8862 14.7943 26.693 14.7943 28.9218C14.7943 31.1506 16.6011 32.9574 18.8299 32.9574Z" fill="#37474F"/>
<path d="M26.2285 12.7792H19.5025C18.9311 12.7794 18.4218 12.4186 18.2326 11.8794C18.0434 11.3402 18.2155 10.7403 18.6618 10.3834L22.3947 7.3984H19.5025C18.7596 7.3984 18.1573 6.79613 18.1573 6.0532C18.1573 5.31027 18.7596 4.70801 19.5025 4.70801H26.2285C26.7999 4.70774 27.3092 5.06855 27.4984 5.60777C27.6876 6.14699 27.5155 6.74691 27.0692 7.1038L23.3363 10.0888H26.2285C26.9714 10.0888 27.5737 10.691 27.5737 11.434C27.5737 12.1769 26.9714 12.7792 26.2285 12.7792Z" fill="#51006F"/>
<path d="M38.3352 8.74353H31.6092C31.0377 8.7438 30.5285 8.38299 30.3393 7.84377C30.15 7.30455 30.3222 6.70463 30.7685 6.34774L34.5014 3.36275H31.6092C30.8663 3.36275 30.264 2.76049 30.264 2.01756C30.264 1.27463 30.8663 0.672363 31.6092 0.672363H38.3352C38.9066 0.672095 39.4159 1.03291 39.6051 1.57212C39.7943 2.11134 39.6222 2.71126 39.1759 3.06815L35.443 6.05314H38.3352C39.0781 6.05314 39.6804 6.6554 39.6804 7.39833C39.6804 8.14126 39.0781 8.74353 38.3352 8.74353Z" fill="#1BB7A5"/>
<path d="M40.353 26.9037C40.3521 24.8366 38.7894 23.1044 36.7333 22.8914C34.6773 22.6784 32.7926 24.0534 32.368 26.0764C31.3391 25.7887 30.2865 25.594 29.2229 25.4946C29.0978 24.8725 28.9288 24.26 28.7171 23.6618C30.0253 22.48 30.5629 20.6659 30.1099 18.9622C29.6568 17.2584 28.2892 15.951 26.5668 15.5751C24.8444 15.1992 23.0564 15.8179 21.9346 17.1779C20.9224 16.8327 19.8807 16.5807 18.8225 16.4253C17.7767 15.3145 16.4369 14.5236 14.9591 14.1445C14.758 14.0937 14.5446 14.1385 14.381 14.2661C14.2173 14.3936 14.1216 14.5895 14.1217 14.7969V15.0619C13.4661 14.8737 12.786 14.7843 12.104 14.7969C11.8373 14.7993 11.5972 14.9589 11.4919 15.2039C11.3863 15.4509 11.4356 15.7368 11.6177 15.9343C11.7517 16.096 11.8558 16.2802 11.925 16.4784C11.6062 16.5551 11.3036 16.6466 11.0123 16.7475C9.88004 15.5398 8.12507 15.1462 6.58545 15.7545C5.04583 16.3628 4.03386 17.8497 4.03279 19.5051C4.02926 20.6975 4.55712 21.8294 5.47282 22.593C5.05605 23.7752 4.74807 24.9929 4.55271 26.2311C4.44435 27.2148 3.9783 28.1244 3.24316 28.787C3.23576 28.7944 3.22769 28.8011 3.22097 28.8085L3.08645 28.9383C2.26991 29.734 1.3424 30.6373 1.3424 33.3337C1.35566 34.1205 1.55528 34.8929 1.92487 35.5876C0.713423 35.836 -0.113043 36.9615 0.0126037 38.1918C0.13825 39.422 1.17518 40.3572 2.41183 40.3556H11.3372C11.5159 40.3533 11.6942 40.3374 11.8706 40.3079C12.4033 40.3388 12.9595 40.3556 13.5433 40.3556C14.8548 40.3572 16.1649 40.2673 17.4639 40.0866C17.8003 40.2617 18.1736 40.3539 18.5528 40.3556H38.3171C39.436 40.3594 40.3467 39.4567 40.353 38.3378V36.32C40.3506 35.736 40.0925 35.1822 39.6468 34.8047C39.5867 33.2446 39.1464 31.7228 38.3642 30.3716C39.5939 29.6489 40.3503 28.3301 40.353 26.9037ZM32.7372 27.5985C34.1794 28.066 35.4721 28.9073 36.4836 30.0366C36.6118 30.1813 36.73 30.3346 36.8374 30.4954C37.6365 31.6177 38.1259 32.9307 38.2565 34.3023H36.953C35.8944 34.3023 34.0555 34.798 33.6419 38.1172C33.6068 38.4191 33.643 38.725 33.7475 39.0104H30.5412C31.2294 38.2735 31.6113 37.3022 31.6093 36.2938C31.6012 33.6276 30.3724 32.6968 29.2343 32.4055C29.4696 31.6776 29.5901 30.9174 29.5915 30.1523C29.6069 29.0558 29.5568 27.9593 29.4415 26.8687C30.5636 26.9896 31.6689 27.2343 32.7372 27.5985ZM25.5559 16.8147C26.861 16.812 28.0493 17.566 28.6026 18.748C29.1559 19.9299 28.9739 21.3255 28.136 22.326C27.0856 20.2801 25.3688 18.6536 23.2691 17.7153C23.8894 17.1357 24.7069 16.8137 25.5559 16.8147ZM5.37798 19.5051C5.37524 18.4872 5.94879 17.5554 6.85884 17.0993C7.76889 16.6432 8.85866 16.7414 9.67252 17.3528C8.08586 18.2509 6.81687 19.6191 6.04049 21.2687C5.61263 20.7809 5.37711 20.154 5.37798 19.5051ZM5.87974 26.4571C5.99274 25.7879 6.13062 25.0964 6.31088 24.409C7.57164 23.9757 8.96936 24.3296 9.87194 25.3107C10.7745 26.2919 11.0108 27.7142 10.474 28.9345C9.93713 30.1548 8.72893 30.9417 7.39577 30.9393C6.2413 30.9353 5.16881 30.342 4.55203 29.3661C5.28254 28.5556 5.74606 27.54 5.87974 26.4571ZM2.41183 39.0104C1.8455 39.0087 1.37886 38.5655 1.34798 38C1.31709 37.4345 1.7327 36.9431 2.29547 36.8796L2.41587 36.8642C2.52416 36.8507 2.64724 36.8299 2.76225 36.8144C3.61933 37.767 4.67754 38.5172 5.86024 39.0104H2.41183ZM2.6876 33.3337C2.6876 31.6347 3.06694 30.9272 3.59964 30.3393C4.90679 32.1343 7.29134 32.7704 9.31885 31.865C11.3464 30.9595 12.4643 28.7593 12.0002 26.5879C11.536 24.4164 9.61627 22.8655 7.39577 22.8681C7.19172 22.8695 6.98796 22.8839 6.78573 22.9112C7.72737 20.4279 9.43845 18.246 12.8573 17.6588C13.2129 17.5973 13.4566 17.2661 13.4095 16.9082C13.3803 16.6803 13.332 16.4553 13.2649 16.2356C13.6401 16.282 14.0003 16.4119 14.3188 16.6156C14.5109 16.8077 14.7997 16.8653 15.0508 16.7618C15.3019 16.6582 15.4661 16.4138 15.4669 16.1421V15.7211C16.4309 16.1145 17.2917 16.7238 17.9831 17.5021C18.0896 17.6225 18.2356 17.7007 18.3948 17.7227C27.076 18.9314 28.2463 24.6841 28.2463 30.1523C28.2424 30.8851 28.1056 31.6112 27.8427 32.2952C26.5832 32.2786 25.3508 32.662 24.323 33.3902C23.8569 33.672 23.3276 33.9915 22.5635 34.3729C21.209 35.0005 19.7591 35.3969 18.2737 35.5459C17.5236 35.6319 16.8573 36.0649 16.4741 36.7154C16.0908 37.3659 16.0349 38.1586 16.3232 38.8564C15.3998 38.9549 14.4719 39.0063 13.5433 39.0104C4.95694 39.0104 2.6876 35.297 2.6876 33.3337ZM24.8833 39.0104H18.5528C17.9878 39.0092 17.5215 38.5681 17.4889 38.004C17.4563 37.4399 17.8686 36.948 18.4297 36.8817C20.0704 36.7149 21.6715 36.2739 23.1662 35.5768C23.978 35.1733 24.5557 34.8215 25.0198 34.5417C25.9511 33.8605 27.0962 33.5368 28.2463 33.6297C29.1092 33.6297 30.2573 33.9061 30.2641 36.2978C30.2652 37.0054 29.9825 37.6838 29.4792 38.1811C28.9483 38.7107 28.2294 39.0089 27.4795 39.0104H24.8833ZM39.0078 38.3378C39.0023 38.7141 38.6933 39.0149 38.3171 39.0104H35.667C35.463 39.0112 35.2685 38.9242 35.133 38.7717C35.0129 38.6391 34.956 38.461 34.977 38.2834C35.3085 35.6474 36.5455 35.6474 36.953 35.6474H38.3171C38.6933 35.643 39.0023 35.9438 39.0078 36.32V38.3378ZM37.5954 29.2706C37.5631 29.2322 37.5348 29.1959 37.5005 29.1562C36.4541 27.984 35.1384 27.0838 33.6667 26.5331C33.842 25.2785 34.8703 24.3171 36.1338 24.2265C37.3973 24.1358 38.5523 24.9406 38.9048 26.1573C39.2574 27.374 38.7116 28.6716 37.5954 29.2706Z" fill="black"/>
<path d="M23.5381 28.9216C23.5381 26.3213 21.4301 24.2134 18.8299 24.2134C16.2296 24.2134 14.1217 26.3213 14.1217 28.9216C14.1217 31.5218 16.2296 33.6297 18.8299 33.6297C21.4289 33.6268 23.5351 31.5206 23.5381 28.9216ZM15.4669 28.9216C15.4669 27.0642 16.9726 25.5586 18.8299 25.5586C20.6872 25.5586 22.1929 27.0642 22.1929 28.9216C22.1929 30.7789 20.6872 32.2845 18.8299 32.2845C16.9735 32.2823 15.4691 30.778 15.4669 28.9216Z" fill="black"/>
<path d="M7.39574 28.9219H8.74094C9.1124 28.9219 9.41353 28.6207 9.41353 28.2493C9.41353 27.8778 9.1124 27.5767 8.74094 27.5767H7.39574C7.02428 27.5767 6.72314 27.8778 6.72314 28.2493C6.72314 28.6207 7.02428 28.9219 7.39574 28.9219Z" fill="black"/>
<path d="M19.5025 28.9216C19.5025 28.5502 19.2014 28.249 18.8299 28.249H17.4847C17.1133 28.249 16.8121 28.5502 16.8121 28.9216C16.8121 29.2931 17.1133 29.5942 17.4847 29.5942H18.8299C19.2014 29.5942 19.5025 29.2931 19.5025 28.9216Z" fill="black"/>
<path d="M12.4758 31.6829L11.5638 32.1389L11.2342 31.8094C10.9703 31.5545 10.5508 31.5581 10.2914 31.8176C10.0319 32.077 10.0283 32.4965 10.2832 32.7604L10.9558 33.433C11.0819 33.5592 11.2529 33.6301 11.4313 33.6301C11.5353 33.631 11.6382 33.608 11.7319 33.5628L13.0771 32.8902C13.4096 32.7242 13.5445 32.3201 13.3785 31.9876C13.2124 31.6551 12.8083 31.5202 12.4758 31.6863V31.6829Z" fill="black"/>
<path d="M17.5983 12.1021C17.882 12.9108 18.6455 13.452 19.5025 13.452H26.2284C27.3428 13.452 28.2462 12.5486 28.2462 11.4342C28.2462 10.3198 27.3428 9.41642 26.2284 9.41642H25.2545L27.4889 7.62866C28.1577 7.09326 28.4155 6.1939 28.1319 5.38549C27.8483 4.57708 27.0851 4.03589 26.2284 4.03564H19.5025C18.3881 4.03564 17.4847 4.93904 17.4847 6.05344C17.4847 7.16783 18.3881 8.07123 19.5025 8.07123H20.4764L18.242 9.85899C17.573 10.3942 17.3149 11.2936 17.5983 12.1021ZM19.0821 10.9089L22.8137 7.92393C23.0366 7.74564 23.1227 7.44602 23.0285 7.17655C22.9342 6.90708 22.6801 6.72647 22.3946 6.72603H19.5025C19.131 6.72603 18.8299 6.4249 18.8299 6.05344C18.8299 5.68197 19.131 5.38084 19.5025 5.38084H26.2284C26.5142 5.3807 26.7688 5.56111 26.8634 5.83072C26.958 6.10033 26.872 6.40029 26.6488 6.57873L22.9172 9.56372C22.6943 9.74201 22.6082 10.0416 22.7024 10.3111C22.7967 10.5806 23.0508 10.7612 23.3363 10.7616H26.2284C26.5999 10.7616 26.901 11.0627 26.901 11.4342C26.901 11.8057 26.5999 12.1068 26.2284 12.1068H19.5025C19.2167 12.1069 18.9621 11.9265 18.8675 11.6569C18.7729 11.3873 18.8589 11.0874 19.0821 10.9089Z" fill="black"/>
<path d="M38.3352 5.38077H37.3613L39.5956 3.59301C40.2644 3.05761 40.5222 2.15826 40.2387 1.34985C39.9551 0.541439 39.1919 0.000240669 38.3352 0H31.6092C30.4948 0 29.5914 0.903395 29.5914 2.01779C29.5914 3.13219 30.4948 4.03558 31.6092 4.03558H32.5831L30.3488 5.82334C29.68 6.35874 29.4222 7.2581 29.7058 8.06651C29.9894 8.87492 30.7525 9.41611 31.6092 9.41636H38.3352C39.4496 9.41636 40.353 8.51296 40.353 7.39856C40.353 6.28417 39.4496 5.38077 38.3352 5.38077ZM38.3352 8.07116H31.6092C31.3235 8.0713 31.0689 7.89089 30.9743 7.62128C30.8796 7.35167 30.9657 7.05171 31.1888 6.87327L34.9204 3.88828C35.1434 3.70999 35.2295 3.41037 35.1352 3.1409C35.041 2.87143 34.7869 2.69082 34.5014 2.69039H31.6092C31.2378 2.69039 30.9366 2.38926 30.9366 2.01779C30.9366 1.64633 31.2378 1.34519 31.6092 1.34519H38.3352C38.6209 1.34506 38.8755 1.52547 38.9702 1.79507C39.0648 2.06468 38.9787 2.36464 38.7556 2.54309L35.024 5.52807C34.801 5.70636 34.7149 6.00598 34.8092 6.27545C34.9034 6.54492 35.1575 6.72553 35.443 6.72597H38.3352C38.7067 6.72597 39.0078 7.0271 39.0078 7.39856C39.0078 7.77003 38.7067 8.07116 38.3352 8.07116Z" fill="black"/>
</svg>
