<svg width="18" height="18" viewBox="0 0 18 18" fill="none" xmlns="http://www.w3.org/2000/svg">
<path d="M14.2262 11.1502C13.8577 10.7665 13.4132 10.5614 12.9421 10.5614C12.4748 10.5614 12.0266 10.7627 11.6429 11.1464L10.4424 12.3431C10.3436 12.2899 10.2448 12.2405 10.1498 12.1912C10.0131 12.1228 9.88391 12.0582 9.77374 11.9898C8.64923 11.2756 7.62729 10.3448 6.64714 9.14054C6.17226 8.54029 5.85315 8.03502 5.6214 7.52215C5.93292 7.23722 6.22165 6.9409 6.50278 6.65597C6.60915 6.5496 6.71552 6.43943 6.8219 6.33306C7.61969 5.53526 7.61969 4.50193 6.8219 3.70413L5.78476 2.667C5.66699 2.54923 5.54542 2.42766 5.43145 2.30609C5.20351 2.07055 4.96417 1.82741 4.71724 1.59947C4.34873 1.23477 3.90805 1.04102 3.44456 1.04102C2.98108 1.04102 2.5328 1.23477 2.1529 1.59947C2.1491 1.60327 2.1491 1.60327 2.1453 1.60707L0.853631 2.91014C0.367356 3.39641 0.0900276 3.98906 0.0292433 4.67668C-0.0619333 5.786 0.264783 6.81933 0.515518 7.49556C1.13096 9.15573 2.05032 10.6943 3.42177 12.3431C5.08574 14.33 7.08783 15.899 9.37484 17.0045C10.2486 17.4186 11.4149 17.9087 12.718 17.9923C12.7978 17.9961 12.8813 17.9999 12.9573 17.9999C13.8349 17.9999 14.5719 17.6845 15.1494 17.0577C15.1532 17.0501 15.1608 17.0463 15.1645 17.0387C15.3621 16.7994 15.59 16.5828 15.8294 16.3511C15.9927 16.1953 16.1599 16.032 16.3233 15.861C16.6994 15.4697 16.8969 15.0138 16.8969 14.5465C16.8969 14.0755 16.6956 13.6234 16.3119 13.2435L14.2262 11.1502ZM15.5862 15.1506C15.5824 15.1506 15.5824 15.1544 15.5862 15.1506C15.4381 15.3102 15.2861 15.4545 15.1228 15.6141C14.8758 15.8496 14.6251 16.0965 14.3895 16.3739C14.0058 16.7842 13.5538 16.9779 12.9611 16.9779C12.9041 16.9779 12.8433 16.9779 12.7864 16.9741C11.6581 16.9019 10.6095 16.4613 9.82312 16.0852C7.67288 15.0442 5.78476 13.5664 4.21577 11.6935C2.9203 10.1321 2.05412 8.68845 1.48047 7.13845C1.12716 6.19249 0.997994 5.45548 1.05498 4.76026C1.09297 4.31577 1.26393 3.94727 1.57924 3.63195L2.87471 2.33648C3.06086 2.16173 3.25841 2.06675 3.45216 2.06675C3.6915 2.06675 3.88525 2.21112 4.00682 2.33268C4.01062 2.33648 4.01442 2.34028 4.01822 2.34408C4.24996 2.56063 4.4703 2.78477 4.70204 3.02411C4.81981 3.14568 4.94138 3.26724 5.06295 3.39261L6.10008 4.42975C6.50278 4.83244 6.50278 5.20475 6.10008 5.60744C5.98991 5.71762 5.88354 5.82779 5.77337 5.93416C5.45425 6.26087 5.15033 6.5648 4.81981 6.86112C4.81221 6.86872 4.80462 6.87252 4.80082 6.88012C4.4741 7.20683 4.53488 7.52595 4.60327 7.74249C4.60707 7.75389 4.61086 7.76529 4.61466 7.77669C4.88439 8.43012 5.2643 9.04556 5.84175 9.77877L5.84555 9.78257C6.89408 11.0742 7.99959 12.081 9.21908 12.8522C9.37484 12.951 9.5344 13.0307 9.68636 13.1067C9.82312 13.1751 9.95229 13.2397 10.0625 13.3081C10.0777 13.3157 10.0929 13.3271 10.1081 13.3347C10.2372 13.3992 10.3588 13.4296 10.4842 13.4296C10.7995 13.4296 10.997 13.2321 11.0616 13.1675L12.3609 11.8682C12.49 11.7391 12.6952 11.5833 12.9345 11.5833C13.1701 11.5833 13.3638 11.7315 13.4816 11.8606C13.4854 11.8644 13.4854 11.8644 13.4892 11.8682L15.5824 13.9615C15.9737 14.349 15.9737 14.7479 15.5862 15.1506Z" fill="#1BB7A5"/>
<path d="M9.72837 4.28157C10.7237 4.44872 11.6279 4.9198 12.3497 5.64162C13.0715 6.36343 13.5388 7.2676 13.7097 8.26294C13.7515 8.51368 13.9681 8.68843 14.215 8.68843C14.2454 8.68843 14.272 8.68463 14.3024 8.68084C14.5835 8.63525 14.7697 8.36932 14.7241 8.08819C14.5189 6.8839 13.9491 5.78598 13.0791 4.916C12.2091 4.04603 11.1112 3.47617 9.90692 3.27103C9.6258 3.22544 9.36366 3.41159 9.31428 3.68892C9.26489 3.96625 9.44724 4.23598 9.72837 4.28157Z" fill="#1BB7A5"/>
<path d="M17.9796 7.94018C17.6415 5.95709 16.7069 4.15255 15.2709 2.71652C13.8349 1.28049 12.0303 0.345932 10.0472 0.00781895C9.76992 -0.0415683 9.50779 0.148383 9.4584 0.425711C9.41281 0.706839 9.59896 0.968972 9.88009 1.01836C11.6504 1.31848 13.265 2.15807 14.5491 3.43834C15.8332 4.72241 16.6689 6.33699 16.9691 8.10734C17.0109 8.35807 17.2274 8.53283 17.4743 8.53283C17.5047 8.53283 17.5313 8.52903 17.5617 8.52523C17.839 8.48344 18.029 8.21751 17.9796 7.94018Z" fill="#1BB7A5"/>
</svg>
