<svg width="24" height="25" viewBox="0 0 24 25" fill="none" xmlns="http://www.w3.org/2000/svg">
<g clip-path="url(#clip0)">
<rect width="24" height="24" transform="translate(0 0.5)" fill="white"/>
<path d="M12 0.5C5.37266 0.5 0 5.87266 0 12.5C0 19.1273 5.37266 24.5 12 24.5C12.3615 24.5 12.7217 24.4838 13.0801 24.4516C13.4133 24.4217 13.7436 24.376 14.0713 24.3188L14.1973 24.2965C20.2904 23.1594 24.5152 17.5689 23.9453 11.3967C23.3754 5.22441 18.1984 0.501953 12 0.5V0.5ZM11.0359 23.6576H11.0076C10.6965 23.6301 10.3877 23.5885 10.0816 23.5352C10.0641 23.532 10.0465 23.5301 10.0293 23.5268C9.73008 23.4732 9.43398 23.4068 9.14082 23.3293L9.06992 23.3111C8.78398 23.2336 8.50117 23.1436 8.22246 23.0436C8.19355 23.0332 8.16445 23.024 8.13555 23.0133C7.8623 22.9129 7.59395 22.8004 7.32969 22.6787C7.29688 22.6641 7.26406 22.65 7.23125 22.6344C6.97207 22.5145 6.71797 22.3793 6.46875 22.2371C6.43359 22.2172 6.39805 22.1973 6.36289 22.1775C6.11758 22.0344 5.87793 21.8809 5.64277 21.7188C5.60723 21.6939 5.57129 21.6699 5.53594 21.6451C5.30488 21.4813 5.07969 21.3072 4.86035 21.1252L4.8 21.0725V17.7C4.80293 15.2711 6.77109 13.3029 9.2 13.3H14.8C17.2289 13.3029 19.1971 15.2711 19.2 17.7V21.0729L19.1469 21.1172C18.9232 21.3039 18.6938 21.4805 18.458 21.6473C18.4268 21.6691 18.3951 21.69 18.3641 21.7115C18.1262 21.8768 17.8824 22.0322 17.6328 22.1783C17.6016 22.1965 17.5695 22.2137 17.5385 22.2316C17.2855 22.3756 17.0283 22.5115 16.766 22.634C16.7359 22.648 16.7057 22.6611 16.6752 22.674C16.4088 22.7969 16.1381 22.91 15.8629 23.0111C15.8355 23.0213 15.808 23.0301 15.7828 23.0396C15.5027 23.14 15.2188 23.2309 14.9313 23.3088L14.8623 23.326C14.5688 23.4035 14.2725 23.4703 13.9729 23.524C13.9557 23.5271 13.9385 23.5293 13.9213 23.532C13.6148 23.5855 13.3057 23.6271 12.9943 23.6549H12.966C12.6461 23.6824 12.326 23.6973 12.002 23.6973C11.6779 23.6973 11.3553 23.6852 11.0359 23.6576ZM20 20.3313V17.7C19.9967 14.8295 17.6705 12.5033 14.8 12.5H9.2C6.32949 12.5033 4.00332 14.8295 4 17.7V20.3309C-0.308203 15.9338 -0.260156 8.88398 4.10742 4.5459C8.475 0.208008 15.525 0.208008 19.8926 4.5459C24.2602 8.88398 24.3082 15.9338 20 20.3309V20.3313Z" fill="#5D5D5D"/>
<path d="M12.0002 3.7002C9.791 3.7002 8.00018 5.49102 8.00018 7.7002C8.00018 9.90938 9.791 11.7002 12.0002 11.7002C14.2094 11.7002 16.0002 9.90938 16.0002 7.7002C15.9978 5.49199 14.2084 3.70254 12.0002 3.7002ZM12.0002 10.9002C10.2328 10.9002 8.80018 9.46758 8.80018 7.7002C8.80018 5.93281 10.2328 4.5002 12.0002 4.5002C13.7676 4.5002 15.2002 5.93281 15.2002 7.7002C15.1982 9.4666 13.7666 10.8982 12.0002 10.9002Z" fill="#5D5D5D"/>
</g>
<defs>
<clipPath id="clip0">
<rect width="24" height="24" fill="white" transform="translate(0 0.5)"/>
</clipPath>
</defs>
</svg>
