<?xml version="1.0" encoding="utf-8"?>
<!-- Generator: Adobe Illustrator 24.1.2, SVG Export Plug-In . SVG Version: 6.00 Build 0)  -->
<svg version="1.1" id="Capa_1" xmlns="http://www.w3.org/2000/svg" xmlns:xlink="http://www.w3.org/1999/xlink" x="0px" y="0px"
	 viewBox="0 0 512 512" style="enable-background:new 0 0 512 512;" xml:space="preserve">
<g>
	<path d="M256,392c-33.1,0-60,26.9-60,60s26.9,60,60,60s60-26.9,60-60S289.1,392,256,392z M256,482c-16.5,0-30-13.5-30-30
		s13.5-30,30-30s30,13.5,30,30S272.5,482,256,482z"/>
	<path d="M256,0c-86,0-156,70-156,156v15h120v-15c0-19.9,16.1-36,36-36s36,16.1,36,36c0,10.6-4.6,20.6-12.7,27.5L196,254.3V362h120
		v-52.3l41-34.8c35-29.7,55-73.1,55-118.9C412,70,342,0,256,0z M337.5,252L286,295.9V332h-60v-63.9l72.7-61.8
		c14.8-12.6,23.3-30.9,23.3-50.3c0-36.4-29.6-66-66-66c-31.2,0-57.5,21.8-64.3,51h-60.8C138.3,78.6,191.6,30,256,30
		c69.5,0,126,56.5,126,126C382,193,365.8,228,337.5,252z"/>
</g>
</svg>
