<svg width="24" height="25" viewBox="0 0 24 25" fill="none" xmlns="http://www.w3.org/2000/svg">
<g clip-path="url(#clip0)">
<path d="M16.4085 10.4981C16.4028 10.4753 17.0909 10.0169 17.663 9.64024C17.9867 9.42719 17.9452 8.94021 17.5904 8.78458L16.6587 8.37597C16.3437 8.23778 16.2662 7.82603 16.5094 7.5828L17.3573 6.73497C17.6328 6.45939 17.4908 5.98792 17.1089 5.91039L15.8023 5.64527C15.5479 5.59366 15.3783 5.3522 15.4159 5.09538L15.6251 3.66906C15.6768 3.31647 15.3459 3.02889 15.004 3.12916L13.81 3.47931C13.5141 3.56613 13.2127 3.36044 13.1857 3.05317L13.0752 1.79809C13.0417 1.41798 12.605 1.22111 12.298 1.44775L10.8689 2.50281C10.6964 2.63022 10.4609 2.63022 10.2884 2.50281L8.85929 1.4478C8.55231 1.22116 8.11562 1.41803 8.08215 1.79814L7.97167 3.05322C7.94462 3.36044 7.64326 3.56613 7.34729 3.47936L6.15334 3.1292C5.81139 3.02894 5.48054 3.31652 5.53224 3.66911L5.7414 5.09542C5.77904 5.35225 5.6094 5.5937 5.35501 5.64531L4.04846 5.91044C3.66653 5.98792 3.52449 6.45944 3.80007 6.73502L4.6479 7.58285C4.89114 7.82608 4.81365 8.23783 4.4986 8.37602L3.56696 8.78463C3.21212 8.94025 3.17068 9.42724 3.49431 9.64028C4.06646 10.017 4.75454 10.4753 4.74882 10.4982L4.51571 11.4306C4.45168 11.6868 4.59367 11.9495 4.84309 12.0362L6.1809 12.5015C6.19754 12.5073 6.21385 12.514 6.22974 12.5216L7.12318 12.9452C7.18862 12.9762 7.26015 12.9924 7.33257 12.9924H10.5787H13.8248C13.8972 12.9924 13.9687 12.9763 14.0342 12.9452L14.9276 12.5216C14.9435 12.514 14.9598 12.5073 14.9764 12.5015L16.3142 12.0362C16.5636 11.9494 16.7056 11.6868 16.6416 11.4306L16.4085 10.4981Z" fill="white"/>
<path d="M14.9207 18.4774L13.2691 16.3722C12.9619 16.3323 12.7321 16.071 12.7321 15.7614V12.9443H8.42785V15.7614C8.42785 16.071 8.19793 16.3323 7.89085 16.3722C7.58377 16.412 6.23926 18.4774 6.23926 18.4774H14.9207Z" fill="#FFDDCE"/>
<path d="M14.6579 9.01546C14.5141 9.01546 14.3976 8.89888 14.3976 8.75512V8.70974V7.97891C14.3976 6.94701 13.974 5.94712 13.192 5.2738C12.579 4.7459 11.7172 4.28516 10.5788 4.27246C9.44047 4.28516 8.57872 4.7459 7.96564 5.2738C7.18367 5.94712 6.76006 6.94701 6.76006 7.97891V8.70974V8.75512C6.76006 8.89893 6.64348 9.01546 6.49972 9.01546C6.11802 9.01546 5.80859 9.32488 5.80859 9.70659V10.4725C5.80859 10.8542 6.11802 11.1636 6.49972 11.1636C6.64264 11.1636 6.76231 11.2724 6.77492 11.4148C6.85569 12.3263 7.26795 13.1871 7.96569 13.7878C8.57877 14.3157 9.44052 14.7764 10.5789 14.7891C11.7172 14.7764 12.579 14.3157 13.1921 13.7878C13.8898 13.1871 14.3021 12.3262 14.3828 11.4148C14.3954 11.2724 14.5151 11.1636 14.658 11.1636C15.0397 11.1636 15.3492 10.8542 15.3492 10.4725V9.70659C15.3491 9.32488 15.0396 9.01546 14.6579 9.01546V9.01546Z" fill="#FFDDCE"/>
<path d="M14.6587 9.01548C14.5149 9.01548 14.3983 8.89891 14.3983 8.75509V8.70972V7.97889C14.3983 6.94698 13.9747 5.94709 13.1927 5.27378C12.9812 5.09163 12.7393 4.91809 12.4674 4.76758L12.4667 11.1636C12.4451 12.1667 12.0236 13.1321 11.2621 13.7878C10.8361 14.1546 10.2897 14.4886 9.61426 14.6628C9.91088 14.7393 10.2322 14.7853 10.5796 14.7892C11.7179 14.7765 12.5797 14.3157 13.1927 13.7878C13.8904 13.1871 14.3027 12.3263 14.3835 11.4148C14.3961 11.2724 14.5158 11.1636 14.6587 11.1636C15.0404 11.1636 15.3498 10.8542 15.3498 10.4725V9.70656C15.3498 9.32491 15.0404 9.01548 14.6587 9.01548Z" fill="#FFCBBE"/>
<path d="M17.0294 17.2108C16.0452 16.7726 14.1845 16.4901 13.2685 16.3712C13.084 16.3472 12.9278 16.243 12.8321 16.0967C12.2559 16.498 11.5102 16.8081 10.5794 16.8185C9.64855 16.8081 8.90291 16.498 8.32667 16.0967C8.231 16.243 8.07481 16.3472 7.89027 16.3712C6.97428 16.4901 5.11363 16.7726 4.12934 17.2108C3.04817 17.6922 2.35156 18.7649 2.35156 19.9484V23.6181C2.35156 24.1865 2.81234 24.6473 3.3808 24.6473H17.778C18.3464 24.6473 18.8073 24.1866 18.8073 23.6181V19.9484C18.8072 18.7649 18.1106 17.6922 17.0294 17.2108Z" fill="#1BB7A5"/>
<path d="M17.0292 17.2107C16.0449 16.7725 14.1843 16.49 13.2683 16.3711C13.1335 16.3536 13.0139 16.2933 12.9219 16.2051V24.6473H17.7778C18.3462 24.6473 18.8069 24.1865 18.8069 23.618V19.9483C18.807 18.7648 18.1104 17.6921 17.0292 17.2107Z" fill="white"/>
<path d="M17.0292 17.2107C16.0449 16.7725 14.1843 16.49 13.2683 16.3711C13.1335 16.3536 13.0139 16.2933 12.9219 16.2051V18.8652C13.6265 19.0057 14.3404 19.1862 14.834 19.406C15.9151 19.8874 16.6117 20.96 16.6117 22.1435V24.6473H17.7778C18.3462 24.6473 18.807 24.1865 18.807 23.618V19.9483C18.807 18.7648 18.1104 17.6921 17.0292 17.2107V17.2107Z" fill="#DFEAEF"/>
<path d="M7.89027 16.3716C6.97428 16.4905 5.11363 16.773 4.12934 17.2112C3.04817 17.6926 2.35156 18.7653 2.35156 19.9488V23.6185C2.35156 24.1869 2.81234 24.6477 3.38075 24.6477H8.22458V16.2168C8.1343 16.2989 8.01922 16.3548 7.89027 16.3716V16.3716Z" fill="white"/>
<path d="M14.9077 17.3639C15.1515 17.0071 15.0615 16.5204 14.7061 16.2744L12.7314 14.9072V15.7619C12.7314 15.8339 12.7439 15.9033 12.7668 15.9679C12.8594 16.2286 12.9204 16.4994 12.9209 16.776L12.9288 23.1614L14.153 20.8574C14.2012 20.7322 14.2716 20.6167 14.3608 20.5166L14.8236 19.9969C15.1649 19.6137 15.2004 19.0469 14.9096 18.6241C14.6488 18.2448 14.648 17.7441 14.9077 17.3639V17.3639Z" fill="white"/>
<path d="M8.42648 15.7624V14.8984L6.43973 16.275C6.08441 16.521 5.99437 17.0077 6.23816 17.3645C6.4979 17.7446 6.49715 18.2454 6.23624 18.6247C5.94548 19.0475 5.98096 19.6143 6.32226 19.9975L6.7851 20.5172C6.87431 20.6173 6.94471 20.7327 6.9929 20.8579L8.21704 23.162L8.22496 16.7767C8.22553 16.5001 8.28646 16.2595 8.37904 15.9989C8.40656 15.9214 8.42648 15.8798 8.42648 15.7624V15.7624Z" fill="white"/>
<path d="M13.2643 7.74707H7.89577C7.26891 7.74707 6.76074 8.25524 6.76074 8.8821V9.09402C6.76074 9.72088 7.26891 10.2291 7.89577 10.2291H9.26893C9.5094 10.2291 9.73327 10.1064 9.86269 9.90369L10.1119 9.51332C10.3303 9.17137 10.8297 9.17137 11.048 9.51332L11.2973 9.90369C11.4267 10.1064 11.6506 10.2291 11.891 10.2291H13.2642C13.891 10.2291 14.3992 9.72088 14.3992 9.09402V8.8821C14.3993 8.25524 13.8911 7.74707 13.2643 7.74707Z" fill="#D1ECF9"/>
<path d="M19.7708 20.0706V18.7451H17.8432V20.0706C17.8432 20.1952 17.8068 20.3171 17.7383 20.4212L15.7453 23.452C15.4081 23.9648 15.7759 24.647 16.3897 24.647H21.2243C21.8381 24.647 22.206 23.9648 21.8687 23.452L19.8757 20.4212C19.8073 20.3171 19.7708 20.1952 19.7708 20.0706V20.0706Z" fill="#FBFDFF"/>
<path d="M19.9032 19.1897H17.7122C17.5422 19.1897 17.4043 19.0519 17.4043 18.8818V18.2824C17.4043 18.1124 17.5421 17.9746 17.7122 17.9746H19.9032C20.0732 17.9746 20.211 18.1124 20.211 18.2824V18.8818C20.211 19.0519 20.0732 19.1897 19.9032 19.1897Z" fill="#D1ECF9"/>
<path d="M21.2243 24.6473C21.8381 24.6473 22.206 23.9651 21.8687 23.4522L20.5904 21.5082L20.5901 21.5082C20.2913 21.5082 20.3007 21.6553 20.0019 21.6553C19.7032 21.6553 19.7032 21.5078 19.4044 21.5078C19.1056 21.5078 19.1056 21.6553 18.8069 21.6553C18.5082 21.6553 18.5082 21.5078 18.2094 21.5078C17.9107 21.5078 17.9107 21.6553 17.6119 21.6553C17.3132 21.6553 17.3226 21.5078 17.0239 21.5078L15.7453 23.4522C15.4081 23.9651 15.7759 24.6472 16.3897 24.6472H21.2243V24.6473Z" fill="#51006F"/>
<path d="M17.6937 24.6473H21.2249C21.8387 24.6473 22.2066 23.9651 21.8693 23.4522L20.591 21.5082L20.5907 21.5082C20.292 21.5082 20.3013 21.6553 20.0025 21.6553C19.7038 21.6553 19.7038 21.5078 19.405 21.5078C19.1062 21.5078 19.1062 21.6553 18.8075 21.6553C18.5088 21.6553 18.5088 21.5078 18.21 21.5078C17.9113 21.5078 17.9113 21.6553 17.6125 21.6553C17.3262 21.6553 17.3229 21.5198 17.0601 21.5086L18.3382 23.4522C18.6754 23.9651 18.3075 24.6473 17.6937 24.6473V24.6473Z" fill="#51006F"/>
<path d="M13.2638 7.74707H12.4666L12.4663 10.2291H13.2639C13.8907 10.2291 14.3989 9.72088 14.3989 9.09402V8.8821C14.3989 8.25524 13.8907 7.74707 13.2638 7.74707V7.74707Z" fill="#B1E4F9"/>
<path d="M22.0588 23.1024C21.9521 22.9401 21.7341 22.8951 21.5719 23.0017C21.4096 23.1084 21.3646 23.3264 21.4712 23.4886C21.5076 23.5715 21.7515 23.7839 21.5938 24.0764C21.5194 24.2144 21.3813 24.2969 21.2244 24.2969H16.3899C16.0554 24.2969 15.8555 23.926 16.0392 23.6466L17.1824 21.908C17.2699 21.9518 17.3983 22.008 17.6121 22.008C17.8435 22.008 17.9777 21.9418 18.0665 21.898C18.1712 21.8462 18.2477 21.8461 18.3527 21.898C18.6531 22.0463 18.9608 22.0464 19.2614 21.898C19.3662 21.8462 19.4427 21.8461 19.5478 21.898C19.6365 21.9418 19.7707 22.008 20.0021 22.008C20.2161 22.008 20.3446 21.9518 20.432 21.9081L20.5663 22.1123C20.6338 22.215 20.7459 22.2707 20.8603 22.2707C20.9266 22.2707 20.9936 22.252 21.0531 22.2129C21.2154 22.1062 21.2604 21.8882 21.1537 21.726L20.1696 20.2295C20.1388 20.1826 20.1225 20.1281 20.1225 20.072V19.503C20.3781 19.4122 20.5621 19.1685 20.5621 18.8821V18.2827C20.5621 17.9191 20.2663 17.6233 19.9026 17.6233H18.2182C17.9195 17.3134 17.5685 17.0672 17.1723 16.8907C16.7259 16.692 16.0743 16.5055 15.2338 16.3359C15.1533 16.2006 15.0436 16.0801 14.9062 15.985L13.083 14.7227V14.3194C13.4857 14.0301 13.8073 13.7174 14.0858 13.3022C14.1197 13.2911 14.153 13.2787 14.1854 13.2633C15.2442 12.7616 14.8173 12.922 16.4304 12.3687C16.8545 12.2212 17.0922 11.7814 16.9833 11.3458L16.8063 10.6377C16.9598 10.5308 17.2622 10.3259 17.857 9.93433C18.4126 9.56851 18.3417 8.73044 17.7322 8.46311L16.8006 8.0545C16.712 8.01569 16.6902 7.90037 16.7587 7.83189L17.6066 6.98406C18.0799 6.51067 17.8353 5.69945 17.1794 5.56637L15.8729 5.30125C15.8015 5.28676 15.7539 5.21898 15.7644 5.14694L15.9736 3.72067C16.0626 3.11439 15.493 2.61995 14.9057 2.7924L13.7117 3.14256C13.6283 3.16694 13.544 3.10909 13.5365 3.02294L13.426 1.76786C13.3684 1.11409 12.618 0.775654 12.0898 1.16556L10.6607 2.22058C10.612 2.25653 10.5465 2.25658 10.4978 2.22058L9.06875 1.16551C8.54099 0.775795 7.79024 1.11372 7.73263 1.76781L7.62214 3.02294C7.61722 3.07919 7.58286 3.11054 7.56285 3.12419C7.54283 3.13783 7.5012 3.15831 7.44688 3.14251L6.25292 2.79236C5.66483 2.61981 5.09624 3.11486 5.18506 3.72062L5.39422 5.14689C5.40481 5.21898 5.35714 5.28676 5.2858 5.30125L3.97925 5.56637C3.32328 5.69945 3.07888 6.51076 3.55217 6.98406L4.4 7.83189C4.46853 7.90042 4.44664 8.01569 4.35809 8.05454L3.42645 8.46315C2.81722 8.73039 2.74588 9.56847 3.30172 9.93437C3.89656 10.326 4.19886 10.5308 4.35242 10.6377L4.17533 11.3458C4.06644 11.7814 4.30409 12.2212 4.72827 12.3687C6.27425 12.9069 5.92358 12.7541 6.97306 13.2633C7.0055 13.2787 7.03892 13.2911 7.07277 13.3022C7.35125 13.7173 7.67286 14.0301 8.07566 14.3194V14.7134L6.24031 15.985C6.10203 16.0808 5.99178 16.2024 5.91106 16.3388C5.07725 16.5076 4.43023 16.6931 3.98628 16.8908C2.77962 17.428 2 18.6287 2 19.9495V23.6192C2 24.3806 2.61941 25 3.38075 25H21.2245C21.6379 25 22.0166 24.774 22.2127 24.4101C22.5828 23.7239 22.0737 23.1424 22.0588 23.1024ZM19.8589 21.2675C19.5585 21.1192 19.2508 21.1191 18.9502 21.2675C18.8454 21.3193 18.769 21.3194 18.6639 21.2675C18.3645 21.1198 18.057 21.1186 17.7552 21.2675C17.6951 21.2972 17.6715 21.3101 17.5796 21.304L18.0321 20.6158C18.1386 20.4539 18.1949 20.2658 18.1949 20.072V19.5415H19.4193V20.072C19.4193 20.2658 19.4756 20.4538 19.5821 20.6158L20.0346 21.304C19.9395 21.3103 19.9133 21.2944 19.8589 21.2675ZM19.859 18.8384H17.7554V18.3264H19.859V18.8384ZM17.303 17.7662C17.1505 17.887 17.0523 18.0734 17.0523 18.2827V18.8821C17.0523 19.1685 17.2362 19.4122 17.4918 19.503V20.072C17.4918 20.1281 17.4755 20.1826 17.4447 20.2295L16.7326 21.3123C16.7328 21.3121 16.7325 21.3125 16.7326 21.3123L15.4517 23.2603C15.2476 23.5706 15.212 23.9576 15.349 24.2969H13.2803V23.2486C13.3213 23.1709 14.5472 20.8354 14.6233 20.75L15.0861 20.2303C15.5363 19.7248 15.5828 18.9822 15.1993 18.4246C15.0221 18.1668 15.0215 17.8202 15.198 17.5619C15.2986 17.4147 15.3595 17.2517 15.3835 17.0858C16.0323 17.2274 16.5367 17.3774 16.8864 17.5331C17.0335 17.5986 17.1722 17.6769 17.303 17.7662ZM14.5061 16.5631C14.7018 16.6986 14.7517 16.9687 14.6174 17.1652C14.2783 17.6615 14.2794 18.3277 14.62 18.823C14.8196 19.1132 14.7954 19.4996 14.5611 19.7627L14.0982 20.2824C13.9566 20.4415 13.9914 20.3979 13.2786 21.7533L13.2725 16.7749C13.2718 16.4562 13.2014 16.1407 13.0981 15.8499C13.0881 15.8216 13.083 15.7919 13.083 15.7615V15.5778L14.5061 16.5631ZM12.4007 15.9576C11.2665 16.6334 9.89628 16.6352 8.75961 15.9587C8.77142 15.9046 8.77878 15.8429 8.77878 15.7615V14.8934C8.77878 14.8936 8.77878 14.8932 8.77878 14.8934V14.7337C9.3357 14.9957 9.93631 15.1323 10.5754 15.1395H10.5793C10.5793 15.1395 10.5819 15.1395 10.5832 15.1395C11.2223 15.1323 11.8229 14.9957 12.3799 14.7337V15.7615C12.3799 15.8278 12.3874 15.8933 12.4007 15.9576ZM4.95927 11.7047C4.88117 11.6775 4.83739 11.5965 4.85745 11.5163L5.09056 10.5839C5.15056 10.344 4.97174 10.2158 4.84119 10.1222C4.58122 9.93583 3.95633 9.52356 3.6883 9.34712C3.59708 9.28708 3.6088 9.1509 3.70883 9.10703L4.64042 8.69842C5.18089 8.46137 5.31566 7.75323 4.89706 7.33469L4.04923 6.48686C3.9718 6.40937 4.01098 6.27733 4.11894 6.25539L5.42549 5.99026C5.86269 5.90153 6.15453 5.48626 6.0898 5.04484L5.88064 3.61858C5.86606 3.51929 5.95869 3.43886 6.05497 3.46703L7.24897 3.81719C7.49155 3.88834 7.75035 3.84737 7.95913 3.70492C8.16791 3.56247 8.30033 3.33634 8.32245 3.08458L8.43294 1.8295C8.44241 1.72206 8.5648 1.66754 8.65105 1.73115L10.0802 2.78622C10.3787 3.00653 10.7798 3.00658 11.0783 2.78622L12.5075 1.73115C12.5942 1.66726 12.7161 1.72248 12.7256 1.8295L12.8361 3.08458C12.8826 3.61323 13.4012 3.96639 13.9096 3.81723L15.1036 3.46708C15.2 3.4389 15.2925 3.51934 15.278 3.61862L15.0688 5.04494C15.0041 5.48636 15.2959 5.90162 15.7331 5.99031L17.0397 6.25544C17.1464 6.27709 17.1876 6.40867 17.1094 6.4869L16.2615 7.33473C15.8443 7.75192 15.9761 8.46062 16.5182 8.69842L17.4498 9.10703C17.5498 9.15086 17.5616 9.28703 17.4703 9.34712C17.2018 9.52389 16.5778 9.93555 16.3175 10.1222C16.187 10.2157 16.0083 10.3438 16.0681 10.5839L16.3012 11.5163C16.3213 11.5965 16.2775 11.6775 16.1994 11.7047C14.7071 12.2256 14.8682 12.1549 14.5621 12.3066C14.6421 12.0514 14.6982 11.7857 14.7268 11.5117C15.27 11.4763 15.7011 11.0231 15.7011 10.4712V9.7053C15.7011 9.16103 15.282 8.71286 14.7495 8.66654V7.97758C14.7495 5.59492 12.7736 3.94412 10.5831 3.91961C10.5805 3.91956 10.5779 3.91956 10.5753 3.91961C8.39122 3.94403 6.40888 5.58915 6.40888 7.97758V8.66654C5.87652 8.7129 5.45741 9.16108 5.45741 9.7053V10.4712C5.45741 11.0231 5.88847 11.4762 6.43161 11.5117C6.46034 11.7857 6.51641 12.0514 6.59642 12.3066C6.26413 12.1456 6.50314 12.2436 4.95927 11.7047ZM7.11214 8.88137C7.11214 8.44937 7.46361 8.0979 7.89561 8.0979H13.2641C13.6961 8.0979 14.0476 8.44937 14.0476 8.88137V9.0933C14.0476 9.5253 13.6961 9.87676 13.2641 9.87676H11.8909C11.5955 9.87676 11.5405 9.57864 11.3442 9.3234C10.9874 8.76451 10.1717 8.76555 9.81552 9.3234C9.61897 9.57892 9.56422 9.87676 9.26881 9.87676H7.89566C7.46361 9.87676 7.11219 9.5253 7.11219 9.0933L7.11214 8.88137ZM7.13253 7.60619C7.3302 5.7865 8.92306 4.64294 10.5793 4.62278C12.232 4.64289 13.8273 5.7797 14.026 7.60553C13.803 7.47189 13.5424 7.39483 13.2641 7.39483H7.89561C7.6168 7.39478 7.35575 7.47208 7.13253 7.60619ZM7.1256 11.3825C7.09672 11.0566 6.82789 10.8108 6.50024 10.8108C6.31297 10.8108 6.16067 10.6585 6.16067 10.4712V9.70534C6.16067 9.5402 6.27922 9.40239 6.43564 9.37211C6.56652 10.059 7.17125 10.5799 7.89566 10.5799H9.26881C10.0415 10.5799 10.2548 9.87512 10.4082 9.70183C10.4882 9.57653 10.6714 9.57616 10.7517 9.70183C10.9028 9.87269 11.1174 10.5799 11.891 10.5799H13.2642C13.9886 10.5799 14.5932 10.059 14.7242 9.37225C14.8801 9.4029 14.9982 9.54053 14.9982 9.70534V10.4712C14.9982 10.6585 14.8458 10.8108 14.6586 10.8108C14.3309 10.8108 14.0621 11.0566 14.0332 11.3825C13.8688 13.2394 12.2629 14.4159 10.5795 14.4363C8.90333 14.416 7.29111 13.2504 7.1256 11.3825ZM6.64067 16.563L8.07566 15.5687V15.7615C8.07566 15.8876 7.87527 16.2241 7.87414 16.7752L7.87236 18.2145C7.87213 18.4087 8.02935 18.5663 8.2235 18.5665C8.41747 18.5665 8.57521 18.4094 8.57549 18.2154L8.57727 16.7763C8.57736 16.7392 8.57919 16.7024 8.58196 16.6656C9.78116 17.3057 11.2465 17.3705 12.5653 16.6715C12.5676 16.7067 12.5693 16.7416 12.5694 16.7761L12.5773 23.1614V24.2969H8.56935V23.1614L8.57342 19.8677C8.57366 19.6735 8.41644 19.516 8.22228 19.5157C8.22242 19.5157 8.22214 19.5157 8.22228 19.5157C8.02831 19.5157 7.87058 19.6728 7.8703 19.8669L7.86795 21.7533C7.16178 20.4103 7.19108 20.4426 7.04839 20.2824L6.58555 19.7627C6.35127 19.4996 6.32703 19.1132 6.52667 18.823C6.86727 18.3277 6.8683 17.6615 6.5292 17.1652C6.39491 16.9687 6.44492 16.6986 6.64067 16.563ZM2.70308 23.6192V19.9495C2.70308 18.906 3.31902 17.9575 4.27231 17.5331C4.61984 17.3784 5.12033 17.2292 5.7635 17.0883C5.78774 17.2534 5.84863 17.4155 5.94866 17.5619C6.12514 17.8202 6.12458 18.1669 5.94734 18.4246C5.56381 18.9823 5.61036 19.7249 6.0605 20.2303L6.52339 20.7501C6.59947 20.8355 7.81935 23.1596 7.86627 23.2487V24.2969H3.38075C3.00706 24.2969 2.70308 23.9929 2.70308 23.6192Z" fill="black"/>
</g>
<defs>
<clipPath id="clip0">
<rect width="24" height="24" fill="white" transform="translate(0 0.500244)"/>
</clipPath>
</defs>
</svg>
