<svg width="45" height="70" viewBox="0 0 45 70" fill="none" xmlns="http://www.w3.org/2000/svg">
<path d="M36.8428 46.5H7.80432C5.73222 46.5044 3.74667 47.2703 2.28348 48.6298C0.8203 49.9892 -0.000950737 51.8309 8.25993e-07 53.7508V69.5H44.6471V53.7508C44.6481 51.8309 43.8268 49.9892 42.3636 48.6298C40.9004 47.2703 38.9149 46.5044 36.8428 46.5Z" fill="#1BB7A5"/>
<path d="M32.6267 69.3011V69.4999H12.0204V64.8999H12.1124L12.2433 64.961C15.2939 66.4042 18.7732 67.1602 22.3146 67.1495C25.8559 67.1388 29.328 66.3616 32.3649 64.8999H32.6267V69.3011Z" fill="#620D67"/>
<path d="M32.6267 58.7666V63.9H32.3649C29.328 65.5459 25.8559 66.4211 22.3146 66.4331C18.7732 66.4452 15.2939 65.5939 12.2433 63.9688L12.1124 63.9H12.0204V58.7666H12.1124L12.2433 58.8353C15.2939 60.4605 18.7732 61.3118 22.3146 61.2997C25.8559 61.2876 29.328 60.4125 32.3649 58.7666H32.6267Z" fill="white"/>
<path d="M32.6267 54.167V59.3004H32.3649C29.328 60.9463 25.8559 61.8214 22.3146 61.8335C18.7732 61.8456 15.2939 60.9943 12.2433 59.3692L12.1124 59.3004H12.0204V54.167H12.1124L12.2433 54.2357C15.2939 55.8608 18.7732 56.7122 22.3146 56.7001C25.8559 56.688 29.328 55.8129 32.3649 54.167H32.6267Z" fill="#620D67"/>
<path d="M30.5601 46.6332V46.6317C29.9191 46.3982 29.3723 46.0069 28.988 45.5067C28.6037 45.0065 28.3991 44.4197 28.3997 43.8197V38.8472L28.3908 38.8335H16.2563L16.2475 38.8472V43.8197C16.2481 44.4197 16.0434 45.0065 15.6591 45.5067C15.2748 46.0069 14.728 46.3982 14.087 46.6317V46.6332L12.0204 49.5245V53.2825H12.1124L12.2433 53.3481C15.2939 54.8991 18.7732 55.7116 22.3146 55.7001C25.8559 55.6885 29.328 54.8533 32.3649 53.2825H32.6267V49.5245L30.5601 46.6332Z" fill="#FFCBBE"/>
<path d="M32.5784 49.5758C32.011 50.0595 31.3342 50.4435 30.5876 50.7052C29.8411 50.967 29.0397 51.1012 28.2305 51.1H26.7502C26.0316 51.1 25.3424 50.8607 24.8343 50.4347C24.3262 50.0086 24.0408 49.4308 24.0408 48.8283C24.0408 48.2258 24.3262 47.6479 24.8343 47.2219C25.3424 46.7959 26.0316 46.5565 26.7502 46.5565H29.5188C29.7851 46.557 30.0509 46.5357 30.3123 46.4931C31.269 46.3368 32.1308 45.9058 32.7495 45.2743C33.3681 44.6428 33.7048 43.8502 33.7017 43.033V42.9435C33.7025 42.4548 33.5778 41.9718 33.3361 41.5271C33.0944 41.0825 32.7414 40.6867 32.301 40.3667C32.9355 40.7643 33.4506 41.2806 33.8052 41.8745C34.1599 42.4685 34.3444 43.1236 34.3439 43.7878V45.9741C34.344 46.2201 34.3233 46.4659 34.2819 46.7094C34.0961 47.7935 33.4988 48.7986 32.5784 49.5758Z" fill="#1BB7A5"/>
<path d="M34.3439 43.3739V43.4527C34.3467 44.1725 34.0454 44.8705 33.492 45.4267C32.9385 45.9829 32.1675 46.3624 31.3116 46.5V46.4986C30.6829 46.2794 30.1464 45.9119 29.7695 45.4423C29.3925 44.9726 29.1917 44.4216 29.1923 43.8582V40.3667H30.6989C31.5599 40.4195 32.3851 40.6729 33.0786 41.0974C33.0819 41.1005 33.086 41.103 33.0907 41.1045C33.4847 41.3864 33.8006 41.7349 34.0168 42.1265C34.2331 42.5181 34.3446 42.9436 34.3439 43.3739Z" fill="#56568C"/>
<path d="M15.4548 40.3667V43.8582C15.4554 44.4216 15.2546 44.9726 14.8776 45.4423C14.5007 45.9119 13.9642 46.2794 13.3355 46.4986V46.5C12.4796 46.3624 11.7086 45.9829 11.1551 45.4267C10.6017 44.8705 10.3004 44.1725 10.3032 43.4527V43.3739C10.3025 42.9436 10.414 42.5181 10.6303 42.1265C10.8465 41.7349 11.1624 41.3864 11.5564 41.1045C11.5611 41.103 11.5652 41.1005 11.5685 41.0974C12.262 40.6729 13.0872 40.4195 13.9482 40.3667H15.4548Z" fill="#56568C"/>
<path d="M33.5344 17.961C33.2025 17.9611 32.8739 17.9028 32.5674 17.7896C32.2608 17.6764 31.9822 17.5104 31.7476 17.3012C31.513 17.092 31.3268 16.8436 31.1999 16.5702C31.0729 16.2969 31.0075 16.0039 31.0076 15.708V12.3187C29.4881 11.895 27.8526 11.9423 26.3672 12.4529C25.1779 12.8592 23.8874 12.9705 22.6328 12.775C21.3782 12.5796 20.2065 12.0846 19.2422 11.3428C19.1883 11.3011 19.1249 11.2701 19.0565 11.2519C18.988 11.2338 18.916 11.2289 18.8452 11.2376C18.7744 11.2463 18.7066 11.2683 18.6462 11.3023C18.5857 11.3362 18.5341 11.3813 18.4948 11.4345C17.5491 12.71 14.6 16.4285 11.8749 17.0359L12.2054 12.7706C11.0918 13.4998 10.1864 14.4525 9.56237 15.5516C8.93837 16.6508 8.61333 17.8654 8.61354 19.0974L8.586 28.1209C8.586 31.3687 10.033 34.4835 12.6086 36.78C15.1842 39.0766 18.6774 40.3668 22.3199 40.3668C25.9624 40.3668 29.4556 39.0766 32.0312 36.78C34.6068 34.4835 36.0538 31.3687 36.0538 28.1209V20.9263L36.0611 20.2321V20.2141C36.0609 19.6166 35.7945 19.0437 35.3207 18.6212C34.8469 18.1988 34.2044 17.9613 33.5344 17.961Z" fill="#FFCBBE"/>
<path d="M37.909 22.0197C38.129 22.0744 38.3372 22.1711 38.5229 22.3048C39.0038 22.6501 39.3366 23.1742 39.4515 23.7672C39.5664 24.3602 39.4545 24.9761 39.1392 25.4859C38.8239 25.9956 38.3297 26.3595 37.7602 26.5014C37.1907 26.6434 36.5901 26.5522 36.0843 26.2471H36.0611V22.5595H36.0843C36.3185 22.3163 36.6092 22.139 36.9286 22.0446C37.248 21.9501 37.5855 21.9415 37.909 22.0197Z" fill="#E8ADA3"/>
<path d="M8.586 22.5595L8.57685 26.2471H8.52649C8.02605 26.5522 7.43185 26.6434 6.86843 26.5014C6.30501 26.3595 5.8161 25.9956 5.50417 25.4859C5.19224 24.9761 5.08151 24.3602 5.19518 23.7672C5.30885 23.1742 5.63809 22.6501 6.11391 22.3047C6.3032 22.1681 6.51544 22.0698 6.73956 22.015C7.05726 21.9411 7.38769 21.9523 7.70012 22.0475C8.01255 22.1428 8.29682 22.3189 8.52649 22.5595H8.586Z" fill="#E8ADA3"/>
<path d="M13.7376 46.5H8.14562C5.98291 46.5044 3.91052 47.2703 2.38335 48.6298C0.856173 49.9892 -0.000992315 51.8309 8.62116e-07 53.7508V69.5H5.59196V53.7508C5.59096 51.8309 6.44813 49.9892 7.9753 48.6298C9.50247 47.2703 11.5749 46.5044 13.7376 46.5Z" fill="#1BB7A5"/>
<path d="M22.0688 39.0058C19.736 37.9739 17.7795 36.4125 16.4134 34.4924C15.0473 32.5723 14.3243 30.3674 14.3234 28.1191L14.3521 19.0943C14.3527 17.5151 14.9097 15.9729 15.9501 14.669L12.3555 12.7666C11.1957 13.4959 10.2527 14.4487 9.60285 15.548C8.95298 16.6473 8.61446 17.8622 8.61468 19.0943L8.586 28.1191C8.58685 29.9356 9.05941 31.7293 9.96946 33.3702C10.8795 35.0111 12.2043 36.4582 13.8479 37.6068C15.4915 38.7553 17.4127 39.5765 19.4726 40.011C21.5325 40.4455 23.6794 40.4823 25.758 40.1189C24.4742 39.8953 23.2327 39.5208 22.0688 39.0058Z" fill="#EAAC9D"/>
<path d="M10.3677 46.7468C10.3244 46.4912 10.3028 46.2328 10.3032 45.9741V43.7878C10.3028 43.1236 10.4732 42.4685 10.8008 41.8745C11.1284 41.2806 11.6041 40.7643 12.1902 40.3667C11.7834 40.6867 11.4573 41.0825 11.2341 41.5271C11.0108 41.9718 10.8956 42.4548 10.8964 42.9435V43.033C10.8935 43.8502 11.2046 44.6428 11.776 45.2743C12.3474 45.9058 13.1434 46.3368 14.0271 46.4931C14.2686 46.5357 14.5141 46.557 14.7601 46.5565H19.8209C20.4847 46.5565 21.1212 46.7959 21.5905 47.2219C22.0599 47.6479 22.3236 48.2258 22.3236 48.8283C22.3236 49.4308 22.0599 50.0086 21.5905 50.4347C21.1212 50.8607 20.4847 51.1 19.8209 51.1H15.95C14.6002 51.0992 13.2952 50.6598 12.2713 49.8613C11.2473 49.0629 10.5721 47.9581 10.3677 46.7468Z" fill="#1BB7A5"/>
<path d="M31.1877 12.9544C29.6698 12.5369 28.0359 12.5835 26.552 13.0867C25.3639 13.487 24.0747 13.5967 22.8214 13.4041C21.5681 13.2115 20.3976 12.7237 19.4342 11.9928C19.3803 11.9516 19.3171 11.9211 19.2487 11.9032C19.1803 11.8853 19.1083 11.8805 19.0376 11.8891C18.9669 11.8976 18.8991 11.9194 18.8388 11.9528C18.7784 11.9863 18.7269 12.0307 18.6876 12.0831C17.7429 13.34 14.7967 17.0042 12.0743 17.6028L12.4045 13.3997C11.2921 14.1183 10.3875 15.0571 9.76416 16.1402C9.14079 17.2232 8.81608 18.4202 8.81629 19.6341L8.80345 23.5H8.73191C8.4558 23.2562 8.11407 23.0777 7.73848 22.9812C7.36289 22.8848 6.96566 22.8734 6.58374 22.9482L6.57273 22.9095C5.62972 20.8546 5.14757 18.6587 5.15284 16.4427C5.15284 7.63799 12.5678 0.5 21.7145 0.5C25.0614 0.506859 28.3159 1.46628 30.9914 3.23483C31.2067 3.37607 31.3809 3.5602 31.4996 3.77212C31.6181 3.9851 31.6796 4.21911 31.6794 4.45623C31.6793 4.78059 31.796 5.09664 32.0129 5.35899C32.2298 5.62133 32.5356 5.81649 32.8865 5.91642C32.8865 5.91642 35.3245 6.657 35.4327 6.78447C36.1903 7.67026 38.8393 11.3554 39.2227 13.5659C39.7687 16.7076 39.4965 19.9174 38.4266 22.9531C38.0418 22.8738 37.6404 22.8825 37.2606 22.9782C36.8807 23.0739 36.535 23.2536 36.2564 23.5H36.2289V21.4364L36.2362 20.7523V20.7345C36.2359 20.1458 35.9699 19.5812 35.4965 19.1649C35.0232 18.7486 34.3813 18.5147 33.712 18.5144C33.3805 18.5144 33.0522 18.457 32.746 18.3454C32.4397 18.2339 32.1614 18.0703 31.927 17.8642C31.6926 17.658 31.5067 17.4133 31.3798 17.1439C31.253 16.8745 31.1877 16.5858 31.1877 16.2943V12.9544Z" fill="#2F373B"/>
<path d="M30.7739 24.1265C30.4897 24.1265 30.2172 24.0257 30.0162 23.8462C29.8153 23.6668 29.7024 23.4234 29.7024 23.1697C29.7024 22.8779 29.5725 22.598 29.3414 22.3916C29.1103 22.1853 28.7969 22.0694 28.4701 22.0694C28.1433 22.0694 27.8298 22.1853 27.5988 22.3916C27.3677 22.598 27.2378 22.8779 27.2378 23.1697C27.2378 23.4234 27.1249 23.6668 26.924 23.8462C26.723 24.0257 26.4505 24.1265 26.1663 24.1265C25.8821 24.1265 25.6096 24.0257 25.4086 23.8462C25.2077 23.6668 25.0948 23.4234 25.0948 23.1697C25.0948 22.3703 25.4504 21.6037 26.0834 21.0385C26.7164 20.4733 27.5749 20.1558 28.4701 20.1558C29.3653 20.1558 30.2238 20.4733 30.8568 21.0385C31.4898 21.6037 31.8454 22.3703 31.8454 23.1697C31.8454 23.4234 31.7325 23.6668 31.5316 23.8462C31.3306 24.0257 31.0581 24.1265 30.7739 24.1265Z" fill="black" fill-opacity="0.72"/>
<path d="M18.4852 24.1265C18.201 24.1265 17.9285 24.0257 17.7275 23.8462C17.5266 23.6668 17.4137 23.4234 17.4137 23.1697C17.4137 22.8779 17.2838 22.598 17.0528 22.3916C16.8217 22.1853 16.5082 22.0694 16.1814 22.0694C15.8546 22.0694 15.5412 22.1853 15.3101 22.3916C15.079 22.598 14.9492 22.8779 14.9492 23.1697C14.9492 23.4234 14.8363 23.6668 14.6353 23.8462C14.4344 24.0257 14.1618 24.1265 13.8776 24.1265C13.5934 24.1265 13.3209 24.0257 13.1199 23.8462C12.919 23.6668 12.8061 23.4234 12.8061 23.1697C12.8061 22.3703 13.1617 21.6037 13.7947 21.0385C14.4277 20.4733 15.2862 20.1558 16.1814 20.1558C17.0766 20.1558 17.9351 20.4733 18.5681 21.0385C19.2011 21.6037 19.5567 22.3703 19.5567 23.1697C19.5567 23.4234 19.4438 23.6668 19.2429 23.8462C19.0419 24.0257 18.7694 24.1265 18.4852 24.1265Z" fill="black" fill-opacity="0.72"/>
<path d="M22.3241 33.2538C21.4696 33.2558 20.6232 33.1065 19.8338 32.8145C19.0444 32.5225 18.3276 32.0936 17.7251 31.5526C17.6234 31.4642 17.5424 31.3586 17.4867 31.242C17.4311 31.1254 17.4019 31.0001 17.401 30.8734C17.4 30.7467 17.4273 30.621 17.4812 30.5038C17.535 30.3865 17.6145 30.28 17.7148 30.1904C17.8152 30.1007 17.9345 30.0298 18.0658 29.9817C18.1972 29.9336 18.3379 29.9093 18.4798 29.9102C18.6218 29.911 18.7621 29.9371 18.8927 29.9868C19.0232 30.0365 19.1414 30.1088 19.2404 30.1997C20.0583 30.9299 21.1675 31.3402 22.3241 31.3402C23.4807 31.3402 24.5899 30.9299 25.4078 30.1997C25.5068 30.1088 25.625 30.0365 25.7556 29.9868C25.8861 29.9371 26.0265 29.911 26.1684 29.9102C26.3103 29.9093 26.4511 29.9336 26.5824 29.9817C26.7137 30.0298 26.833 30.1007 26.9334 30.1904C27.0338 30.28 27.1132 30.3865 27.1671 30.5038C27.221 30.621 27.2482 30.7467 27.2473 30.8734C27.2463 31.0001 27.2172 31.1254 27.1615 31.242C27.1059 31.3586 27.0248 31.4642 26.9231 31.5526C26.3206 32.0936 25.6039 32.5225 24.8145 32.8145C24.025 33.1066 23.1786 33.2559 22.3241 33.2538Z" fill="black" fill-opacity="0.72"/>
<path d="M19.7478 49.5665C19.578 49.5665 19.412 49.5216 19.2708 49.4373C19.1296 49.3531 19.0195 49.2333 18.9545 49.0933C18.8895 48.9532 18.8725 48.799 18.9057 48.6503C18.9388 48.5016 19.0206 48.365 19.1407 48.2578C19.2607 48.1505 19.4137 48.0775 19.5803 48.0479C19.7468 48.0184 19.9195 48.0335 20.0763 48.0916C20.2332 48.1496 20.3673 48.2479 20.4617 48.3739C20.556 48.5 20.6064 48.6482 20.6064 48.7999C20.6061 49.0031 20.5155 49.198 20.3546 49.3417C20.1936 49.4854 19.9754 49.5663 19.7478 49.5665Z" fill="#620D67"/>
<path d="M40.3077 60.2999H36.9662C36.7261 60.2999 36.4959 60.2192 36.3262 60.0754C36.1565 59.9316 36.0611 59.7366 36.0611 59.5333C36.0611 59.3299 36.1565 59.1349 36.3262 58.9912C36.4959 58.8474 36.7261 58.7666 36.9662 58.7666H40.3077C40.5477 58.7666 40.7779 58.8474 40.9476 58.9912C41.1174 59.1349 41.2127 59.3299 41.2127 59.5333C41.2127 59.7366 41.1174 59.9316 40.9476 60.0754C40.7779 60.2192 40.5477 60.2999 40.3077 60.2999Z" fill="#51006F"/>
</svg>
