<svg width="24" height="24" viewBox="0 0 24 24" fill="none" xmlns="http://www.w3.org/2000/svg">
<g clip-path="url(#clip0)">
<path d="M12.1704 11.5609C10.5822 11.5609 9.20703 10.9913 8.08313 9.86735C6.95959 8.74364 6.38977 7.3687 6.38977 5.78026C6.38977 4.19237 6.95941 2.81726 8.08331 1.69317C9.20721 0.56964 10.5823 0 12.1704 0C13.7589 0 15.1338 0.56964 16.2575 1.69336C17.3812 2.81707 17.951 4.19219 17.951 5.78026C17.951 7.3687 17.3812 8.74382 16.2575 9.86753C15.1334 10.9911 13.7583 11.5609 12.1704 11.5609ZM15.2629 2.6878C14.4006 1.82556 13.3892 1.40643 12.1704 1.40643C10.9518 1.40643 9.94019 1.82556 9.07776 2.6878C8.21552 3.55023 7.7962 4.56188 7.7962 5.78026C7.7962 6.99901 8.21552 8.01048 9.07776 8.87291C9.94019 9.73533 10.9518 10.1545 12.1704 10.1545C13.3888 10.1545 14.4003 9.73515 15.2629 8.87291C16.1253 8.01067 16.5446 6.99901 16.5446 5.78026C16.5446 4.56188 16.1253 3.55023 15.2629 2.6878Z" fill="white"/>
<path d="M2.05646 18.4551C2.08887 17.9875 2.15442 17.4773 2.25092 16.9387C2.34833 16.3959 2.47375 15.8829 2.6239 15.4139C2.77917 14.9293 2.98993 14.4506 3.25085 13.9919C3.5213 13.5159 3.83917 13.1013 4.19586 12.7602C4.56885 12.4033 5.02551 12.1164 5.55359 11.9071C6.07983 11.6989 6.66302 11.5934 7.28687 11.5934C7.53186 11.5934 7.7688 11.694 8.22638 11.9919C8.508 12.1755 8.8374 12.3879 9.20508 12.6229C9.51947 12.8232 9.94537 13.0109 10.4714 13.1808C10.9847 13.3469 11.5058 13.4311 12.0203 13.4311C12.5345 13.4311 13.0556 13.3469 13.5692 13.1808C14.0947 13.011 14.5208 12.8234 14.8347 12.623C15.1989 12.3903 15.5284 12.1779 15.8143 11.9917C16.2715 11.6938 16.5084 11.5933 16.7534 11.5933C17.3774 11.5933 17.9604 11.6989 18.4865 11.9073C19.0142 12.1162 19.4711 12.4031 19.8444 12.7604C20.2011 13.1017 20.519 13.516 20.7892 13.9919C21.0498 14.4506 21.2607 14.9291 21.416 15.4141C21.566 15.8831 21.6914 16.3959 21.7888 16.9387C21.8855 17.4766 21.9509 17.9869 21.9833 18.4557C22.0151 18.914 22.0312 19.391 22.0312 19.8729C22.0312 21.1257 21.633 22.1399 20.8477 22.8879C20.072 23.626 19.0459 24.0003 17.7977 24.0003H6.24152C4.99365 24.0003 3.96753 23.626 3.19171 22.8879C2.40619 22.1405 2.00793 21.1259 2.00793 19.8727C2.00812 19.3891 2.02441 18.9122 2.05646 18.4551ZM4.16144 21.8689C4.67395 22.3567 5.35437 22.5939 6.2417 22.5939H17.7977C18.6852 22.5939 19.3656 22.3567 19.8779 21.8691C20.3806 21.3907 20.6248 20.7375 20.6248 19.8729C20.6248 19.4232 20.61 18.9792 20.5803 18.5529C20.5514 18.1347 20.4922 17.6753 20.4045 17.1871C20.3179 16.705 20.2077 16.2526 20.0766 15.843C19.9508 15.4502 19.7792 15.0613 19.5665 14.6866C19.3634 14.3296 19.1298 14.0233 18.8719 13.7764C18.6308 13.5455 18.3268 13.3566 17.9687 13.2148C17.6375 13.0837 17.2652 13.012 16.8611 13.0012C16.8118 13.0273 16.7241 13.0773 16.582 13.17C16.2929 13.3584 15.9597 13.5734 15.5912 13.8087C15.176 14.0734 14.6409 14.3126 14.0017 14.5189C13.3482 14.7302 12.6817 14.8375 12.0201 14.8375C11.3586 14.8375 10.6919 14.7302 10.0388 14.5191C9.39899 14.3124 8.86414 14.0734 8.4483 13.8083C8.07129 13.5673 7.74738 13.3586 7.45825 13.17C7.31616 13.0775 7.22845 13.0273 7.1792 13.0012C6.7749 13.012 6.40265 13.0837 6.07123 13.2148C5.71326 13.3566 5.4093 13.5457 5.16815 13.7764C4.91034 14.0231 4.6767 14.3294 4.47363 14.6868C4.26068 15.0613 4.08893 15.4504 3.96332 15.8428C3.83203 16.2529 3.72162 16.7052 3.63519 17.1869C3.54767 17.676 3.48834 18.1356 3.45941 18.5531V18.5535C3.42957 18.9781 3.41455 19.4219 3.41437 19.8729C3.41455 20.7377 3.65881 21.3907 4.16144 21.8689Z" fill="white"/>
</g>
<defs>
<clipPath id="clip0">
<rect width="24" height="24" fill="white" transform="matrix(-1 0 0 1 24 0)"/>
</clipPath>
</defs>
</svg>
