<svg width="24" height="25" viewBox="0 0 24 25" fill="none" xmlns="http://www.w3.org/2000/svg">
<g clip-path="url(#clip0)">
<path d="M3.375 9.87524V8.00024C3.375 6.30949 4.04665 4.68798 5.24219 3.49244C6.43774 2.29689 8.05924 1.62524 9.75 1.62524C11.4408 1.62524 13.0623 2.29689 14.2578 3.49244C15.4534 4.68798 16.125 6.30949 16.125 8.00024V9.87524H3.375Z" fill="#734B39"/>
<path d="M14.625 11.3752C15.4534 11.3752 16.125 10.7037 16.125 9.87524C16.125 9.04682 15.4534 8.37524 14.625 8.37524C13.7966 8.37524 13.125 9.04682 13.125 9.87524C13.125 10.7037 13.7966 11.3752 14.625 11.3752Z" fill="#F0C6A4"/>
<path d="M4.875 11.3752C5.70343 11.3752 6.375 10.7037 6.375 9.87524C6.375 9.04682 5.70343 8.37524 4.875 8.37524C4.04657 8.37524 3.375 9.04682 3.375 9.87524C3.375 10.7037 4.04657 11.3752 4.875 11.3752Z" fill="#F0C6A4"/>
<path d="M4.875 8.00024H8.25C9.90684 8.00024 11.25 6.48923 11.25 4.62524C12.1451 4.62524 13.0035 4.98082 13.6365 5.61376C14.2694 6.24669 14.625 7.10514 14.625 8.00024V9.50024C14.625 10.7932 14.1114 12.0331 13.1971 12.9474C12.2829 13.8616 11.0429 14.3752 9.75 14.3752C8.45707 14.3752 7.21709 13.8616 6.30285 12.9474C5.38861 12.0331 4.875 10.7932 4.875 9.50024V8.00024Z" fill="#F7CCA9"/>
<path d="M16.875 15.8752V23.3752H2.625V15.8752C2.625 15.4774 2.78304 15.0959 3.06434 14.8146C3.34564 14.5333 3.72718 14.3752 4.125 14.3752H15.375C15.7728 14.3752 16.1544 14.5333 16.4357 14.8146C16.717 15.0959 16.875 15.4774 16.875 15.8752Z" fill="#E9EEF2"/>
<path d="M16.875 16.6252H22.125V23.3752H16.875V16.6252Z" fill="#1BB7A5"/>
<path d="M20.25 18.5002H18.75C18.6505 18.5002 18.5552 18.4607 18.4848 18.3904C18.4145 18.3201 18.375 18.2247 18.375 18.1252C18.375 18.0258 18.4145 17.9304 18.4848 17.8601C18.5552 17.7898 18.6505 17.7502 18.75 17.7502H20.25C20.3495 17.7502 20.4448 17.7898 20.5152 17.8601C20.5855 17.9304 20.625 18.0258 20.625 18.1252C20.625 18.2247 20.5855 18.3201 20.5152 18.3904C20.4448 18.4607 20.3495 18.5002 20.25 18.5002Z" fill="#51006F"/>
<path d="M20.625 20.0002H18.4219C18.3224 20.0002 18.227 19.9607 18.1567 19.8904C18.0864 19.8201 18.0469 19.7247 18.0469 19.6252C18.0469 19.5258 18.0864 19.4304 18.1567 19.3601C18.227 19.2898 18.3224 19.2502 18.4219 19.2502H20.625C20.7245 19.2502 20.8198 19.2898 20.8902 19.3601C20.9605 19.4304 21 19.5258 21 19.6252C21 19.7247 20.9605 19.8201 20.8902 19.8904C20.8198 19.9607 20.7245 20.0002 20.625 20.0002Z" fill="#51006F"/>
<path d="M22.875 21.8752V22.6252C22.875 22.8242 22.796 23.0149 22.6553 23.1556C22.5147 23.2962 22.3239 23.3752 22.125 23.3752H20.625V21.1252H22.125C22.3239 21.1252 22.5147 21.2043 22.6553 21.3449C22.796 21.4856 22.875 21.6763 22.875 21.8752Z" fill="#F7CCA9"/>
<path d="M4.87525 21.5003C4.80555 21.5003 4.73722 21.4809 4.67793 21.4443C4.61864 21.4077 4.57073 21.3552 4.53957 21.2929L0.789574 13.7929C0.767094 13.7488 0.753564 13.7007 0.749764 13.6514C0.745964 13.602 0.75197 13.5524 0.767435 13.5054C0.7829 13.4584 0.807518 13.4149 0.83987 13.3774C0.872222 13.34 0.911668 13.3093 0.955933 13.2872C1.0002 13.265 1.04841 13.2519 1.09778 13.2485C1.14716 13.245 1.19672 13.2514 1.24361 13.2673C1.2905 13.2831 1.33379 13.308 1.37099 13.3407C1.40819 13.3733 1.43857 13.413 1.46036 13.4575L5.21036 20.9575C5.23896 21.0146 5.25247 21.0781 5.24963 21.142C5.24678 21.2058 5.22766 21.2679 5.19409 21.3223C5.16052 21.3766 5.1136 21.4215 5.0578 21.4527C5.002 21.4838 4.93916 21.5002 4.87525 21.5003V21.5003Z" fill="#C3C6C7"/>
<path d="M11.625 16.6252H16.875V23.3752H11.625V16.6252Z" fill="#1BB7A5"/>
<path d="M4.125 22.6252V21.8752C4.125 21.6763 4.20402 21.4856 4.34467 21.3449C4.48532 21.2043 4.67609 21.1252 4.875 21.1252H6.375V23.3752H4.875C4.67609 23.3752 4.48532 23.2962 4.34467 23.1556C4.20402 23.0149 4.125 22.8242 4.125 22.6252Z" fill="#F7CCA9"/>
<path d="M9.75008 12.8733C9.30162 12.8733 8.85308 12.728 8.41705 12.4374C8.37579 12.4102 8.34031 12.3751 8.31265 12.3342C8.285 12.2932 8.2657 12.2472 8.25589 12.1988C8.24607 12.1503 8.24592 12.1004 8.25545 12.052C8.26498 12.0035 8.284 11.9573 8.31141 11.9162C8.33882 11.8751 8.37409 11.8398 8.41519 11.8124C8.45628 11.785 8.50239 11.7659 8.55088 11.7563C8.59936 11.7468 8.64925 11.7469 8.69768 11.7567C8.74612 11.7665 8.79214 11.7857 8.83311 11.8134C9.45865 12.2306 10.0415 12.2306 10.667 11.8134C10.7498 11.7588 10.8508 11.7393 10.9479 11.759C11.045 11.7786 11.1304 11.836 11.1854 11.9185C11.2404 12.0009 11.2605 12.1018 11.2413 12.199C11.2222 12.2963 11.1653 12.382 11.0831 12.4374C10.6471 12.728 10.1985 12.8733 9.75008 12.8733V12.8733Z" fill="#452D23"/>
<path d="M9.375 14.3752H10.125V23.3752H9.375V14.3752Z" fill="#E1E3E6"/>
<path d="M8.625 23.3752L9 16.6252H10.5L10.875 23.3752H9.75H8.625Z" fill="#4F5659"/>
<path d="M9 14.3752H10.5V16.6252H9V14.3752Z" fill="#606669"/>
<path d="M10.125 14.3752L7.125 16.6252V14.3752H10.125Z" fill="#DADCDE"/>
<path d="M9.375 14.3752L12.375 16.6252V14.3752H9.375Z" fill="#DADCDE"/>
<path d="M7.875 7.62524C7.44295 7.62581 7.02431 7.77531 6.68964 8.04855C6.35497 8.32178 6.12473 8.70205 6.03773 9.12524H4.875V9.87524H6.03773C6.10869 10.2228 6.2768 10.5432 6.52255 10.7991C6.7683 11.0549 7.0816 11.2358 7.42606 11.3207C7.77052 11.4057 8.132 11.3911 8.46852 11.2788C8.80504 11.1664 9.10279 10.961 9.32717 10.6862C9.55156 10.4114 9.69338 10.0785 9.73617 9.72636C9.77895 9.37418 9.72094 9.01709 9.56887 8.69656C9.41681 8.37603 9.17693 8.10522 8.87709 7.91559C8.57725 7.72595 8.22977 7.62527 7.875 7.62524V7.62524ZM7.875 10.6252C7.6525 10.6252 7.43499 10.5593 7.24998 10.4356C7.06498 10.312 6.92078 10.1363 6.83564 9.93076C6.75049 9.7252 6.72821 9.499 6.77162 9.28077C6.81502 9.06254 6.92217 8.86208 7.0795 8.70475C7.23684 8.54741 7.43729 8.44027 7.65552 8.39686C7.87375 8.35345 8.09995 8.37573 8.30552 8.46088C8.51109 8.54603 8.68679 8.69022 8.8104 8.87523C8.93402 9.06023 9 9.27774 9 9.50024C8.99965 9.79851 8.88101 10.0845 8.67011 10.2954C8.45921 10.5063 8.17326 10.6249 7.875 10.6252V10.6252Z" fill="#4F5659"/>
<path d="M7.875 9.87524C8.08211 9.87524 8.25 9.70735 8.25 9.50024C8.25 9.29314 8.08211 9.12524 7.875 9.12524C7.66789 9.12524 7.5 9.29314 7.5 9.50024C7.5 9.70735 7.66789 9.87524 7.875 9.87524Z" fill="#452D23"/>
<path d="M14.6251 9.12525H13.4626C13.3697 8.66998 13.111 8.26544 12.7368 7.99005C12.3625 7.71466 11.8993 7.58804 11.437 7.63474C10.9747 7.68144 10.5462 7.89814 10.2346 8.24281C9.92302 8.58749 9.75049 9.03559 9.75049 9.50025C9.75049 9.9649 9.92302 10.413 10.2346 10.7577C10.5462 11.1024 10.9747 11.319 11.437 11.3657C11.8993 11.4125 12.3625 11.2858 12.7368 11.0104C13.111 10.7351 13.3697 10.3305 13.4626 9.87525H14.6251V9.12525ZM11.6251 10.6252C11.4026 10.6252 11.1851 10.5593 11.0001 10.4356C10.8151 10.312 10.6709 10.1363 10.5857 9.93076C10.5006 9.7252 10.4783 9.499 10.5217 9.28077C10.5651 9.06254 10.6723 8.86209 10.8296 8.70475C10.9869 8.54742 11.1874 8.44027 11.4056 8.39686C11.6239 8.35346 11.8501 8.37573 12.0556 8.46088C12.2612 8.54603 12.4369 8.69023 12.5605 8.87523C12.6841 9.06024 12.7501 9.27774 12.7501 9.50025C12.7498 9.79851 12.6311 10.0845 12.4202 10.2954C12.2093 10.5063 11.9234 10.6249 11.6251 10.6252V10.6252Z" fill="#4F5659"/>
<path d="M11.625 9.87524C11.8321 9.87524 12 9.70735 12 9.50024C12 9.29314 11.8321 9.12524 11.625 9.12524C11.4179 9.12524 11.25 9.29314 11.25 9.50024C11.25 9.70735 11.4179 9.87524 11.625 9.87524Z" fill="#452D23"/>
</g>
<defs>
<clipPath id="clip0">
<rect width="24" height="24" fill="white" transform="translate(0 0.500244)"/>
</clipPath>
</defs>
</svg>
