<svg width="49" height="50" viewBox="0 0 49 50" fill="none" xmlns="http://www.w3.org/2000/svg">
<path d="M46.0081 17.175L32.052 15.8793L26.5082 2.99346C25.9384 1.66885 24.0615 1.66885 23.4917 2.99346L17.948 15.8794L3.99193 17.175C2.55652 17.3083 1.97795 19.0943 3.05966 20.0454C3.05966 20.0454 3.05967 20.0454 3.05967 20.0454L13.5899 29.3052L10.5082 42.9924C10.1917 44.3978 11.7086 45.5033 12.9486 44.7662L25 37.6033L37.0514 44.7662C38.2914 45.5033 39.8083 44.3978 39.4919 42.9924L36.4101 29.3052L46.9403 20.0454C48.0221 19.0943 47.4435 17.3083 46.0081 17.175Z" fill="#FFDC64" stroke="#5D5D5D"/>
<path d="M26.1843 3.19104C25.7856 2.26965 24.4728 2.26965 24.0742 3.19104L18.3798 16.3498L4.04425 17.6729C3.04048 17.7655 2.63481 19.0079 3.39213 19.6699L14.2083 29.1257L11.043 43.1022C10.8213 44.0808 11.8834 44.8486 12.7501 44.3364L15.5131 42.7038C15.8955 27.0391 23.2094 16.0079 29 9.6974L26.1843 3.19104Z" fill="#FFC850"/>
<path d="M26.1843 3.19104C25.7856 2.26965 24.4728 2.26965 24.0742 3.19104L18.3798 16.3498L4.04425 17.6729C3.04048 17.7655 2.63481 19.0079 3.39213 19.6699L14.2083 29.1257L11.043 43.1022C10.8213 44.0808 11.8834 44.8486 12.7501 44.3364L15.5131 42.7038C15.8955 27.0391 23.2094 16.0079 29 9.6974L26.1843 3.19104Z" stroke="#5D5D5D"/>
</svg>
