<svg width="24" height="24" viewBox="0 0 24 24" fill="none" xmlns="http://www.w3.org/2000/svg">
<path d="M6.0969 0.383614L5.30529 1.16977C5.05806 1.41718 4.92187 1.74636 4.92187 2.09816C4.92187 2.44978 5.05806 2.77934 5.30529 3.02676L14.2736 11.9946L5.29533 20.9729C5.04811 21.2199 4.91211 21.5494 4.91211 21.9011C4.91211 22.2527 5.04811 22.5824 5.29533 22.8296L6.08207 23.616C6.59368 24.128 7.42706 24.128 7.93867 23.616L18.6668 12.9264C18.9138 12.6793 19.0878 12.3502 19.0878 11.9954L19.0878 11.9913C19.0878 11.6395 18.9136 11.3103 18.6668 11.0633L7.96775 0.383614C7.72072 0.136197 7.3816 0.000389423 7.02998 2.77725e-07C6.67818 2.31591e-07 6.34373 0.136196 6.0969 0.383614Z" fill="white"/>
</svg>
